<?xml version="1.0" encoding="UTF-8" standalone="no"?>
<!DOCTYPE svg PUBLIC "-//W3C//DTD SVG 1.1//EN" "http://www.w3.org/Graphics/SVG/1.1/DTD/svg11.dtd">
<svg width="100%" height="100%" viewBox="0 0 15 14" version="1.1" xmlns="http://www.w3.org/2000/svg" xmlns:xlink="http://www.w3.org/1999/xlink" xml:space="preserve" xmlns:serif="http://www.serif.com/" style="fill-rule:evenodd;clip-rule:evenodd;stroke-linejoin:round;stroke-miterlimit:2;">
    <g transform="matrix(1,0,0,1,-0.982112,-0.214005)">
        <path d="M13.189,7.315L1.489,7.31C1.325,7.31 1.2,7.259 1.113,7.159C1.026,7.058 0.982,6.926 0.982,6.762C0.982,6.599 1.031,6.469 1.128,6.372C1.225,6.275 1.355,6.227 1.518,6.227L13.189,6.221L8.109,1.141C8,1.032 7.946,0.905 7.945,0.759C7.945,0.612 7.998,0.485 8.106,0.378C8.214,0.27 8.341,0.215 8.49,0.214C8.638,0.213 8.766,0.266 8.875,0.375L14.794,6.294C14.929,6.429 14.996,6.587 14.996,6.768C14.996,6.95 14.929,7.108 14.795,7.242L8.875,13.162C8.766,13.27 8.639,13.325 8.493,13.325C8.346,13.326 8.219,13.272 8.112,13.165C8.004,13.057 7.949,12.929 7.948,12.781C7.947,12.632 8,12.504 8.109,12.396L13.189,7.315Z" style="fill-rule:nonzero;"/>
    </g>
</svg>
