<?xml version="1.0" encoding="UTF-8" standalone="no"?>
<!DOCTYPE svg PUBLIC "-//W3C//DTD SVG 1.1//EN" "http://www.w3.org/Graphics/SVG/1.1/DTD/svg11.dtd">
<svg width="100%" height="100%" viewBox="0 0 18 18" version="1.1" xmlns="http://www.w3.org/2000/svg" xmlns:xlink="http://www.w3.org/1999/xlink" xml:space="preserve" xmlns:serif="http://www.serif.com/" style="fill-rule:evenodd;clip-rule:evenodd;stroke-linejoin:round;stroke-miterlimit:2;">
    <g transform="matrix(1,0,0,1,-0.234375,-0.234375)">
        <path d="M9.001,10.868L2.468,17.401C2.223,17.645 1.912,17.768 1.534,17.768C1.157,17.768 0.845,17.645 0.601,17.401C0.357,17.157 0.234,16.846 0.234,16.468C0.234,16.09 0.357,15.779 0.601,15.534L7.134,9.001L0.601,2.468C0.357,2.223 0.234,1.912 0.234,1.534C0.234,1.157 0.357,0.845 0.601,0.601C0.845,0.357 1.157,0.234 1.534,0.234C1.912,0.234 2.223,0.357 2.468,0.601L9.001,7.134L15.534,0.601C15.779,0.357 16.09,0.234 16.468,0.234C16.846,0.234 17.157,0.357 17.401,0.601C17.645,0.845 17.768,1.157 17.768,1.534C17.768,1.912 17.645,2.223 17.401,2.468L10.868,9.001L17.401,15.534C17.645,15.779 17.768,16.09 17.768,16.468C17.768,16.846 17.645,17.157 17.401,17.401C17.157,17.645 16.846,17.768 16.468,17.768C16.09,17.768 15.779,17.645 15.534,17.401L9.001,10.868Z" style="fill-rule:nonzero;"/>
    </g>
</svg>
