<?xml version="1.0" encoding="UTF-8" standalone="no"?>
<!DOCTYPE svg PUBLIC "-//W3C//DTD SVG 1.1//EN" "http://www.w3.org/Graphics/SVG/1.1/DTD/svg11.dtd">
<svg width="100%" height="100%" viewBox="0 0 835 834" version="1.1" xmlns="http://www.w3.org/2000/svg" xmlns:xlink="http://www.w3.org/1999/xlink" xml:space="preserve" xmlns:serif="http://www.serif.com/" style="fill-rule:evenodd;clip-rule:evenodd;stroke-linejoin:round;stroke-miterlimit:2;">
    <g id="Artboard1" transform="matrix(0.981538,0,0,1.02222,0,0)">
        <rect x="0" y="0" width="850.11" height="815.747" style="fill:none;"/>
        <g transform="matrix(-261.143,332.755,346.549,250.749,710.567,426.926)">
            <path d="M0.233,-0.222C0.303,-0.276 0.397,-0.443 0.397,-0.443L0.424,-0.475C0.424,-0.475 0.643,-0.326 0.736,-0.214C0.829,-0.102 0.8,-0.081 0.795,-0.032C0.792,-0.003 0.784,-0.012 0.772,-0.017C0.764,-0.02 0.754,-0.021 0.743,-0.005C0.717,0.033 0.803,0.08 0.783,0.118C0.762,0.155 0.786,0.229 0.745,0.298C0.703,0.368 0.649,0.422 0.581,0.435C0.513,0.447 0.475,0.463 0.412,0.437C0.35,0.411 0.344,0.447 0.311,0.438C0.278,0.429 0.276,0.379 0.253,0.357C0.23,0.334 0.224,0.346 0.175,0.306C0.125,0.266 0.047,0.141 0.103,0.05C0.12,0.021 0.134,0.003 0.144,-0.01C0.166,-0.039 0.171,-0.046 0.163,-0.09C0.156,-0.127 0.157,-0.147 0.173,-0.168C0.185,-0.184 0.204,-0.199 0.233,-0.222Z" style="fill:url(#_Linear1);fill-rule:nonzero;"/>
        </g>
        <g transform="matrix(-4311.17,0.000373369,0.000388846,4139.57,2801.43,535.544)">
            <path d="M0.516,-0.004C0.512,-0.002 0.509,-0.002 0.504,-0.002C0.502,-0.002 0.5,-0.002 0.498,-0.002C0.491,-0.002 0.483,0.002 0.483,0.002C0.483,0.002 0.477,0.008 0.473,0.009C0.473,0.009 0.472,0.009 0.471,0.009C0.471,0.008 0.471,0.006 0.471,0.005C0.472,0.006 0.473,0.006 0.473,0.006C0.476,0.005 0.482,0.001 0.484,0C0.487,-0.001 0.491,-0.002 0.491,-0.002C0.491,-0.002 0.487,-0.003 0.482,-0.002C0.479,-0.002 0.475,-0.002 0.473,-0.002C0.473,-0.003 0.474,-0.004 0.474,-0.005C0.477,-0.005 0.488,-0.004 0.49,-0.004C0.493,-0.003 0.503,-0.004 0.508,-0.004C0.512,-0.004 0.529,-0.009 0.529,-0.009C0.529,-0.009 0.522,-0.006 0.516,-0.004Z" style="fill:url(#_Linear2);fill-rule:nonzero;"/>
        </g>
        <g transform="matrix(-273.444,0,0,262.56,757.029,487.204)">
            <path d="M0.459,-0.036C0.503,-0.038 0.551,-0.029 0.598,-0.02C0.66,-0.009 0.721,0.003 0.779,-0.009C0.881,-0.031 0.951,-0.031 0.951,-0.031C0.951,-0.031 0.866,0.043 0.682,0.048C0.497,0.053 0.345,0.032 0.283,0.031C0.221,0.029 0.208,0.038 0.127,0.039C0.093,0.04 0.067,0.039 0.049,0.038C0.088,-0.01 0.14,-0.045 0.204,-0.052C0.243,-0.056 0.273,-0.057 0.296,-0.057C0.343,-0.038 0.368,-0.032 0.459,-0.036Z" style="fill:url(#_Linear3);fill-rule:nonzero;"/>
        </g>
        <g transform="matrix(-71.4651,0,0,68.6206,742.292,664.478)">
            <path d="M0.968,-0.599C0.967,-0.598 0.795,-0.32 0.802,-0.166C0.811,0.029 0.869,0.082 0.687,0.1C0.687,0.1 0.79,-0.008 0.782,-0.165C0.777,-0.283 0.871,-0.468 0.921,-0.557C0.858,-0.501 0.744,-0.39 0.655,-0.261C0.551,-0.11 0.219,0.526 0.155,0.64C0.155,0.645 0.11,0.614 0.069,0.573C0.035,0.539 0.005,0.494 -0,0.486C0.142,0.476 0.419,0.08 0.507,-0.065C0.555,-0.144 0.602,-0.219 0.639,-0.273C0.768,-0.46 0.953,-0.611 0.953,-0.612L1,-0.65L0.968,-0.599Z" style="fill:url(#_Linear4);fill-rule:nonzero;"/>
        </g>
        <g transform="matrix(-7591.66,127.237,132.512,7289.5,4351.86,475.601)">
            <path d="M0.515,-0.011C0.509,-0.008 0.504,-0.004 0.499,-0C0.495,0.003 0.49,0.008 0.486,0.011L0.485,0.011C0.49,0.007 0.494,0.003 0.499,-0C0.504,-0.004 0.509,-0.008 0.514,-0.011L0.515,-0.011Z" style="fill:url(#_Linear5);fill-rule:nonzero;"/>
        </g>
        <g transform="matrix(-3129.55,-52.4516,-54.6259,3004.98,2284.92,612.277)">
            <path d="M0.505,0C0.496,0.005 0.494,0.005 0.485,0.002C0.485,0.002 0.485,0.002 0.485,0.002C0.487,0.002 0.499,0.002 0.504,-0L0.515,-0.006L0.505,0Z" style="fill:url(#_Linear6);fill-rule:nonzero;"/>
        </g>
        <g transform="matrix(-99.605,0,0,95.6405,646.754,653.428)">
            <path d="M1.19,-1.122C1.035,-0.839 0.504,0.466 0.811,0.755L0.575,0.908C0.582,0.261 0.872,-0.487 1.154,-1.086C1.082,-1.011 0.912,-0.825 0.839,-0.66C0.736,-0.424 0.544,-0.237 0.422,-0.01L0.421,-0.01L0.421,-0.01C0.297,0.222 0.228,0.97 0.228,0.971C-0.256,1.073 0.18,0.545 0.186,0.533C0.269,0.388 0.328,0.133 0.409,-0.017L0.409,-0.017L0.409,-0.017L0.409,-0.017C0.531,-0.243 0.723,-0.43 0.827,-0.666C0.921,-0.881 1.178,-1.13 1.178,-1.131L1.211,-1.162L1.19,-1.122Z" style="fill:url(#_Linear7);fill-rule:nonzero;"/>
        </g>
        <g transform="matrix(-64.2904,-55.5832,-57.8872,61.7314,492.468,502.17)">
            <path d="M0.922,-0.035L0.922,-0.034L0.921,-0.034C0.904,-0.014 0.635,0.306 0.363,0.602L0.363,0.602C0.282,0.569 0.289,0.49 0.267,0.435C0.244,0.38 0.091,0.227 0.038,0.215C-0.015,0.202 -0.072,0.194 -0.072,0.194C-0.072,0.194 0.025,0.182 -0.011,0.078C-0.046,-0.025 -0.081,-0.263 -0.02,-0.322C0.09,-0.431 0.164,-0.529 0.22,-0.602C0.495,-0.371 0.772,-0.181 0.772,-0.181L0.922,-0.035Z" style="fill:url(#_Linear8);fill-rule:nonzero;"/>
        </g>
        <g transform="matrix(282.57,-227.667,-237.104,-271.323,265.558,381.31)">
            <path d="M1.01,0.325C0.991,0.34 0.981,0.362 0.973,0.384C0.965,0.405 0.959,0.424 0.949,0.431C0.943,0.436 0.933,0.447 0.92,0.461C0.891,0.492 0.848,0.535 0.798,0.538C0.727,0.543 0.676,0.54 0.657,0.543C0.637,0.547 0.655,0.519 0.616,0.499C0.577,0.48 0.541,0.436 0.514,0.416C0.488,0.396 0.396,0.337 0.339,0.281C0.282,0.224 0.247,0.137 0.252,0.09C0.257,0.044 0.232,-0.068 0.212,-0.161C0.192,-0.255 0.237,-0.462 0.237,-0.462C0.237,-0.462 0.357,-0.524 0.419,-0.486C0.482,-0.448 0.675,-0.336 0.675,-0.336C0.665,-0.319 0.922,-0.228 0.949,-0.238C0.977,-0.248 0.959,-0.211 0.993,-0.194C1.027,-0.177 1.138,-0.153 1.139,-0.098C1.139,-0.043 1.145,-0.045 1.147,-0.011C1.149,0.023 1.195,0.085 1.166,0.109C1.138,0.133 1.17,0.253 1.12,0.301C1.117,0.303 1.115,0.305 1.113,0.307C1.067,0.345 1.046,0.298 1.01,0.325Z" style="fill:url(#_Linear9);fill-rule:nonzero;"/>
        </g>
        <g transform="matrix(-29.6412,0,0,28.4614,523.676,79.1556)">
            <path d="M0.555,-0.306C0.648,-0.134 0.734,0.031 0.792,0.155C0.994,0.591 1.071,1.087 1.071,1.088L1.091,1.214L1.032,1.101C1.032,1.099 0.711,0.488 0.423,0.337C0.059,0.145 -0.099,0.193 0.065,-0.157C0.065,-0.156 0.15,0.146 0.442,0.3C0.663,0.416 0.898,0.785 1.007,0.971C0.972,0.798 0.892,0.471 0.754,0.173C0.59,-0.18 0.202,-0.859 0.063,-1.099C0.054,-1.105 0.158,-1.153 0.277,-1.183C0.376,-1.207 0.489,-1.214 0.51,-1.215C0.375,-0.946 0.385,-0.621 0.555,-0.306Z" style="fill:url(#_Linear10);fill-rule:nonzero;"/>
        </g>
        <g transform="matrix(-199.588,0,0,191.644,578.808,232.52)">
            <path d="M0.534,-0.025C0.56,0.181 0.557,0.393 0.566,0.604L0.56,0.604C0.551,0.398 0.543,0.191 0.518,-0.011C0.494,-0.21 0.453,-0.403 0.434,-0.603L0.44,-0.604C0.458,-0.408 0.51,-0.219 0.534,-0.025Z" style="fill:url(#_Linear11);fill-rule:nonzero;"/>
        </g>
        <g transform="matrix(-698.03,6.2364e-05,6.49491e-05,670.246,822.927,226.417)">
            <path d="M0.538,-0.005C0.538,0.001 0.539,0.007 0.539,0.013C0.54,0.047 0.541,0.088 0.541,0.116C0.541,0.155 0.537,0.234 0.537,0.234C0.533,0.196 0.539,0.155 0.539,0.116C0.539,0.088 0.538,0.047 0.537,0.013C0.537,0.007 0.537,0.001 0.536,-0.005C0.533,-0.073 0.507,-0.137 0.499,-0.205C0.497,-0.221 0.51,-0.228 0.515,-0.234C0.523,-0.158 0.534,-0.082 0.538,-0.005Z" style="fill:url(#_Linear12);fill-rule:nonzero;"/>
        </g>
        <g transform="matrix(7.26886,181.252,188.765,-6.97954,435.088,4.72942)">
            <path d="M0.547,0.047L0.717,0.047L0.548,0.053C0.406,0.059 0.378,0.042 0.283,-0.047C0.283,-0.047 0.458,0.05 0.547,0.047Z" style="fill:url(#_Linear13);fill-rule:nonzero;"/>
        </g>
        <g transform="matrix(-116.04,0,0,111.421,436.102,223.986)">
            <path d="M0.497,-1.587C0.477,-1.48 0.436,-1.281 0.41,-1.076C0.375,-0.796 0.359,0.108 0.359,0.108C0.359,0.108 0.442,0.041 0.469,-0.065C0.497,-0.172 0.608,-0.527 0.643,-0.67C0.679,-0.812 0.868,-1.061 0.892,-1.128C0.901,-1.155 0.946,-1.19 0.996,-1.221C0.988,-1.193 0.951,-1.151 0.989,-1.063C0.993,-1.054 0.997,-1.045 1,-1.035C0.895,-0.903 0.712,-0.551 0.639,-0.318C0.556,-0.054 0.446,0.14 0.351,0.239C0.256,0.337 0.28,0.515 0.228,0.693C0.195,0.81 0.106,1.17 0.049,1.401C0.104,1.166 0.186,0.785 0.189,0.594C0.193,0.306 0.304,0.258 0.315,-0.235C0.325,-0.619 0.324,-1.312 0.324,-1.603C0.332,-1.603 0.34,-1.603 0.348,-1.603C0.398,-1.603 0.449,-1.599 0.497,-1.587ZM-0,1.603C-0,1.603 0.02,1.519 0.049,1.401C0.021,1.521 -0,1.603 -0,1.603Z" style="fill:url(#_Linear14);fill-rule:nonzero;"/>
        </g>
        <g transform="matrix(-112.871,0,0,108.378,607.528,170.124)">
            <path d="M0.274,-0.582C0.339,-0.47 0.485,-0.331 0.553,-0.219L0.553,-0.219L0.553,-0.218L0.553,-0.218C0.655,-0.049 0.704,0.152 0.82,0.313C0.926,0.46 0.991,0.728 0.992,0.729L1,0.763L0.982,0.733C0.854,0.519 0.313,-0.322 0,-0.231L0.076,-0.339C0.503,-0.081 0.684,0.273 0.972,0.696C0.95,0.618 0.893,0.432 0.811,0.319C0.695,0.158 0.646,-0.043 0.543,-0.213L0.543,-0.213L0.543,-0.213L0.543,-0.213C0.438,-0.387 0.178,-0.524 0.178,-0.524L0.212,-0.627L0.251,-0.713L0.297,-0.763C0.297,-0.763 0.238,-0.645 0.274,-0.582Z" style="fill:url(#_Linear15);fill-rule:nonzero;"/>
        </g>
        <g transform="matrix(-13209.7,0.0011197,0.00116611,12684,7144.44,296.145)">
            <path d="M0.5,-0.006C0.501,-0.005 0.502,-0.003 0.502,-0.001C0.503,-0.001 0.503,-0.001 0.503,-0C0.504,0.001 0.505,0.009 0.505,0.009L0.504,0.006C0.504,0.006 0.503,0.001 0.503,-0C0.503,-0.001 0.502,-0.001 0.502,-0.001C0.502,-0.002 0.501,-0.003 0.5,-0.006C0.498,-0.008 0.497,-0.008 0.495,-0.009L0.495,-0.009C0.497,-0.008 0.499,-0.008 0.5,-0.006Z" style="fill:url(#_Linear16);fill-rule:nonzero;"/>
        </g>
        <g transform="matrix(-5.85455,80.3919,83.7243,5.62152,456.607,373.857)">
            <path d="M0.006,-0.096C0.018,-0.276 0.095,-0.511 0.189,-0.521C0.478,-0.551 0.461,-0.405 0.516,-0.724C0.767,-0.433 0.986,-0.104 0.986,-0.104C0.986,-0.104 0.82,0.464 0.508,0.547C0.144,0.642 0.24,0.229 -0.057,0.097C-0.057,0.097 -0.007,0.084 0.006,-0.096Z" style="fill:url(#_Linear17);fill-rule:nonzero;"/>
        </g>
        <g transform="matrix(-172.529,311.564,324.479,165.662,396.002,477)">
            <path d="M-0.086,-0.005C-0.072,-0.028 0.028,-0.131 0.052,-0.176C0.076,-0.221 0.175,-0.315 0.21,-0.333C0.246,-0.351 0.257,-0.334 0.274,-0.36C0.291,-0.386 0.36,-0.449 0.39,-0.456C0.421,-0.464 0.498,-0.459 0.572,-0.464C0.647,-0.469 0.726,-0.409 0.821,-0.331C0.916,-0.252 0.914,-0.155 0.925,-0.103C0.937,-0.05 0.913,0.004 0.903,0.022C0.893,0.041 0.922,0.041 0.876,0.128C0.83,0.215 0.824,0.188 0.824,0.188C0.824,0.188 0.814,0.229 0.759,0.262C0.705,0.296 0.72,0.231 0.673,0.249C0.652,0.257 0.643,0.279 0.634,0.302C0.623,0.329 0.611,0.357 0.577,0.369C0.514,0.39 0.477,0.375 0.477,0.375C0.477,0.375 0.479,0.38 0.446,0.419C0.413,0.458 0.305,0.442 0.215,0.402C0.124,0.363 0.039,0.228 -0.015,0.157C-0.069,0.086 -0.079,0.089 -0.079,0.089L-0.097,0.07C-0.097,0.07 -0.099,0.021 -0.087,-0.003C-0.086,-0.004 -0.086,-0.004 -0.086,-0.005Z" style="fill:url(#_Linear18);fill-rule:nonzero;"/>
        </g>
        <g transform="matrix(-2006.26,7189.45,7487.47,1926.41,1780.11,-4574.41)">
            <path d="M0.725,-0.001C0.73,-0.003 0.736,-0.005 0.74,-0.006L0.744,-0.007C0.744,-0.007 0.744,-0.007 0.744,-0.007C0.743,-0.006 0.742,-0.006 0.741,-0.005C0.739,-0.004 0.734,-0.003 0.732,-0.003C0.729,-0.002 0.724,0 0.724,0C0.724,0 0.732,0.002 0.734,0.002C0.737,0.002 0.74,0.001 0.74,0.002C0.741,0.002 0.743,0.002 0.743,0.002C0.743,0.002 0.743,0.002 0.743,0.003C0.743,0.003 0.741,0.002 0.739,0.002C0.737,0.003 0.735,0.003 0.735,0.003C0.735,0.003 0.737,0.004 0.738,0.005C0.739,0.005 0.74,0.006 0.74,0.006C0.74,0.007 0.74,0.007 0.74,0.007C0.74,0.007 0.739,0.006 0.739,0.006C0.738,0.005 0.734,0.003 0.734,0.003L0.723,0.001C0.723,0.001 0.715,0.004 0.712,0.003C0.712,0.003 0.72,0.002 0.725,-0.001Z" style="fill:url(#_Linear19);fill-rule:nonzero;"/>
        </g>
        <g transform="matrix(-14057.7,0.00118165,0.00123064,13498.1,7279.92,586.732)">
            <path d="M0.498,-0C0.501,0.001 0.505,0.003 0.508,0.004L0.508,0.004C0.506,0.004 0.504,0.003 0.502,0.002C0.504,0.003 0.506,0.004 0.508,0.005L0.508,0.006C0.504,0.005 0.501,0.001 0.498,-0C0.496,-0.001 0.492,-0.006 0.492,-0.006L0.492,-0.006C0.492,-0.006 0.496,-0.001 0.498,-0Z" style="fill:url(#_Linear20);fill-rule:nonzero;"/>
        </g>
        <g transform="matrix(-3592.32,0.000311005,0.000323896,3449.33,2052.38,538.739)">
            <path d="M0.488,-0.006L0.488,-0.006C0.502,-0.003 0.515,0.001 0.528,0.007L0.531,0.013C0.526,0.01 0.52,0.006 0.514,0.003C0.505,-0.001 0.497,-0.004 0.488,-0.006L0.488,-0.006C0.479,-0.008 0.47,-0.012 0.47,-0.013C0.476,-0.012 0.482,-0.008 0.488,-0.006Z" style="fill:url(#_Linear21);fill-rule:nonzero;"/>
        </g>
        <g transform="matrix(-83.9038,0,0,80.5642,258.851,709.294)">
            <path d="M0.02,-0.526C0.021,-0.526 0.158,-0.4 0.339,-0.071C0.456,0.143 0.832,0.16 1,0.214L0.875,0.323C0.704,0.267 0.443,0.15 0.326,-0.064C0.188,-0.314 0.076,-0.446 0.032,-0.494C0.178,-0.035 0.375,0.109 0.693,0.461C0.689,0.464 0.583,0.542 0.579,0.544C0.3,0.235 0.128,-0.124 0.008,-0.518L-0,-0.544L0.02,-0.526Z" style="fill:url(#_Linear22);fill-rule:nonzero;"/>
        </g>
        <g transform="matrix(64.354,-91.6111,-95.4086,-61.7925,371.09,530.124)">
            <path d="M0.79,0.133C0.757,0.178 0.604,0.311 0.473,0.437C0.443,0.419 0.417,0.4 0.405,0.383C0.373,0.333 0.48,0.15 0.418,0.05C0.356,-0.049 0.238,-0.095 0.238,-0.095C0.238,-0.095 0.346,-0.108 0.418,-0.214C0.448,-0.257 0.467,-0.294 0.48,-0.324C0.502,-0.374 0.511,-0.403 0.537,-0.409C0.606,-0.424 0.71,-0.304 0.851,-0.1C0.851,-0.1 0.842,0.055 0.793,0.128C0.792,0.13 0.791,0.131 0.79,0.133Z" style="fill:url(#_Linear23);fill-rule:nonzero;"/>
        </g>
        <g transform="matrix(-101.974,-101.394,-105.597,97.9149,713.842,423.951)">
            <path d="M1.142,-0.902C1.246,-0.785 1.356,-0.535 1.415,-0.349C1.474,-0.162 1.579,-0.098 1.579,0.119C1.58,0.335 1.248,0.838 1.124,1.097C1,1.356 1.175,1.483 1.175,1.483C1.175,1.483 1.026,1.459 0.927,1.374C0.827,1.288 0.291,0.919 0.144,0.766C-0.004,0.613 -0.325,0.28 -0.315,0.209C-0.309,0.163 -0.372,0.11 -0.435,0.058C-0.468,0.03 -0.501,0.002 -0.524,-0.024C-0.589,-0.1 -0.501,-0.289 -0.517,-0.378C-0.534,-0.467 -0.378,-0.513 -0.402,-0.655C-0.426,-0.796 -0.31,-0.856 -0.184,-0.987C-0.058,-1.117 0.03,-1.063 0.03,-1.063C0.03,-1.063 0.17,-1.224 0.291,-1.324C0.412,-1.423 0.459,-1.312 0.613,-1.26C0.759,-1.211 1.013,-1.036 1.126,-0.918C1.132,-0.913 1.137,-0.907 1.142,-0.902Z" style="fill:url(#_Linear24);fill-rule:nonzero;"/>
        </g>
        <g transform="matrix(-4711.21,2826.72,2943.89,4523.69,4144.39,-1644.58)">
            <path d="M0.723,0.002C0.728,-0.001 0.737,-0.006 0.74,-0.007C0.741,-0.008 0.743,-0.009 0.745,-0.009C0.743,-0.008 0.738,-0.007 0.736,-0.005C0.733,-0.003 0.723,0.004 0.72,0.006C0.718,0.007 0.715,0.008 0.713,0.01C0.713,0.009 0.712,0.009 0.712,0.009C0.715,0.007 0.72,0.004 0.723,0.002ZM0.746,-0.01C0.746,-0.01 0.745,-0.01 0.745,-0.009C0.745,-0.01 0.746,-0.01 0.746,-0.01Z" style="fill:url(#_Linear25);fill-rule:nonzero;"/>
        </g>
        <g transform="matrix(-337.438,271.874,283.144,324.007,813.834,311.011)">
            <path d="M0.258,0.025C0.333,-0.021 0.453,-0.096 0.494,-0.114C0.536,-0.133 0.731,-0.194 0.763,-0.209C0.795,-0.225 0.795,-0.224 0.795,-0.224C0.795,-0.224 0.635,-0.15 0.578,-0.118C0.52,-0.086 0.41,0.023 0.366,0.104C0.34,0.154 0.281,0.198 0.24,0.226C0.228,0.223 0.216,0.221 0.208,0.222C0.204,0.222 0.2,0.222 0.197,0.22C0.236,0.187 0.288,0.142 0.314,0.118C0.358,0.077 0.416,-0.007 0.416,-0.007C0.416,-0.007 0.37,0.057 0.326,0.096C0.297,0.122 0.227,0.176 0.182,0.211C0.174,0.204 0.167,0.195 0.157,0.188C0.184,0.167 0.216,0.143 0.234,0.129C0.267,0.102 0.389,-0.003 0.42,-0.036C0.442,-0.061 0.494,-0.091 0.519,-0.105C0.528,-0.109 0.534,-0.112 0.534,-0.112C0.534,-0.112 0.528,-0.109 0.519,-0.105C0.504,-0.096 0.479,-0.083 0.46,-0.072C0.431,-0.055 0.328,0.032 0.267,0.079C0.23,0.107 0.177,0.149 0.139,0.179C0.133,0.177 0.126,0.176 0.119,0.177C0.111,0.178 0.103,0.177 0.097,0.176C0.121,0.159 0.155,0.135 0.169,0.123C0.191,0.105 0.252,0.062 0.278,0.041C0.304,0.021 0.422,-0.063 0.422,-0.063C0.422,-0.063 0.282,0.025 0.22,0.069C0.174,0.1 0.107,0.143 0.073,0.164C0.067,0.159 0.06,0.153 0.054,0.146C0.085,0.128 0.194,0.065 0.258,0.025Z" style="fill:url(#_Linear26);fill-rule:nonzero;"/>
        </g>
        <g transform="matrix(-600.914,484.157,504.226,576.996,1055.58,112.88)">
            <path d="M0.424,0.009C0.439,0.001 0.468,-0.006 0.5,-0.021C0.533,-0.037 0.532,-0.031 0.535,-0.032C0.538,-0.032 0.602,-0.044 0.602,-0.044C0.602,-0.044 0.546,-0.031 0.543,-0.029C0.54,-0.026 0.548,-0.025 0.548,-0.025L0.583,-0.034C0.583,-0.034 0.543,-0.019 0.534,-0.018C0.524,-0.017 0.501,-0.003 0.485,0.002C0.471,0.007 0.419,0.035 0.403,0.044C0.396,0.032 0.398,0.023 0.4,0.019C0.407,0.017 0.417,0.013 0.424,0.009Z" style="fill:url(#_Linear27);fill-rule:nonzero;"/>
        </g>
        <g transform="matrix(2924.78,2908.15,3028.7,-2808.37,-868.115,-1261.4)">
            <path d="M0.555,0.009C0.554,0.008 0.551,0.002 0.55,-0.001C0.549,-0.003 0.547,-0.006 0.547,-0.009C0.547,-0.011 0.544,-0.019 0.545,-0.019C0.546,-0.019 0.546,-0.018 0.546,-0.017C0.547,-0.014 0.549,-0.007 0.549,-0.007C0.549,-0.006 0.548,-0.006 0.551,-0C0.555,0.006 0.556,0.011 0.558,0.014C0.559,0.015 0.56,0.017 0.56,0.018C0.56,0.018 0.56,0.018 0.56,0.018C0.56,0.018 0.559,0.018 0.559,0.019C0.558,0.016 0.556,0.011 0.555,0.009Z" style="fill:url(#_Linear28);fill-rule:nonzero;"/>
        </g>
        <g transform="matrix(-14801.8,0.00124402,0.00129559,14212.6,8051.44,345.578)">
            <path d="M0.496,-0.003C0.497,-0.003 0.5,-0.001 0.5,-0.001L0.512,0.007C0.512,0.007 0.502,-0 0.499,-0.001C0.497,-0.003 0.493,-0.004 0.491,-0.004C0.49,-0.004 0.489,-0.004 0.488,-0.004C0.488,-0.005 0.488,-0.005 0.488,-0.005C0.489,-0.005 0.489,-0.005 0.49,-0.005C0.491,-0.004 0.495,-0.004 0.495,-0.004C0.495,-0.004 0.492,-0.005 0.491,-0.006C0.491,-0.006 0.49,-0.007 0.49,-0.007C0.49,-0.007 0.49,-0.007 0.49,-0.007C0.492,-0.006 0.495,-0.004 0.496,-0.003Z" style="fill:url(#_Linear29);fill-rule:nonzero;"/>
        </g>
        <g transform="matrix(-1293.54,241.431,251.439,1242.05,1629.78,234.137)">
            <path d="M0.672,-0.003C0.698,-0.005 0.753,-0.009 0.753,-0.009C0.753,-0.009 0.705,-0.003 0.694,-0.001C0.683,0 0.658,0.003 0.649,0.005C0.643,0.006 0.629,0.008 0.619,0.009C0.617,0.007 0.615,0.004 0.614,0.001C0.628,0.001 0.654,-0.001 0.672,-0.003Z" style="fill:url(#_Linear30);fill-rule:nonzero;"/>
        </g>
        <g transform="matrix(-11942.3,12296.8,12806.6,11467,7498.44,-6770.33)">
            <path d="M0.572,0C0.572,0 0.572,0 0.572,0C0.573,-0 0.575,-0.001 0.577,-0.001C0.579,-0.001 0.58,-0.001 0.581,-0.001C0.582,-0.001 0.584,-0.001 0.584,-0.001C0.583,-0.001 0.582,-0.001 0.581,-0.001C0.578,-0.001 0.575,-0.001 0.572,0C0.572,0 0.572,0 0.572,0C0.57,0.001 0.569,0.001 0.568,0.001L0.568,0.001C0.569,0.001 0.57,0.001 0.572,0Z" style="fill:url(#_Linear31);fill-rule:nonzero;"/>
        </g>
        <g transform="matrix(-1744.66,0.00012432,0.000129474,1675.22,1461.71,293.431)">
            <path d="M0.47,-0.037C0.473,-0.031 0.478,-0.024 0.486,-0.018C0.502,-0.006 0.529,0.017 0.531,0.037C0.531,0.037 0.506,-0.002 0.486,-0.017C0.478,-0.024 0.472,-0.031 0.469,-0.037L0.47,-0.037Z" style="fill:url(#_Linear32);fill-rule:nonzero;"/>
        </g>
        <g transform="matrix(-9968.11,0.000808694,0.000842216,9571.35,5209.29,313.424)">
            <path d="M0.461,0.001C0.468,0.007 0.468,0.007 0.461,0.001C0.459,-0.001 0.457,-0.002 0.455,-0.003C0.452,-0.004 0.449,-0.006 0.447,-0.009L0.447,-0.009C0.451,-0.004 0.457,-0.003 0.461,0.001Z" style="fill:url(#_Linear33);fill-rule:nonzero;"/>
        </g>
        <g transform="matrix(2514.14,7155.64,7452.25,-2414.07,-565.495,-3221.49)">
            <path d="M0.498,-0.004C0.499,-0.009 0.5,-0.014 0.502,-0.018C0.499,-0.005 0.497,0.004 0.498,0.018L0.498,0.018C0.497,0.01 0.497,0.003 0.498,-0.004Z" style="fill:url(#_Linear34);fill-rule:nonzero;"/>
        </g>
        <g transform="matrix(-81.9357,31.7866,33.1042,78.6745,512.035,432.889)">
            <path d="M0.232,-0.291C0.465,-0.036 0.689,-0.066 0.795,-0.101C0.81,-0.1 0.824,-0.099 0.837,-0.098C0.794,-0.035 0.683,0.108 0.535,0.185C0.413,0.249 0.377,0.277 0.244,0.359C0.211,0.347 0.175,0.332 0.137,0.315C0.02,0.263 -0.087,0.233 -0.144,0.219C-0.094,0.224 -0.02,0.204 -0.039,0.045C-0.052,-0.061 -0.071,-0.229 0.016,-0.291C0.03,-0.301 0.051,-0.315 0.075,-0.325C0.122,-0.343 0.18,-0.348 0.232,-0.291ZM-0.144,0.219C-0.167,0.217 -0.185,0.21 -0.185,0.21C-0.185,0.21 -0.17,0.213 -0.144,0.219Z" style="fill:url(#_Linear35);fill-rule:nonzero;"/>
        </g>
        <g transform="matrix(62.1536,-307.026,-319.753,-59.6798,185.768,590.754)">
            <path d="M1.17,0.219C1.145,0.259 1.121,0.337 1.104,0.367C1.087,0.396 1.056,0.432 1.056,0.432C1.056,0.432 1.068,0.473 0.993,0.526C0.918,0.578 0.882,0.579 0.837,0.591C0.792,0.604 0.779,0.607 0.771,0.604C0.763,0.601 0.769,0.638 0.743,0.655C0.717,0.671 0.706,0.683 0.679,0.661C0.652,0.638 0.636,0.628 0.611,0.631C0.587,0.633 0.524,0.624 0.503,0.621C0.482,0.618 0.457,0.638 0.438,0.621C0.42,0.605 0.424,0.563 0.408,0.555C0.393,0.548 0.312,0.526 0.292,0.46C0.272,0.393 0.264,0.44 0.246,0.365C0.228,0.289 0.226,0.219 0.244,0.133C0.248,0.114 0.252,0.094 0.256,0.074C0.268,0.007 0.28,-0.055 0.298,-0.074C0.322,-0.098 0.34,-0.089 0.346,-0.119C0.352,-0.149 0.34,-0.253 0.356,-0.335C0.372,-0.416 0.411,-0.455 0.446,-0.474C0.482,-0.492 0.487,-0.474 0.515,-0.525C0.543,-0.575 0.56,-0.58 0.564,-0.631C0.569,-0.682 0.561,-0.693 0.561,-0.693L0.636,-0.671C0.636,-0.671 0.716,-0.653 0.771,-0.542C0.827,-0.43 0.928,-0.345 0.995,-0.257C1.061,-0.17 1.022,-0.163 1.072,-0.107C1.121,-0.052 1.185,-0.028 1.185,-0.028C1.185,-0.028 1.181,0.003 1.181,0.072C1.182,0.122 1.189,0.156 1.183,0.186C1.181,0.197 1.177,0.208 1.17,0.219Z" style="fill:url(#_Linear36);fill-rule:nonzero;"/>
        </g>
        <g transform="matrix(-3068.7,2472.46,2574.95,2946.56,1604.32,-713.137)">
            <path d="M0.494,-0.018C0.492,-0.016 0.486,-0.011 0.484,-0.009C0.481,-0.006 0.466,0.006 0.461,0.009C0.458,0.011 0.453,0.017 0.451,0.019C0.453,0.018 0.455,0.015 0.456,0.013C0.459,0.01 0.471,0 0.477,-0.006C0.481,-0.009 0.489,-0.017 0.493,-0.021C0.494,-0.02 0.494,-0.019 0.494,-0.018ZM0.45,0.021C0.45,0.021 0.451,0.02 0.451,0.019C0.451,0.02 0.45,0.021 0.45,0.021Z" style="fill:url(#_Linear37);fill-rule:nonzero;"/>
        </g>
        <g transform="matrix(-2377.3,1915.39,1994.79,2282.68,1102.44,-416.844)">
            <path d="M0.435,-0.023C0.432,-0.019 0.421,-0.005 0.419,-0.001C0.417,0.003 0.412,0.008 0.411,0.011C0.411,0.013 0.405,0.023 0.405,0.023L0.409,0.014C0.409,0.014 0.409,0.012 0.408,0.013C0.407,0.013 0.402,0.028 0.402,0.028C0.406,0.016 0.408,0.01 0.415,-0C0.421,-0.008 0.423,-0.014 0.425,-0.017C0.427,-0.019 0.431,-0.025 0.432,-0.027C0.433,-0.028 0.432,-0.025 0.435,-0.023Z" style="fill:url(#_Linear38);fill-rule:nonzero;"/>
        </g>
        <g transform="matrix(-1700.83,-0.00012432,-0.000129474,1633.13,866.932,370.417)">
            <path d="M0.484,-0.014C0.484,-0.014 0.497,-0.014 0.497,-0.014C0.494,-0.012 0.479,-0.011 0.473,-0.009C0.467,-0.008 0.452,-0.001 0.435,0.004C0.418,0.008 0.42,0.01 0.419,0.011C0.418,0.012 0.4,0.022 0.393,0.026C0.392,0.027 0.39,0.027 0.389,0.026C0.387,0.025 0.408,0.015 0.412,0.011C0.416,0.007 0.425,0.004 0.431,0.002C0.438,-0.001 0.456,-0.006 0.46,-0.007C0.462,-0.008 0.475,-0.013 0.485,-0.018C0.49,-0.021 0.495,-0.026 0.497,-0.028C0.497,-0.025 0.484,-0.014 0.484,-0.014Z" style="fill:url(#_Linear39);fill-rule:nonzero;"/>
        </g>
        <g transform="matrix(-476.684,-6.2364e-05,-6.49491e-05,457.711,353.015,435.439)">
            <path d="M0.67,-0.007C0.641,-0.004 0.602,0.001 0.579,0.001C0.556,0.001 0.479,0.007 0.447,0.008C0.415,0.01 0.275,0.021 0.275,0.021C0.275,0.021 0.434,-0.001 0.508,-0.008C0.561,-0.014 0.651,-0.016 0.69,-0.021C0.678,-0.015 0.675,-0.014 0.67,-0.007Z" style="fill:url(#_Linear40);fill-rule:nonzero;"/>
        </g>
        <g transform="matrix(-7511.21,-0.000622009,-0.000647793,7212.25,3801.6,339.702)">
            <path d="M0.479,-0.007L0.479,-0.007C0.472,-0.003 0.467,0.003 0.462,0.009C0.46,0.01 0.458,0.013 0.457,0.015C0.457,0.015 0.46,0.011 0.462,0.008C0.464,0.006 0.466,0.004 0.468,0.001C0.471,-0.002 0.476,-0.005 0.479,-0.007L0.479,-0.007L0.479,-0.007C0.483,-0.009 0.486,-0.012 0.489,-0.015C0.487,-0.013 0.483,-0.009 0.479,-0.007Z" style="fill:url(#_Linear41);fill-rule:nonzero;"/>
        </g>
        <g transform="matrix(-1833.02,-0.00012432,-0.000129474,1760.07,1205.98,321.703)">
            <path d="M0.514,-0.018C0.494,-0.002 0.469,0.039 0.469,0.039C0.471,0.017 0.498,-0.007 0.514,-0.019C0.522,-0.025 0.527,-0.032 0.53,-0.039L0.531,-0.039C0.528,-0.032 0.522,-0.025 0.514,-0.018Z" style="fill:url(#_Linear42);fill-rule:nonzero;"/>
        </g>
        <g transform="matrix(-7763.25,-0.000622009,-0.000647793,7454.26,4250.33,339.293)">
            <path d="M0.522,-0.004C0.519,-0.002 0.516,-0.001 0.513,0.002C0.505,0.011 0.504,0.011 0.513,0.002C0.519,-0.004 0.527,-0.006 0.533,-0.013L0.534,-0.013C0.53,-0.009 0.526,-0.006 0.522,-0.004Z" style="fill:url(#_Linear43);fill-rule:nonzero;"/>
        </g>
        <g transform="matrix(-2030.62,5717.64,5954.65,1949.8,1150.54,-2355.95)">
            <path d="M0.478,-0.002C0.478,0.007 0.481,0.018 0.483,0.025C0.48,0.02 0.479,0.012 0.478,0.006C0.476,-0.003 0.476,-0.014 0.477,-0.025C0.479,-0.02 0.477,-0.012 0.478,-0.002Z" style="fill:url(#_Linear44);fill-rule:nonzero;"/>
        </g>
        <g transform="matrix(137.703,42.9616,44.7424,-132.222,314.512,402.231)">
            <path d="M0.335,0.095L0.414,0.037C0.414,0.037 0.378,-0.046 0.444,-0.159C0.511,-0.272 0.556,-0.216 0.604,-0.271C0.708,-0.193 0.716,-0.154 0.828,-0.131C0.94,-0.108 0.968,-0.122 0.968,-0.122L0.898,0.039L0.898,0.04C0.898,0.041 0.891,0.055 0.88,0.076C0.77,0.257 0.616,0.242 0.556,0.239C0.543,0.239 0.532,0.237 0.522,0.234C0.462,0.214 0.457,0.149 0.335,0.095Z" style="fill:url(#_Linear45);fill-rule:nonzero;"/>
        </g>
        <g transform="matrix(-357.616,490.4,510.728,343.382,474.948,409.164)">
            <path d="M0.089,-0.02L0.094,-0.017C0.094,-0.017 0.094,-0.016 0.094,-0.016L0.089,-0.02C0.089,-0.02 0.089,-0.02 0.089,-0.02C0.089,-0.02 0.089,-0.02 0.089,-0.02ZM0.09,-0.021L0.095,-0.018C0.095,-0.017 0.094,-0.017 0.094,-0.017L0.089,-0.02C0.089,-0.02 0.09,-0.021 0.09,-0.021ZM0.094,-0.016C0.094,-0.016 0.093,-0.016 0.093,-0.016L0.093,-0.014L0.092,-0.014L0.092,-0.016C0.09,-0.016 0.09,-0.016 0.089,-0.017C0.089,-0.018 0.089,-0.019 0.089,-0.02L0.094,-0.016ZM0.09,-0.021C0.09,-0.021 0.09,-0.021 0.091,-0.021L0.094,-0.018C0.094,-0.018 0.095,-0.018 0.095,-0.018L0.09,-0.021L0.09,-0.021ZM0.094,-0.018L0.091,-0.021C0.092,-0.021 0.094,-0.02 0.094,-0.018ZM0.098,-0.028L0.103,-0.025C0.103,-0.023 0.103,-0.022 0.103,-0.021L0.096,-0.027C0.096,-0.027 0.096,-0.027 0.096,-0.027C0.096,-0.027 0.097,-0.028 0.098,-0.028ZM0.103,-0.021C0.103,-0.021 0.103,-0.021 0.103,-0.02L0.103,-0.02C0.105,-0.021 0.107,-0.018 0.107,-0.016C0.11,-0.017 0.115,-0.013 0.111,-0.011L0.111,-0.01L0.111,-0.01L0.11,-0.011C0.11,-0.011 0.11,-0.011 0.11,-0.011L0.106,-0.014C0.106,-0.014 0.106,-0.014 0.106,-0.014C0.106,-0.014 0.105,-0.014 0.105,-0.014L0.101,-0.017C0.101,-0.018 0.101,-0.019 0.101,-0.019C0.101,-0.019 0.1,-0.019 0.099,-0.019L0.098,-0.019L0.098,-0.019L0.098,-0.02C0.095,-0.021 0.095,-0.022 0.095,-0.023C0.095,-0.024 0.095,-0.026 0.096,-0.027L0.103,-0.021ZM0.099,-0.028C0.1,-0.028 0.102,-0.026 0.103,-0.025L0.098,-0.028C0.098,-0.028 0.098,-0.028 0.099,-0.028ZM0.087,-0.008L0.103,0.003C0.094,0.002 0.087,0.002 0.087,0.002C0.087,0.002 0.084,-0.004 0.086,-0.007C0.086,-0.008 0.087,-0.008 0.087,-0.008ZM0.088,-0.009L0.106,0.003L0.106,0.005L0.105,0.004L0.105,0.003L0.103,0.003L0.087,-0.008C0.087,-0.009 0.088,-0.009 0.088,-0.009ZM0.088,-0.009L0.106,0.003L0.106,0.003L0.088,-0.009L0.088,-0.009ZM0.089,-0.01L0.108,0.003L0.106,0.003L0.106,0.003L0.088,-0.009C0.089,-0.009 0.089,-0.009 0.089,-0.01ZM0.093,-0.014L0.093,-0.01C0.094,-0.011 0.094,-0.011 0.095,-0.011L0.095,-0.012L0.096,-0.011L0.096,-0.011C0.096,-0.011 0.096,-0.011 0.097,-0.011L0.118,0.004L0.114,0.004L0.113,0.007L0.112,0.006L0.114,0.004L0.108,0.003L0.089,-0.01C0.09,-0.01 0.091,-0.01 0.092,-0.01L0.092,-0.014L0.093,-0.014ZM0.098,-0.019L0.098,-0.016C0.099,-0.017 0.1,-0.017 0.101,-0.017L0.101,-0.017L0.105,-0.014C0.105,-0.014 0.105,-0.014 0.105,-0.014L0.105,-0.011L0.104,-0.012L0.104,-0.014C0.103,-0.014 0.103,-0.014 0.103,-0.014C0.103,-0.014 0.103,-0.013 0.103,-0.012L0.097,-0.017L0.098,-0.019L0.098,-0.019ZM0.103,-0.012C0.103,-0.012 0.103,-0.012 0.103,-0.012L0.097,-0.016L0.097,-0.017L0.103,-0.012ZM0.103,-0.012C0.103,-0.011 0.103,-0.011 0.103,-0.011L0.096,-0.015L0.097,-0.016L0.103,-0.012ZM0.103,-0.011C0.103,-0.011 0.103,-0.01 0.103,-0.01L0.096,-0.015L0.096,-0.015L0.103,-0.011ZM0.096,-0.015L0.124,0.005L0.123,0.008L0.122,0.007L0.123,0.004L0.122,0.004L0.122,0.007L0.121,0.006L0.121,0.004L0.12,0.004L0.12,0.006L0.119,0.005L0.119,0.004L0.118,0.004L0.097,-0.011L0.097,-0.011C0.097,-0.011 0.096,-0.012 0.096,-0.012L0.096,-0.011L0.095,-0.012L0.096,-0.015ZM0.103,-0.01L0.104,-0.01L0.126,0.005L0.126,0.006L0.124,0.005L0.124,0.005L0.124,0.004C0.124,0.004 0.124,0.004 0.124,0.004L0.124,0.004L0.124,0.005L0.103,-0.01ZM0.105,-0.011L0.105,-0.01L0.104,-0.011L0.104,-0.012L0.105,-0.011ZM0.105,-0.01L0.105,-0.01L0.105,-0.01L0.126,0.004L0.126,0.004L0.126,0.005L0.104,-0.01L0.104,-0.01L0.104,-0.011L0.105,-0.01ZM0.11,-0.011C0.108,-0.011 0.108,-0.011 0.107,-0.012C0.107,-0.012 0.106,-0.013 0.106,-0.014L0.11,-0.011ZM0.094,0.003C0.095,0.003 0.095,0.003 0.095,0.003L0.095,0.003L0.095,0.003C0.095,0.003 0.095,0.003 0.095,0.003C0.095,0.003 0.095,0.003 0.095,0.003L0.097,0.009C0.097,0.008 0.098,0.008 0.098,0.007L0.096,0.004C0.096,0.004 0.096,0.004 0.097,0.004L0.099,0.007C0.099,0.007 0.099,0.007 0.099,0.007C0.104,0.005 0.105,0.009 0.104,0.012C0.104,0.012 0.104,0.011 0.105,0.011L0.105,0.004L0.106,0.005L0.106,0.011C0.106,0.012 0.106,0.012 0.107,0.012C0.107,0.011 0.107,0.01 0.108,0.009C0.109,0.009 0.109,0.008 0.111,0.009L0.111,0.009L0.112,0.009L0.112,0.009C0.116,0.011 0.11,0.015 0.108,0.014C0.108,0.016 0.106,0.018 0.104,0.018L0.102,0.016C0.101,0.016 0.101,0.015 0.101,0.014C0.101,0.015 0.1,0.015 0.098,0.013L0.099,0.014L0.097,0.013L0.095,0.004L0.095,0.004L0.094,0.011L0.093,0.01L0.094,0.003C0.094,0.003 0.094,0.003 0.094,0.003ZM0.113,-0.023L0.124,-0.016C0.124,-0.015 0.124,-0.013 0.123,-0.013L0.118,-0.016C0.118,-0.017 0.118,-0.017 0.118,-0.017C0.118,-0.017 0.118,-0.017 0.118,-0.017C0.118,-0.017 0.117,-0.017 0.117,-0.017L0.112,-0.021C0.112,-0.021 0.112,-0.022 0.112,-0.022C0.112,-0.022 0.113,-0.023 0.113,-0.023ZM0.117,-0.017C0.117,-0.017 0.116,-0.017 0.116,-0.017L0.116,-0.015L0.115,-0.016L0.115,-0.017C0.113,-0.017 0.113,-0.017 0.112,-0.019C0.112,-0.019 0.112,-0.02 0.112,-0.021L0.117,-0.017ZM0.114,-0.023C0.114,-0.023 0.115,-0.023 0.116,-0.023L0.123,-0.018L0.123,-0.017C0.123,-0.017 0.123,-0.017 0.123,-0.017L0.123,-0.017L0.124,-0.017L0.124,-0.016L0.124,-0.016L0.113,-0.023C0.113,-0.023 0.114,-0.023 0.114,-0.023ZM0.106,-0.01L0.127,0.005L0.128,0.006L0.127,0.005L0.126,0.004L0.126,0.004L0.105,-0.01L0.106,-0.01ZM0.093,0.013L0.093,0.01L0.094,0.011L0.093,0.013C0.098,0.014 0.093,0.019 0.091,0.018C0.089,0.016 0.089,0.015 0.09,0.014C0.09,0.013 0.09,0.013 0.09,0.013C0.091,0.013 0.091,0.012 0.093,0.013ZM0.111,-0.009L0.111,-0.01L0.111,-0.01L0.112,-0.009L0.112,-0.009L0.132,0.005L0.129,0.005L0.129,0.006L0.129,0.006L0.128,0.005L0.127,0.004L0.127,0.005L0.106,-0.01L0.111,-0.009ZM0.116,-0.022C0.116,-0.023 0.117,-0.023 0.117,-0.023L0.124,-0.018L0.124,-0.017L0.123,-0.017L0.123,-0.018C0.123,-0.018 0.123,-0.018 0.123,-0.018L0.116,-0.023C0.116,-0.023 0.116,-0.023 0.116,-0.022ZM0.118,-0.024C0.118,-0.024 0.119,-0.024 0.119,-0.024L0.136,-0.013C0.136,-0.012 0.136,-0.012 0.136,-0.011C0.136,-0.011 0.136,-0.011 0.136,-0.011L0.137,-0.012L0.138,-0.011L0.138,-0.008L0.137,-0.009L0.137,-0.011L0.136,-0.009L0.136,-0.009L0.127,-0.016L0.127,-0.018C0.126,-0.018 0.126,-0.018 0.124,-0.018L0.124,-0.018L0.117,-0.023C0.117,-0.023 0.117,-0.024 0.118,-0.024ZM0.121,-0.024C0.121,-0.025 0.121,-0.025 0.122,-0.026L0.129,-0.02L0.129,-0.02L0.129,-0.02L0.139,-0.013C0.139,-0.013 0.139,-0.013 0.138,-0.014L0.138,-0.011L0.137,-0.012L0.137,-0.013L0.137,-0.014C0.136,-0.014 0.136,-0.014 0.136,-0.015L0.135,-0.015C0.135,-0.014 0.136,-0.014 0.136,-0.013L0.119,-0.024C0.12,-0.024 0.12,-0.024 0.121,-0.024ZM0.126,-0.032L0.136,-0.025C0.136,-0.024 0.135,-0.024 0.135,-0.023L0.135,-0.023C0.138,-0.024 0.141,-0.021 0.142,-0.018C0.145,-0.019 0.151,-0.014 0.147,-0.011L0.133,-0.021C0.133,-0.021 0.133,-0.022 0.133,-0.022C0.133,-0.022 0.133,-0.022 0.133,-0.022L0.125,-0.027C0.125,-0.029 0.125,-0.03 0.126,-0.032C0.126,-0.032 0.126,-0.032 0.126,-0.032ZM0.126,-0.033L0.136,-0.026C0.136,-0.026 0.136,-0.026 0.136,-0.025L0.126,-0.032C0.126,-0.032 0.126,-0.032 0.126,-0.033ZM0.128,-0.033L0.135,-0.028C0.135,-0.028 0.136,-0.027 0.136,-0.026L0.126,-0.033C0.127,-0.033 0.127,-0.033 0.128,-0.033ZM0.123,-0.026L0.128,-0.022L0.129,-0.022L0.129,-0.022L0.13,-0.021L0.129,-0.02L0.122,-0.026C0.122,-0.026 0.122,-0.026 0.123,-0.026ZM0.116,-0.015L0.116,-0.013L0.115,-0.013L0.115,-0.016L0.116,-0.015ZM0.124,-0.027C0.124,-0.027 0.125,-0.027 0.125,-0.027L0.125,-0.027L0.133,-0.022C0.132,-0.021 0.131,-0.022 0.13,-0.022L0.13,-0.021L0.129,-0.022L0.129,-0.022L0.128,-0.022L0.128,-0.022L0.123,-0.026C0.123,-0.026 0.124,-0.027 0.124,-0.027ZM0.13,-0.034C0.13,-0.034 0.13,-0.034 0.131,-0.034L0.133,-0.032C0.134,-0.031 0.135,-0.03 0.135,-0.028L0.128,-0.033C0.128,-0.034 0.129,-0.034 0.13,-0.034ZM0.115,-0.009L0.115,-0.013L0.116,-0.013L0.115,-0.009L0.119,-0.009L0.119,-0.01L0.12,-0.01L0.119,-0.009L0.12,-0.009L0.12,-0.009L0.121,-0.009L0.121,-0.009L0.121,-0.009L0.121,-0.009L0.142,0.006L0.139,0.005L0.139,0.01L0.138,0.009L0.138,0.005L0.136,0.005L0.137,0.006C0.138,0.006 0.138,0.007 0.137,0.009L0.134,0.006L0.134,0.006C0.135,0.006 0.135,0.005 0.136,0.006L0.136,0.005L0.133,0.005L0.133,0.006L0.133,0.005L0.132,0.005L0.132,0.005L0.112,-0.009L0.115,-0.009ZM0.099,0.014L0.099,0.017C0.1,0.016 0.101,0.016 0.102,0.016C0.102,0.016 0.102,0.016 0.102,0.016L0.104,0.018C0.104,0.018 0.103,0.018 0.103,0.018L0.103,0.018C0.104,0.02 0.102,0.026 0.099,0.025C0.095,0.025 0.095,0.022 0.095,0.02C0.096,0.018 0.096,0.018 0.098,0.017L0.097,0.013L0.099,0.014ZM0.123,-0.013C0.123,-0.013 0.123,-0.013 0.123,-0.013L0.122,-0.011L0.121,-0.012L0.121,-0.013L0.121,-0.013L0.12,-0.012L0.12,-0.012L0.12,-0.013C0.118,-0.014 0.118,-0.014 0.118,-0.015C0.118,-0.016 0.118,-0.016 0.118,-0.016L0.123,-0.013ZM0.133,-0.032L0.131,-0.034C0.132,-0.034 0.133,-0.033 0.133,-0.032ZM0.12,-0.012L0.12,-0.01L0.119,-0.01L0.12,-0.012L0.12,-0.012ZM0.122,-0.011L0.122,-0.011L0.122,-0.008L0.124,-0.008L0.124,-0.009L0.125,-0.008L0.125,-0.008L0.126,-0.008L0.146,0.006L0.142,0.006L0.121,-0.009L0.121,-0.009L0.121,-0.009L0.12,-0.009L0.121,-0.011L0.121,-0.012L0.122,-0.011ZM0.125,-0.014C0.125,-0.014 0.125,-0.014 0.125,-0.014L0.155,0.007L0.154,0.006L0.154,0.009L0.153,0.008L0.153,0.006L0.15,0.006L0.131,-0.008L0.132,-0.008C0.132,-0.008 0.132,-0.008 0.131,-0.008C0.131,-0.008 0.131,-0.008 0.13,-0.008C0.13,-0.008 0.13,-0.008 0.13,-0.008L0.124,-0.012C0.124,-0.013 0.124,-0.013 0.125,-0.014C0.125,-0.014 0.125,-0.014 0.125,-0.014ZM0.126,-0.015L0.136,-0.008C0.136,-0.008 0.136,-0.007 0.136,-0.007L0.137,-0.007L0.137,-0.008L0.138,-0.007L0.138,-0.007L0.138,-0.007L0.158,0.007C0.157,0.007 0.156,0.007 0.155,0.007L0.125,-0.014C0.126,-0.015 0.126,-0.015 0.126,-0.015ZM0.131,-0.021L0.145,-0.011C0.145,-0.01 0.144,-0.01 0.144,-0.01L0.14,-0.013C0.14,-0.013 0.14,-0.013 0.14,-0.014C0.14,-0.013 0.139,-0.013 0.139,-0.013L0.129,-0.02C0.13,-0.021 0.13,-0.021 0.131,-0.021ZM0.136,-0.009C0.136,-0.009 0.136,-0.009 0.136,-0.008L0.126,-0.015L0.126,-0.015L0.127,-0.016L0.136,-0.009ZM0.13,-0.008C0.13,-0.008 0.129,-0.008 0.129,-0.008L0.131,-0.008L0.15,0.006L0.15,0.006L0.149,0.008L0.148,0.007L0.149,0.006L0.146,0.006L0.126,-0.008L0.127,-0.008L0.127,-0.008C0.127,-0.008 0.126,-0.008 0.126,-0.008C0.126,-0.008 0.126,-0.009 0.126,-0.009L0.125,-0.008L0.124,-0.009L0.124,-0.01C0.124,-0.011 0.124,-0.011 0.124,-0.012L0.13,-0.008ZM0.131,-0.021C0.131,-0.021 0.132,-0.02 0.133,-0.02C0.133,-0.02 0.133,-0.021 0.133,-0.021L0.147,-0.011C0.147,-0.011 0.147,-0.011 0.146,-0.011L0.147,-0.009L0.146,-0.01L0.145,-0.011L0.145,-0.011L0.131,-0.021C0.131,-0.021 0.131,-0.021 0.131,-0.021ZM0.113,0.007L0.112,0.008L0.112,0.007L0.112,0.006L0.113,0.007ZM0.112,0.008L0.112,0.008L0.112,0.008L0.112,0.007L0.112,0.008ZM0.112,0.008L0.112,0.009L0.111,0.009L0.112,0.008L0.112,0.008ZM0.116,0.004C0.117,0.004 0.117,0.004 0.117,0.004L0.117,0.009L0.116,0.009L0.116,0.004C0.116,0.004 0.116,0.004 0.116,0.004C0.116,0.004 0.116,0.004 0.116,0.004C0.116,0.004 0.116,0.004 0.116,0.004ZM0.117,0.009L0.117,0.011L0.116,0.01L0.116,0.009L0.117,0.009ZM0.12,0.006L0.122,0.011L0.122,0.011L0.122,0.01L0.121,0.006L0.122,0.007L0.122,0.007L0.122,0.007L0.123,0.008L0.123,0.009L0.124,0.011C0.125,0.012 0.125,0.013 0.124,0.014L0.125,0.015L0.12,0.012C0.12,0.012 0.121,0.012 0.121,0.011L0.119,0.005L0.12,0.006ZM0.117,0.011L0.117,0.011L0.116,0.01L0.116,0.01L0.117,0.011ZM0.117,0.011L0.116,0.012L0.116,0.012L0.116,0.01L0.117,0.011ZM0.116,0.012L0.116,0.015C0.117,0.015 0.118,0.015 0.118,0.016C0.119,0.016 0.119,0.015 0.119,0.015C0.119,0.015 0.119,0.014 0.119,0.014L0.129,0.021L0.129,0.021L0.129,0.021L0.129,0.021L0.136,0.026C0.135,0.029 0.132,0.033 0.129,0.033C0.125,0.032 0.124,0.028 0.125,0.026L0.125,0.025C0.125,0.025 0.125,0.025 0.124,0.025C0.122,0.025 0.121,0.024 0.121,0.022C0.12,0.023 0.119,0.023 0.118,0.022C0.117,0.022 0.117,0.021 0.117,0.02C0.116,0.021 0.115,0.021 0.114,0.021C0.112,0.02 0.112,0.018 0.113,0.017C0.113,0.015 0.113,0.015 0.116,0.015L0.116,0.012L0.116,0.012ZM0.124,0.016L0.124,0.016L0.119,0.013C0.119,0.013 0.119,0.013 0.119,0.012L0.124,0.016ZM0.12,0.012L0.125,0.015L0.125,0.016L0.124,0.016L0.124,0.016L0.124,0.016L0.119,0.012C0.119,0.012 0.12,0.012 0.12,0.012ZM0.124,0.016L0.124,0.016C0.124,0.016 0.124,0.016 0.124,0.016L0.124,0.016L0.13,0.02L0.13,0.021C0.13,0.021 0.131,0.021 0.131,0.021L0.136,0.024C0.136,0.025 0.136,0.025 0.136,0.026L0.129,0.021L0.129,0.021L0.129,0.021L0.119,0.014L0.119,0.014C0.119,0.013 0.119,0.013 0.119,0.013L0.124,0.016ZM0.126,0.006L0.126,0.007L0.127,0.007C0.127,0.007 0.127,0.007 0.127,0.007L0.127,0.007L0.136,0.013C0.136,0.014 0.136,0.014 0.136,0.014L0.136,0.014C0.136,0.014 0.137,0.014 0.137,0.014L0.142,0.018C0.142,0.018 0.141,0.019 0.141,0.02L0.125,0.009C0.125,0.009 0.125,0.009 0.125,0.009L0.124,0.005L0.126,0.006ZM0.128,0.006L0.129,0.007C0.129,0.007 0.129,0.007 0.129,0.007L0.129,0.007L0.137,0.012C0.137,0.012 0.136,0.013 0.136,0.013L0.128,0.007L0.128,0.007L0.127,0.005L0.128,0.006ZM0.15,-0.027C0.154,-0.028 0.158,-0.022 0.156,-0.02L0.148,-0.025C0.148,-0.025 0.148,-0.025 0.148,-0.025C0.149,-0.026 0.149,-0.027 0.15,-0.027ZM0.156,-0.02C0.156,-0.019 0.155,-0.018 0.153,-0.018L0.153,-0.018L0.148,-0.022C0.148,-0.023 0.148,-0.024 0.148,-0.025L0.156,-0.02ZM0.138,-0.008L0.138,-0.007L0.137,-0.008L0.137,-0.009L0.138,-0.008ZM0.144,-0.01C0.143,-0.01 0.142,-0.01 0.141,-0.011L0.141,-0.011L0.141,-0.011L0.141,-0.011L0.141,-0.011L0.141,-0.011L0.141,-0.011L0.141,-0.011L0.141,-0.011L0.141,-0.011L0.141,-0.011L0.141,-0.011L0.141,-0.011L0.141,-0.012L0.141,-0.012L0.141,-0.012L0.141,-0.012L0.141,-0.012L0.141,-0.012L0.141,-0.012L0.141,-0.012L0.141,-0.012L0.141,-0.012L0.14,-0.012L0.14,-0.012L0.14,-0.012L0.14,-0.012L0.14,-0.012L0.14,-0.012L0.14,-0.012L0.14,-0.012L0.14,-0.013L0.14,-0.013L0.14,-0.013L0.14,-0.013L0.14,-0.013L0.14,-0.013L0.144,-0.01ZM0.141,0.02C0.139,0.022 0.137,0.023 0.136,0.022L0.135,0.022L0.136,0.023L0.133,0.021C0.133,0.021 0.133,0.021 0.134,0.021C0.133,0.02 0.133,0.02 0.133,0.019C0.133,0.019 0.132,0.02 0.132,0.02L0.127,0.016C0.127,0.016 0.127,0.016 0.128,0.017L0.127,0.014C0.127,0.014 0.126,0.013 0.126,0.013C0.125,0.011 0.125,0.01 0.125,0.009L0.141,0.02ZM0.128,0.007L0.136,0.013C0.136,0.013 0.136,0.013 0.136,0.013L0.127,0.007C0.127,0.007 0.128,0.007 0.128,0.007ZM0.129,0.006L0.13,0.007C0.13,0.007 0.13,0.007 0.13,0.007L0.137,0.011C0.137,0.011 0.137,0.012 0.137,0.012L0.129,0.007L0.129,0.006L0.129,0.006ZM0.153,-0.018L0.153,-0.016L0.152,-0.017L0.152,-0.018C0.149,-0.019 0.149,-0.019 0.148,-0.021C0.148,-0.021 0.148,-0.021 0.148,-0.022L0.153,-0.018ZM0.14,-0.007L0.159,0.007L0.159,0.007L0.159,0.008L0.158,0.007L0.158,0.007L0.158,0.007L0.138,-0.007L0.14,-0.007ZM0.125,0.016L0.125,0.017L0.125,0.017L0.13,0.02L0.13,0.02L0.124,0.016L0.124,0.016L0.125,0.016ZM0.131,0.007C0.132,0.007 0.132,0.007 0.133,0.007C0.133,0.007 0.133,0.006 0.133,0.006L0.133,0.005L0.133,0.006L0.134,0.006L0.134,0.006L0.137,0.009L0.137,0.009L0.138,0.01L0.138,0.009L0.139,0.01L0.139,0.013L0.138,0.012L0.137,0.01C0.137,0.01 0.137,0.01 0.137,0.011C0.137,0.011 0.137,0.011 0.137,0.011L0.13,0.007C0.131,0.007 0.131,0.007 0.131,0.007ZM0.145,-0.006L0.164,0.007L0.164,0.01L0.163,0.01L0.163,0.007L0.161,0.007L0.162,0.009L0.16,0.008L0.16,0.007L0.159,0.007L0.14,-0.007L0.145,-0.006ZM0.127,0.016L0.132,0.02C0.131,0.02 0.131,0.02 0.131,0.02C0.131,0.02 0.13,0.02 0.13,0.019L0.13,0.02L0.125,0.017C0.126,0.016 0.126,0.016 0.127,0.016ZM0.147,-0.009L0.148,-0.008L0.146,-0.009L0.146,-0.01L0.147,-0.009ZM0.165,-0.032C0.166,-0.032 0.167,-0.032 0.168,-0.031C0.168,-0.031 0.168,-0.031 0.168,-0.032L0.178,-0.025C0.178,-0.024 0.178,-0.022 0.177,-0.021L0.177,-0.021L0.177,-0.021C0.178,-0.021 0.179,-0.021 0.18,-0.021C0.181,-0.021 0.181,-0.022 0.182,-0.022L0.187,-0.018C0.187,-0.017 0.188,-0.016 0.187,-0.015L0.187,-0.015C0.188,-0.015 0.188,-0.015 0.188,-0.014L0.188,-0.014C0.19,-0.014 0.191,-0.013 0.191,-0.012L0.191,-0.012L0.191,-0.011L0.191,-0.011C0.191,-0.011 0.191,-0.011 0.191,-0.011L0.191,-0.011C0.191,-0.011 0.191,-0.011 0.191,-0.01L0.191,-0.01L0.191,-0.01L0.191,-0.01L0.191,-0.01L0.191,-0.01C0.191,-0.01 0.191,-0.01 0.191,-0.01L0.191,-0.009L0.191,-0.009L0.191,-0.009L0.191,-0.009L0.191,-0.009L0.19,-0.009C0.19,-0.009 0.19,-0.009 0.19,-0.009L0.19,-0.008L0.16,-0.029C0.161,-0.029 0.161,-0.03 0.161,-0.03C0.162,-0.031 0.163,-0.032 0.165,-0.032ZM0.19,-0.008C0.19,-0.008 0.189,-0.008 0.189,-0.008L0.19,-0.005L0.189,-0.006L0.188,-0.008C0.188,-0.007 0.187,-0.007 0.187,-0.007L0.181,-0.011L0.182,-0.012C0.181,-0.012 0.181,-0.012 0.18,-0.012L0.18,-0.012L0.17,-0.019L0.17,-0.02L0.17,-0.02C0.169,-0.02 0.169,-0.02 0.169,-0.02L0.16,-0.026C0.16,-0.027 0.16,-0.028 0.16,-0.029L0.19,-0.008ZM0.148,-0.008L0.148,-0.006L0.15,-0.006L0.168,0.007L0.168,0.007L0.168,0.008C0.168,0.008 0.169,0.008 0.169,0.008L0.188,0.02C0.187,0.021 0.187,0.022 0.186,0.023L0.167,0.009C0.167,0.009 0.167,0.009 0.167,0.009L0.167,0.008L0.166,0.007L0.164,0.007L0.164,0.007L0.145,-0.006L0.147,-0.006L0.146,-0.009L0.148,-0.008ZM0.153,-0.016L0.153,-0.014L0.152,-0.015L0.152,-0.017L0.153,-0.016ZM0.169,-0.02C0.168,-0.02 0.168,-0.02 0.167,-0.02L0.16,-0.025C0.16,-0.025 0.16,-0.026 0.16,-0.026L0.169,-0.02ZM0.153,-0.014L0.153,-0.013L0.152,-0.014L0.152,-0.015L0.153,-0.014ZM0.153,-0.013L0.153,-0.007L0.152,-0.008L0.152,-0.014L0.153,-0.013ZM0.167,-0.02C0.166,-0.02 0.166,-0.02 0.165,-0.02L0.165,-0.019L0.164,-0.02L0.164,-0.02L0.163,-0.02L0.16,-0.023C0.16,-0.023 0.16,-0.024 0.16,-0.025L0.167,-0.02ZM0.159,-0.022C0.159,-0.022 0.16,-0.022 0.161,-0.022C0.161,-0.022 0.16,-0.022 0.16,-0.023L0.163,-0.02L0.164,-0.02L0.164,-0.02L0.165,-0.019L0.165,-0.019C0.166,-0.017 0.166,-0.016 0.164,-0.015C0.164,-0.015 0.164,-0.015 0.164,-0.014L0.157,-0.019C0.157,-0.02 0.157,-0.02 0.157,-0.021C0.158,-0.021 0.158,-0.022 0.159,-0.022ZM0.164,-0.014C0.164,-0.014 0.163,-0.013 0.163,-0.013L0.163,-0.013L0.163,-0.011L0.161,-0.012L0.161,-0.013C0.161,-0.013 0.161,-0.013 0.161,-0.013L0.157,-0.016C0.157,-0.016 0.157,-0.016 0.157,-0.016C0.156,-0.017 0.156,-0.018 0.157,-0.019L0.157,-0.019L0.164,-0.014ZM0.131,0.021L0.136,0.024L0.136,0.024L0.131,0.021L0.131,0.021ZM0.133,0.021L0.136,0.023C0.136,0.023 0.136,0.024 0.136,0.024L0.131,0.021C0.132,0.021 0.132,0.021 0.133,0.021ZM0.161,-0.013C0.16,-0.013 0.16,-0.013 0.16,-0.013L0.16,-0.011L0.159,-0.012L0.159,-0.013C0.157,-0.014 0.157,-0.015 0.157,-0.016L0.161,-0.013ZM0.152,-0.006L0.152,-0.006L0.17,0.007L0.168,0.007L0.15,-0.006L0.152,-0.006ZM0.139,0.013L0.139,0.013L0.139,0.013L0.145,0.017C0.145,0.017 0.145,0.017 0.144,0.017L0.138,0.013L0.138,0.013L0.138,0.012L0.139,0.013ZM0.153,-0.007L0.153,-0.006L0.156,-0.005L0.181,0.013C0.181,0.013 0.181,0.013 0.181,0.013L0.181,0.014C0.182,0.014 0.182,0.014 0.183,0.014L0.182,0.013L0.188,0.017L0.188,0.017L0.188,0.017C0.188,0.018 0.188,0.019 0.188,0.019L0.17,0.007L0.17,0.007L0.17,0.007L0.152,-0.006L0.152,-0.008L0.153,-0.007ZM0.171,-0.032C0.174,-0.033 0.177,-0.029 0.178,-0.025L0.168,-0.032C0.169,-0.032 0.17,-0.032 0.171,-0.032ZM0.137,0.013L0.143,0.017C0.143,0.017 0.142,0.017 0.142,0.017L0.142,0.018L0.137,0.014C0.137,0.014 0.137,0.014 0.137,0.013ZM0.138,0.013L0.138,0.013L0.144,0.017C0.144,0.018 0.144,0.018 0.143,0.017L0.137,0.013C0.137,0.013 0.138,0.013 0.138,0.013ZM0.141,0.013L0.141,0.013L0.141,0.013C0.141,0.012 0.141,0.012 0.141,0.012L0.141,0.011L0.142,0.011L0.148,0.016C0.147,0.017 0.146,0.017 0.145,0.017L0.139,0.013C0.14,0.013 0.14,0.013 0.141,0.013ZM0.142,0.011L0.142,0.011L0.142,0.011L0.142,0.011L0.142,0.011L0.142,0.011L0.142,0.011L0.142,0.011L0.142,0.011L0.142,0.011L0.142,0.011L0.142,0.011L0.142,0.011L0.142,0.011L0.142,0.011L0.142,0.011C0.143,0.01 0.144,0.009 0.146,0.01L0.147,0.009L0.148,0.01L0.147,0.011C0.15,0.012 0.15,0.015 0.148,0.016L0.142,0.011L0.142,0.011ZM0.16,-0.011L0.159,-0.01L0.158,-0.01L0.159,-0.012L0.16,-0.011ZM0.159,-0.01L0.159,-0.009L0.158,-0.01L0.158,-0.01L0.159,-0.01ZM0.159,-0.009L0.157,-0.005L0.159,-0.005L0.16,-0.008L0.161,-0.008L0.16,-0.005L0.162,-0.005L0.162,-0.007L0.163,-0.006L0.163,-0.005L0.164,-0.005L0.164,-0.005L0.165,-0.005L0.165,-0.005L0.165,-0.005L0.165,-0.005L0.182,0.008C0.183,0.008 0.183,0.009 0.182,0.01L0.183,0.012L0.183,0.012C0.183,0.012 0.183,0.012 0.184,0.011L0.184,0.011L0.184,0.011L0.184,0.011L0.184,0.011L0.184,0.011L0.184,0.011L0.184,0.011L0.184,0.011L0.184,0.011L0.184,0.011L0.184,0.011L0.184,0.011L0.184,0.011L0.184,0.011L0.184,0.011L0.184,0.011L0.184,0.011L0.184,0.011L0.184,0.011L0.184,0.011L0.184,0.011L0.184,0.011L0.184,0.011L0.184,0.011L0.184,0.01L0.184,0.01L0.185,0.01L0.185,0.01L0.185,0.01C0.185,0.01 0.185,0.01 0.185,0.01L0.192,0.014L0.192,0.014C0.192,0.015 0.192,0.015 0.191,0.015L0.191,0.016C0.191,0.016 0.19,0.016 0.19,0.016C0.19,0.016 0.189,0.017 0.189,0.017L0.189,0.017L0.189,0.017L0.189,0.017L0.189,0.017L0.189,0.017C0.189,0.017 0.188,0.017 0.188,0.017L0.188,0.017L0.188,0.017L0.182,0.013L0.182,0.012C0.182,0.012 0.182,0.012 0.181,0.013L0.156,-0.005L0.157,-0.005L0.158,-0.01L0.159,-0.009ZM0.163,-0.011L0.163,-0.009L0.162,-0.01L0.162,-0.011L0.162,-0.01L0.161,-0.011L0.161,-0.012L0.163,-0.011ZM0.162,-0.01L0.161,-0.008L0.16,-0.009L0.161,-0.011L0.162,-0.01ZM0.149,0.008L0.148,0.01L0.147,0.009L0.148,0.007L0.149,0.008ZM0.161,-0.008L0.161,-0.008L0.16,-0.008L0.16,-0.009L0.161,-0.008ZM0.163,-0.009L0.163,-0.007L0.162,-0.008L0.162,-0.01L0.163,-0.009ZM0.165,-0.014C0.167,-0.016 0.168,-0.017 0.169,-0.017L0.181,-0.008C0.182,-0.006 0.181,-0.005 0.18,-0.004L0.18,-0.004L0.18,-0.003L0.179,-0.004L0.179,-0.004L0.179,-0.004L0.165,-0.014C0.165,-0.014 0.165,-0.014 0.165,-0.014ZM0.179,-0.004C0.178,-0.004 0.177,-0.004 0.176,-0.005C0.176,-0.005 0.176,-0.005 0.176,-0.005L0.175,-0.004L0.179,-0.003L0.179,-0.004L0.179,-0.004L0.18,-0.003L0.18,-0.003L0.18,-0.003L0.195,0.007L0.192,0.007L0.191,0.008L0.19,0.008L0.191,0.007L0.189,0.007L0.174,-0.004L0.174,-0.004L0.175,-0.005C0.174,-0.005 0.173,-0.005 0.172,-0.005L0.165,-0.01C0.164,-0.011 0.164,-0.013 0.165,-0.014L0.179,-0.004ZM0.18,-0.012L0.18,-0.011C0.181,-0.011 0.181,-0.01 0.181,-0.01L0.181,-0.011L0.187,-0.007C0.185,-0.007 0.185,-0.007 0.184,-0.008L0.184,-0.008L0.184,-0.008L0.184,-0.008L0.184,-0.008L0.184,-0.008L0.183,-0.008L0.183,-0.008L0.183,-0.008L0.183,-0.009L0.183,-0.009L0.183,-0.009L0.183,-0.009L0.183,-0.009L0.183,-0.009L0.183,-0.009L0.183,-0.009L0.183,-0.009L0.183,-0.009L0.183,-0.009L0.183,-0.009L0.183,-0.009L0.183,-0.009L0.183,-0.009C0.183,-0.01 0.182,-0.01 0.182,-0.01L0.182,-0.009L0.172,-0.016L0.172,-0.016C0.171,-0.017 0.171,-0.017 0.171,-0.017L0.171,-0.017L0.169,-0.018L0.17,-0.019L0.18,-0.012ZM0.169,-0.017L0.169,-0.018L0.171,-0.017L0.17,-0.017C0.171,-0.017 0.171,-0.016 0.171,-0.016L0.172,-0.016L0.182,-0.009L0.181,-0.008C0.181,-0.008 0.181,-0.008 0.181,-0.008L0.169,-0.017C0.169,-0.017 0.169,-0.017 0.169,-0.017ZM0.163,-0.007L0.163,-0.006L0.162,-0.007L0.162,-0.008L0.163,-0.007ZM0.172,-0.005C0.171,-0.005 0.17,-0.006 0.17,-0.006L0.17,-0.004L0.169,-0.005L0.169,-0.005L0.169,-0.005L0.168,-0.005L0.169,-0.006C0.169,-0.006 0.168,-0.006 0.167,-0.007L0.167,-0.007L0.167,-0.006L0.166,-0.007L0.166,-0.008C0.165,-0.008 0.165,-0.009 0.165,-0.01L0.172,-0.005ZM0.154,0.009L0.154,0.011L0.153,0.011L0.153,0.008L0.154,0.009ZM0.154,0.011L0.154,0.014L0.153,0.013L0.153,0.011L0.154,0.011ZM0.165,-0.006L0.166,-0.005L0.166,-0.004L0.167,-0.004L0.183,0.007L0.182,0.007C0.182,0.007 0.182,0.007 0.182,0.008L0.165,-0.005L0.165,-0.005L0.165,-0.005L0.164,-0.005L0.165,-0.006ZM0.167,-0.006L0.166,-0.005L0.165,-0.006L0.166,-0.007L0.166,-0.007L0.167,-0.006ZM0.154,0.014L0.154,0.019C0.157,0.019 0.158,0.02 0.157,0.022L0.152,0.019C0.152,0.019 0.152,0.019 0.153,0.019L0.153,0.013L0.154,0.014ZM0.159,0.008L0.16,0.01L0.159,0.009L0.158,0.007L0.159,0.008ZM0.152,0.019L0.157,0.022C0.157,0.023 0.156,0.024 0.156,0.025L0.149,0.02C0.149,0.02 0.149,0.02 0.149,0.02C0.15,0.019 0.15,0.019 0.152,0.019ZM0.156,0.025C0.156,0.025 0.156,0.025 0.155,0.025L0.149,0.02C0.149,0.02 0.149,0.02 0.149,0.02L0.156,0.025ZM0.155,0.025C0.155,0.025 0.155,0.026 0.155,0.026L0.148,0.021L0.149,0.02L0.155,0.025ZM0.155,0.026C0.155,0.026 0.155,0.026 0.154,0.026L0.148,0.022C0.148,0.022 0.148,0.021 0.148,0.021L0.155,0.026ZM0.154,0.026C0.153,0.027 0.152,0.027 0.151,0.027L0.148,0.025C0.148,0.024 0.148,0.023 0.148,0.022L0.154,0.026ZM0.168,-0.004L0.168,-0.005L0.169,-0.005L0.168,-0.004L0.169,-0.004L0.169,-0.005L0.17,-0.004L0.17,-0.004L0.17,-0.004L0.186,0.007L0.183,0.007L0.167,-0.004L0.168,-0.004ZM0.16,0.01L0.161,0.014L0.16,0.013L0.159,0.009L0.16,0.01ZM0.162,0.009L0.162,0.01L0.161,0.009L0.16,0.008L0.162,0.009ZM0.151,0.027C0.151,0.027 0.151,0.027 0.15,0.027C0.149,0.027 0.149,0.026 0.148,0.025L0.151,0.027ZM0.183,-0.022C0.185,-0.022 0.187,-0.02 0.187,-0.018L0.182,-0.022C0.182,-0.022 0.183,-0.022 0.183,-0.022ZM0.162,0.01L0.163,0.011L0.163,0.01L0.164,0.011L0.164,0.012L0.161,0.011L0.161,0.009L0.162,0.01ZM0.174,-0.004L0.189,0.007L0.186,0.007L0.17,-0.004L0.174,-0.004ZM0.158,0.015L0.165,0.019C0.165,0.02 0.165,0.02 0.165,0.02L0.165,0.021C0.166,0.021 0.167,0.021 0.167,0.021L0.177,0.028C0.177,0.029 0.177,0.029 0.176,0.03L0.164,0.021L0.164,0.021L0.164,0.021L0.164,0.021L0.157,0.016C0.157,0.016 0.157,0.016 0.158,0.015C0.158,0.015 0.158,0.015 0.158,0.015ZM0.16,0.014L0.16,0.013L0.161,0.014L0.161,0.014L0.161,0.014L0.166,0.017C0.166,0.018 0.166,0.019 0.165,0.019L0.158,0.015C0.159,0.014 0.159,0.014 0.16,0.014ZM0.164,0.021L0.164,0.021L0.164,0.021L0.176,0.03C0.176,0.032 0.174,0.033 0.173,0.033L0.16,0.025C0.16,0.024 0.161,0.023 0.161,0.023C0.16,0.023 0.16,0.023 0.159,0.022C0.158,0.022 0.157,0.021 0.157,0.02C0.157,0.019 0.157,0.018 0.157,0.017L0.157,0.016L0.164,0.021ZM0.164,0.012L0.163,0.013L0.163,0.014C0.164,0.014 0.165,0.015 0.165,0.016C0.165,0.016 0.166,0.017 0.166,0.017L0.161,0.014C0.161,0.014 0.162,0.013 0.162,0.013L0.161,0.011L0.164,0.012ZM0.164,0.01L0.164,0.011L0.163,0.01L0.163,0.01L0.164,0.01ZM0.167,0.009L0.186,0.023C0.186,0.024 0.185,0.024 0.184,0.024L0.165,0.011C0.166,0.011 0.166,0.01 0.166,0.01C0.166,0.009 0.167,0.009 0.167,0.009ZM0.184,0.024C0.184,0.024 0.184,0.024 0.184,0.024C0.183,0.024 0.183,0.024 0.182,0.024L0.181,0.023C0.181,0.023 0.181,0.023 0.181,0.022C0.181,0.022 0.18,0.022 0.18,0.023L0.165,0.012C0.165,0.012 0.165,0.011 0.165,0.011L0.184,0.024ZM0.18,0.023C0.18,0.023 0.179,0.023 0.179,0.023L0.172,0.018C0.172,0.018 0.172,0.018 0.173,0.018C0.172,0.018 0.172,0.018 0.172,0.018C0.172,0.018 0.172,0.018 0.172,0.018L0.165,0.014C0.165,0.013 0.165,0.013 0.165,0.012L0.18,0.023ZM0.17,0.007L0.17,0.007L0.188,0.019C0.188,0.02 0.188,0.02 0.188,0.02L0.169,0.008C0.17,0.007 0.17,0.007 0.17,0.007ZM0.193,-0.025C0.197,-0.027 0.203,-0.018 0.199,-0.016L0.191,-0.022C0.191,-0.022 0.191,-0.023 0.191,-0.023C0.192,-0.024 0.192,-0.025 0.193,-0.025ZM0.172,0.018C0.171,0.018 0.171,0.018 0.171,0.018L0.171,0.019C0.171,0.018 0.172,0.018 0.172,0.018L0.179,0.023C0.178,0.023 0.178,0.023 0.178,0.023L0.178,0.023L0.177,0.023C0.178,0.024 0.178,0.024 0.178,0.025L0.17,0.02L0.17,0.018C0.169,0.018 0.167,0.017 0.166,0.015C0.166,0.015 0.166,0.014 0.165,0.014L0.172,0.018ZM0.199,-0.016C0.198,-0.016 0.197,-0.016 0.196,-0.016L0.196,-0.012L0.195,-0.013L0.195,-0.016C0.192,-0.016 0.192,-0.017 0.191,-0.019C0.191,-0.019 0.19,-0.021 0.191,-0.022L0.199,-0.016ZM0.173,0.033C0.172,0.034 0.172,0.034 0.171,0.034C0.169,0.034 0.168,0.033 0.167,0.032C0.167,0.032 0.167,0.032 0.167,0.032L0.16,0.028C0.16,0.027 0.16,0.026 0.16,0.026C0.16,0.025 0.16,0.025 0.16,0.025L0.173,0.033ZM0.19,-0.002L0.203,0.007L0.205,0.013C0.205,0.013 0.206,0.013 0.206,0.013L0.205,0.008L0.206,0.01L0.207,0.013C0.209,0.014 0.209,0.015 0.209,0.017L0.204,0.014L0.204,0.013L0.202,0.007L0.197,0.007L0.197,0.009L0.196,0.008L0.196,0.007L0.195,0.007L0.18,-0.003L0.19,-0.002ZM0.167,0.032C0.167,0.032 0.166,0.033 0.166,0.033L0.16,0.028C0.16,0.028 0.16,0.028 0.16,0.028L0.167,0.032ZM0.166,0.033C0.166,0.033 0.165,0.033 0.165,0.033L0.16,0.029C0.16,0.029 0.16,0.029 0.16,0.028L0.166,0.033ZM0.165,0.033L0.165,0.033C0.164,0.033 0.164,0.033 0.164,0.033L0.161,0.031C0.161,0.03 0.16,0.03 0.16,0.029L0.165,0.033ZM0.17,0.022L0.171,0.021L0.17,0.02L0.178,0.025C0.178,0.026 0.178,0.027 0.177,0.028L0.167,0.021C0.168,0.021 0.169,0.021 0.17,0.022ZM0.164,0.033C0.162,0.032 0.161,0.031 0.161,0.031L0.164,0.033ZM0.209,-0.03C0.213,-0.031 0.216,-0.024 0.215,-0.02C0.216,-0.021 0.217,-0.022 0.218,-0.022C0.223,-0.022 0.226,-0.011 0.218,-0.013L0.218,-0.011C0.219,-0.008 0.219,-0.005 0.217,-0.003L0.208,-0.009C0.209,-0.01 0.209,-0.011 0.21,-0.012C0.213,-0.016 0.216,-0.015 0.217,-0.012L0.218,-0.013C0.215,-0.014 0.215,-0.015 0.215,-0.017C0.215,-0.017 0.215,-0.018 0.215,-0.019C0.214,-0.017 0.212,-0.017 0.209,-0.017L0.208,-0.014C0.208,-0.013 0.208,-0.011 0.207,-0.01L0.2,-0.015C0.2,-0.017 0.201,-0.019 0.204,-0.019C0.205,-0.019 0.206,-0.018 0.207,-0.016L0.208,-0.018C0.204,-0.02 0.204,-0.021 0.204,-0.023C0.203,-0.025 0.204,-0.027 0.205,-0.028C0.205,-0.029 0.207,-0.03 0.209,-0.03ZM0.19,-0.005L0.191,-0.003L0.19,-0.004L0.189,-0.006L0.19,-0.005ZM0.196,-0.012L0.196,-0.004L0.195,-0.005L0.195,-0.013L0.196,-0.012ZM0.191,-0.003L0.191,-0.002L0.192,-0.002L0.206,0.008L0.206,0.01L0.205,0.008L0.204,0.007L0.203,0.007L0.203,0.007L0.19,-0.002L0.19,-0.002L0.19,-0.004L0.191,-0.003ZM0.207,-0.01C0.207,-0.01 0.207,-0.01 0.207,-0.01L0.205,-0.006L0.204,-0.007L0.205,-0.01C0.205,-0.01 0.204,-0.01 0.204,-0.01L0.203,-0.007L0.202,-0.008L0.203,-0.01C0.2,-0.012 0.2,-0.012 0.2,-0.014C0.2,-0.014 0.2,-0.015 0.2,-0.015L0.207,-0.01ZM0.194,-0.002L0.207,0.007L0.206,0.007L0.206,0.008L0.192,-0.002L0.194,-0.002ZM0.196,-0.004L0.196,-0.003C0.196,-0.003 0.196,-0.003 0.196,-0.003C0.196,-0.003 0.197,-0.003 0.196,-0.003L0.196,-0.002L0.196,-0.002L0.2,-0.001L0.2,-0.001L0.212,0.007L0.212,0.007L0.212,0.007L0.212,0.007L0.22,0.012C0.219,0.013 0.219,0.014 0.219,0.015L0.219,0.015L0.21,0.009C0.211,0.009 0.211,0.008 0.212,0.008L0.211,0.007L0.207,0.007L0.194,-0.002L0.195,-0.002L0.195,-0.005L0.196,-0.004ZM0.186,0.009L0.192,0.013L0.192,0.014L0.192,0.014L0.192,0.014L0.185,0.01C0.186,0.009 0.186,0.009 0.186,0.009ZM0.189,0.01L0.189,0.01L0.19,0.01L0.19,0.01L0.191,0.011L0.192,0.011L0.192,0.011L0.192,0.012L0.192,0.012L0.192,0.012L0.192,0.012L0.192,0.012L0.192,0.012C0.192,0.012 0.192,0.012 0.192,0.012L0.192,0.013L0.192,0.013C0.192,0.013 0.192,0.013 0.192,0.013L0.192,0.013L0.186,0.009C0.187,0.009 0.188,0.009 0.189,0.01ZM0.191,0.008L0.19,0.01L0.189,0.01L0.19,0.008L0.191,0.008ZM0.203,-0.007L0.201,-0.001L0.202,-0.001L0.204,-0.007L0.205,-0.006L0.203,-0.001L0.207,-0.001L0.209,-0.003L0.21,-0.003L0.208,-0L0.213,-0L0.213,-0L0.228,0.01L0.23,0.016C0.234,0.015 0.234,0.019 0.233,0.022L0.226,0.017C0.227,0.017 0.227,0.016 0.229,0.016L0.227,0.011C0.226,0.014 0.223,0.015 0.221,0.012C0.22,0.01 0.22,0.009 0.221,0.007L0.218,0.007C0.22,0.008 0.22,0.01 0.22,0.012L0.212,0.007L0.213,0.007L0.212,0.007L0.2,-0.001L0.202,-0.008L0.203,-0.007ZM0.182,0.024C0.182,0.024 0.181,0.023 0.181,0.023L0.182,0.024ZM0.197,0.009L0.197,0.013L0.196,0.012L0.196,0.008L0.197,0.009ZM0.217,-0.003C0.216,-0.003 0.216,-0.003 0.215,-0.003L0.214,0L0.219,0L0.22,-0.001L0.22,-0.001L0.219,0.001L0.223,0.001L0.232,0.007C0.231,0.007 0.229,0.007 0.228,0.007C0.228,0.008 0.228,0.009 0.228,0.01L0.228,0.01L0.213,-0L0.214,-0.003C0.213,-0.003 0.212,-0.003 0.211,-0.004C0.211,-0.004 0.211,-0.004 0.211,-0.004L0.21,-0.003L0.209,-0.003L0.21,-0.004C0.209,-0.006 0.208,-0.007 0.208,-0.009L0.217,-0.003ZM0.197,0.013L0.197,0.015L0.196,0.014L0.196,0.012L0.197,0.013ZM0.197,0.015L0.197,0.017L0.196,0.016L0.196,0.014L0.197,0.015ZM0.196,0.019L0.196,0.017L0.197,0.018L0.197,0.019C0.198,0.019 0.198,0.019 0.198,0.019L0.2,0.02C0.201,0.021 0.201,0.023 0.199,0.025L0.192,0.02C0.192,0.02 0.192,0.02 0.192,0.02C0.193,0.019 0.194,0.019 0.196,0.019ZM0.199,0.025C0.199,0.026 0.198,0.026 0.198,0.026L0.191,0.022C0.191,0.021 0.192,0.021 0.192,0.021C0.192,0.021 0.192,0.02 0.192,0.02L0.199,0.025ZM0.198,0.026C0.198,0.027 0.197,0.027 0.197,0.027L0.191,0.023C0.191,0.022 0.191,0.022 0.191,0.022L0.198,0.026ZM0.197,0.027C0.196,0.028 0.195,0.028 0.194,0.028C0.193,0.028 0.193,0.027 0.193,0.027L0.192,0.027C0.191,0.026 0.191,0.024 0.191,0.023L0.197,0.027ZM0.197,0.017L0.197,0.018L0.196,0.017L0.196,0.016L0.197,0.017ZM0.193,0.027C0.193,0.027 0.192,0.027 0.192,0.027L0.193,0.027ZM0.2,0.02L0.198,0.019C0.199,0.019 0.2,0.019 0.2,0.02ZM0.204,0.014L0.209,0.017C0.209,0.017 0.209,0.017 0.209,0.018L0.21,0.021C0.213,0.02 0.215,0.021 0.215,0.023C0.215,0.022 0.215,0.022 0.215,0.021L0.221,0.025C0.22,0.026 0.219,0.026 0.219,0.026C0.217,0.026 0.216,0.025 0.215,0.024C0.216,0.024 0.216,0.025 0.216,0.026L0.208,0.02L0.208,0.02C0.208,0.02 0.208,0.02 0.208,0.02L0.201,0.015C0.201,0.015 0.201,0.015 0.201,0.015C0.202,0.015 0.202,0.014 0.204,0.014ZM0.208,0.02C0.207,0.021 0.207,0.021 0.206,0.021L0.201,0.017C0.201,0.017 0.201,0.017 0.201,0.017C0.201,0.016 0.201,0.016 0.201,0.015L0.208,0.02ZM0.229,-0.02C0.233,-0.02 0.236,-0.009 0.229,-0.011L0.227,-0.005C0.227,-0.003 0.227,-0.001 0.225,-0.001L0.225,0.001L0.246,0.002C0.246,0.002 0.259,0.007 0.232,0.007L0.223,0.001L0.224,0.001L0.224,-0.001C0.223,-0 0.222,-0.001 0.221,-0.001C0.221,-0.001 0.221,-0.001 0.221,-0.002L0.22,-0.001L0.22,-0.001L0.22,-0.002C0.219,-0.003 0.218,-0.006 0.22,-0.007C0.223,-0.011 0.225,-0.009 0.226,-0.007L0.228,-0.011C0.225,-0.013 0.225,-0.013 0.225,-0.015C0.225,-0.016 0.225,-0.017 0.226,-0.019C0.226,-0.019 0.227,-0.02 0.229,-0.02ZM0.206,0.021C0.206,0.022 0.205,0.022 0.205,0.022L0.201,0.019C0.201,0.019 0.201,0.018 0.201,0.017L0.206,0.021ZM0.205,0.022C0.204,0.022 0.204,0.022 0.204,0.022C0.204,0.022 0.203,0.022 0.203,0.022L0.202,0.021C0.201,0.021 0.201,0.02 0.201,0.019L0.205,0.022ZM0.203,0.022C0.202,0.021 0.202,0.021 0.202,0.021L0.203,0.022ZM0.219,0.015L0.219,0.017C0.22,0.017 0.22,0.017 0.221,0.017L0.223,0.018C0.223,0.019 0.223,0.019 0.223,0.02L0.218,0.016L0.218,0.016L0.218,0.016L0.21,0.01C0.21,0.01 0.21,0.01 0.21,0.009L0.219,0.015ZM0.218,0.016C0.218,0.016 0.217,0.017 0.217,0.017L0.209,0.012C0.209,0.011 0.21,0.011 0.21,0.01L0.218,0.016ZM0.217,0.017C0.215,0.019 0.213,0.019 0.21,0.015C0.21,0.014 0.209,0.013 0.209,0.012L0.217,0.017ZM0.205,0.023L0.214,0.03C0.213,0.031 0.212,0.033 0.211,0.033L0.204,0.028C0.204,0.027 0.204,0.027 0.204,0.026C0.204,0.025 0.204,0.024 0.204,0.024C0.205,0.023 0.205,0.023 0.205,0.023ZM0.205,0.023L0.215,0.029C0.214,0.029 0.214,0.03 0.214,0.03L0.205,0.023C0.205,0.023 0.205,0.023 0.205,0.023ZM0.207,0.022L0.215,0.028C0.215,0.028 0.215,0.029 0.215,0.029L0.205,0.023C0.206,0.022 0.206,0.022 0.207,0.022ZM0.208,0.021L0.208,0.02L0.216,0.026C0.216,0.026 0.215,0.027 0.215,0.028L0.207,0.022C0.207,0.022 0.208,0.022 0.208,0.021ZM0.211,0.033C0.21,0.034 0.21,0.034 0.209,0.034L0.208,0.034L0.204,0.031C0.204,0.03 0.204,0.029 0.204,0.028L0.211,0.033ZM0.208,0.034C0.206,0.033 0.205,0.032 0.204,0.031L0.208,0.034ZM0.218,0.017L0.223,0.021C0.223,0.023 0.222,0.024 0.221,0.025L0.215,0.021C0.215,0.021 0.215,0.021 0.215,0.02C0.215,0.02 0.215,0.019 0.216,0.019C0.216,0.018 0.217,0.018 0.218,0.017ZM0.223,0.02C0.223,0.02 0.223,0.021 0.223,0.021L0.218,0.017C0.218,0.017 0.218,0.017 0.218,0.017L0.218,0.016L0.223,0.02ZM0.223,0.018L0.221,0.017C0.222,0.017 0.223,0.017 0.223,0.018ZM0.226,0.017L0.233,0.022C0.232,0.023 0.232,0.023 0.231,0.024L0.225,0.02C0.225,0.02 0.225,0.02 0.226,0.019C0.226,0.019 0.226,0.018 0.226,0.018C0.226,0.017 0.226,0.017 0.226,0.017ZM0.231,0.024C0.231,0.024 0.23,0.024 0.23,0.025L0.226,0.021C0.225,0.021 0.225,0.02 0.225,0.02L0.231,0.024ZM0.23,0.025C0.23,0.025 0.229,0.025 0.229,0.025C0.227,0.024 0.226,0.023 0.226,0.021L0.23,0.025Z" style="fill:url(#_Linear46);fill-rule:nonzero;"/>
        </g>
        <g transform="matrix(-959.476,6.2364e-05,6.49491e-05,921.286,991.124,637.613)">
            <path d="M0.626,-0.092C0.627,-0.094 0.629,-0.095 0.629,-0.095C0.628,-0.094 0.627,-0.093 0.626,-0.092ZM0.63,0.002C0.646,0.042 0.654,0.074 0.65,0.095C0.65,0.095 0.648,0.094 0.645,0.094C0.643,0.094 0.641,0.094 0.641,0.094C0.644,0.073 0.645,0.042 0.629,0.002C0.611,-0.041 0.607,-0.069 0.626,-0.092C0.62,-0.083 0.607,-0.056 0.63,0.002Z" style="fill:url(#_Linear47);fill-rule:nonzero;"/>
        </g>
        <g transform="matrix(-54.3647,0,0,52.2008,414.276,537.111)">
            <path d="M0.5,-0.139C0.588,-0.153 0.903,-0.405 0.929,-0.405C0.954,-0.405 1,-0.283 1,-0.283C1,-0.283 0.52,-0.083 0.552,-0.027C0.584,0.028 0.941,0.187 0.941,0.187L0.819,0.321C0.819,0.321 0.597,0.086 0.513,0.095C0.429,0.103 0.479,0.439 0.479,0.439C0.479,0.439 0.353,0.384 0.332,0.388C0.311,0.393 0.45,0.107 0.391,0.027C0.332,-0.052 0.038,0.048 0.038,0.048L0,-0.09C0,-0.09 0.307,-0.023 0.353,-0.128C0.399,-0.233 0.321,-0.431 0.321,-0.431L0.467,-0.439C0.467,-0.439 0.411,-0.124 0.5,-0.139Z" style="fill:url(#_Linear48);fill-rule:nonzero;"/>
        </g>
        <g transform="matrix(-2.03835e-14,29.2643,30.4774,1.95722e-14,392.557,547.942)">
            <ellipse cx="0.502" cy="0" rx="0.24" ry="0.24" style="fill:url(#_Linear49);"/>
        </g>
        <g transform="matrix(-6.54109,10.0512,10.4679,6.28074,417.719,529.109)">
            <path d="M0.553,-0.577C0.872,-0.651 1.191,-0.452 1.265,-0.133C1.338,0.186 1.139,0.505 0.82,0.579C0.501,0.652 0.183,0.453 0.109,0.134C0.072,-0.026 0.103,-0.185 0.184,-0.314C0.264,-0.442 0.394,-0.54 0.553,-0.577Z" style="fill:url(#_Linear50);fill-rule:nonzero;"/>
        </g>
        <g transform="matrix(12.3694,2.96128,3.08403,-11.8771,358.689,552.277)">
            <path d="M-0.111,0.337C-0.261,0.057 -0.156,-0.291 0.124,-0.441C0.403,-0.591 0.751,-0.486 0.901,-0.207C1.051,0.073 0.946,0.421 0.667,0.571C0.536,0.641 0.39,0.656 0.257,0.622C0.105,0.584 -0.031,0.485 -0.111,0.337Z" style="fill:url(#_Linear51);fill-rule:nonzero;"/>
        </g>
        <g transform="matrix(23.2757,-8.57907,-8.93469,-22.3493,343.843,525.815)">
            <path d="M0.716,0.307C0.557,0.281 0.448,0.13 0.474,-0.03C0.501,-0.19 0.652,-0.299 0.812,-0.272C0.972,-0.246 1.08,-0.095 1.054,0.065C1.036,0.172 0.963,0.256 0.869,0.292C0.822,0.31 0.77,0.316 0.716,0.307Z" style="fill:url(#_Linear52);fill-rule:nonzero;"/>
        </g>
        <g transform="matrix(-1.32819,14.5772,15.1814,1.27533,393.607,506.268)">
            <path d="M0.522,-0.479C0.786,-0.499 1.017,-0.301 1.037,-0.036C1.057,0.228 0.858,0.459 0.594,0.479C0.329,0.499 0.098,0.3 0.079,0.036C0.077,0.009 0.077,-0.017 0.079,-0.043C0.099,-0.273 0.284,-0.461 0.522,-0.479Z" style="fill:url(#_Linear53);fill-rule:nonzero;"/>
        </g>
        <g transform="matrix(-10.0129,-68.4099,-71.2457,9.61438,393.188,569.186)">
            <path d="M0.729,0.087C0.729,0.087 0.514,-0.022 0.504,0.006C0.494,0.034 0.546,0.208 0.546,0.208L0.462,0.205C0.462,0.205 0.478,0.056 0.449,0.029C0.421,0.002 0.318,0.12 0.318,0.12C0.318,0.12 0.299,0.06 0.291,0.053C0.284,0.047 0.426,0.01 0.437,-0.034C0.447,-0.079 0.323,-0.153 0.323,-0.153L0.361,-0.208C0.361,-0.208 0.429,-0.079 0.48,-0.094C0.531,-0.11 0.578,-0.197 0.578,-0.197L0.624,-0.148C0.624,-0.148 0.496,-0.073 0.528,-0.046C0.56,-0.019 0.743,0.017 0.751,0.025C0.752,0.026 0.752,0.027 0.752,0.028C0.754,0.042 0.729,0.087 0.729,0.087Z" style="fill:url(#_Linear54);fill-rule:nonzero;"/>
        </g>
        <g transform="matrix(-0.467475,12.854,13.3869,0.448869,383.003,544.917)">
            <path d="M0.329,-0.289C0.489,-0.383 0.695,-0.329 0.789,-0.17C0.882,-0.01 0.829,0.196 0.669,0.29C0.509,0.383 0.304,0.329 0.21,0.17C0.177,0.113 0.162,0.05 0.164,-0.011C0.168,-0.122 0.227,-0.229 0.329,-0.289Z" style="fill:url(#_Linear55);fill-rule:nonzero;"/>
        </g>
        <g transform="matrix(-0.468317,12.8765,13.4103,0.449677,402.829,537.887)">
            <path d="M0.156,-0.084C0.202,-0.263 0.385,-0.37 0.564,-0.324C0.743,-0.277 0.85,-0.094 0.804,0.084C0.757,0.263 0.574,0.371 0.395,0.324C0.241,0.284 0.14,0.142 0.145,-0.011C0.146,-0.036 0.15,-0.06 0.156,-0.084Z" style="fill:url(#_Linear56);fill-rule:nonzero;"/>
        </g>
        <g transform="matrix(2.51699,7.43827,7.7466,-2.41681,370.376,534.478)">
            <path d="M-0.2,0.028C-0.214,-0.276 0.021,-0.534 0.325,-0.549C0.629,-0.563 0.888,-0.327 0.902,-0.023C0.916,0.281 0.681,0.539 0.376,0.554C0.122,0.565 -0.099,0.404 -0.174,0.173C-0.189,0.127 -0.198,0.079 -0.2,0.028Z" style="fill:url(#_Linear57);fill-rule:nonzero;"/>
        </g>
        <g transform="matrix(-0.458536,12.6079,13.1306,0.440286,381.895,512.226)">
            <path d="M0.524,-0.341C0.713,-0.342 0.866,-0.189 0.866,0C0.866,0.189 0.714,0.342 0.525,0.342C0.336,0.342 0.183,0.19 0.182,0.001C0.183,-0.003 0.183,-0.008 0.183,-0.012C0.189,-0.195 0.339,-0.341 0.524,-0.341Z" style="fill:url(#_Linear58);fill-rule:nonzero;"/>
        </g>
        <g transform="matrix(-3.09232,15.2754,15.9086,2.96924,401.936,514.177)">
            <path d="M0.661,-0.238C0.792,-0.317 0.962,-0.273 1.041,-0.142C1.119,-0.01 1.075,0.16 0.944,0.238C0.812,0.317 0.642,0.273 0.564,0.142C0.528,0.081 0.518,0.012 0.53,-0.053C0.545,-0.128 0.59,-0.196 0.661,-0.238Z" style="fill:url(#_Linear59);fill-rule:nonzero;"/>
        </g>
    </g>
    <defs>
        <linearGradient id="_Linear1" x1="0" y1="0" x2="1" y2="0" gradientUnits="userSpaceOnUse" gradientTransform="matrix(1,0,-5.55112e-17,-1,0,-0.0120265)"><stop offset="0" style="stop-color:rgb(237,22,81);stop-opacity:1"/><stop offset="1" style="stop-color:rgb(229,107,116);stop-opacity:1"/></linearGradient>
        <linearGradient id="_Linear2" x1="0" y1="0" x2="1" y2="0" gradientUnits="userSpaceOnUse" gradientTransform="matrix(1,0,0,-1,0,-8.63724e-07)"><stop offset="0" style="stop-color:rgb(237,22,81);stop-opacity:1"/><stop offset="1" style="stop-color:rgb(211,63,97);stop-opacity:1"/></linearGradient>
        <linearGradient id="_Linear3" x1="0" y1="0" x2="1" y2="0" gradientUnits="userSpaceOnUse" gradientTransform="matrix(1,0,0,-1,0,-0.00421814)"><stop offset="0" style="stop-color:rgb(237,22,81);stop-opacity:1"/><stop offset="1" style="stop-color:rgb(211,63,97);stop-opacity:1"/></linearGradient>
        <linearGradient id="_Linear4" x1="0" y1="0" x2="1" y2="0" gradientUnits="userSpaceOnUse" gradientTransform="matrix(1,0,0,-1,0,-0.00449725)"><stop offset="0" style="stop-color:rgb(237,22,81);stop-opacity:1"/><stop offset="1" style="stop-color:rgb(211,63,97);stop-opacity:1"/></linearGradient>
        <linearGradient id="_Linear5" x1="0" y1="0" x2="1" y2="0" gradientUnits="userSpaceOnUse" gradientTransform="matrix(1,3.46945e-18,3.46945e-18,-1,0,-1.80118e-07)"><stop offset="0" style="stop-color:rgb(237,22,81);stop-opacity:1"/><stop offset="1" style="stop-color:rgb(211,63,97);stop-opacity:1"/></linearGradient>
        <linearGradient id="_Linear6" x1="0" y1="0" x2="1" y2="0" gradientUnits="userSpaceOnUse" gradientTransform="matrix(1,0,0,-1,0,-0.000933171)"><stop offset="0" style="stop-color:rgb(237,22,81);stop-opacity:1"/><stop offset="1" style="stop-color:rgb(211,63,97);stop-opacity:1"/></linearGradient>
        <linearGradient id="_Linear7" x1="0" y1="0" x2="1" y2="0" gradientUnits="userSpaceOnUse" gradientTransform="matrix(1,0,0,-1,0,-0.0893129)"><stop offset="0" style="stop-color:rgb(237,22,81);stop-opacity:1"/><stop offset="1" style="stop-color:rgb(211,63,97);stop-opacity:1"/></linearGradient>
        <linearGradient id="_Linear8" x1="0" y1="0" x2="1" y2="0" gradientUnits="userSpaceOnUse" gradientTransform="matrix(1,0,0,-1,0,-9.46655e-06)"><stop offset="0" style="stop-color:rgb(237,22,81);stop-opacity:1"/><stop offset="1" style="stop-color:rgb(79,40,39);stop-opacity:1"/></linearGradient>
        <linearGradient id="_Linear9" x1="0" y1="0" x2="1" y2="0" gradientUnits="userSpaceOnUse" gradientTransform="matrix(1,0,5.55112e-17,-1,0,0.0225709)"><stop offset="0" style="stop-color:rgb(237,22,81);stop-opacity:1"/><stop offset="1" style="stop-color:rgb(229,107,116);stop-opacity:1"/></linearGradient>
        <linearGradient id="_Linear10" x1="0" y1="0" x2="1" y2="0" gradientUnits="userSpaceOnUse" gradientTransform="matrix(1,0,0,-1,0,-7.71925e-05)"><stop offset="0" style="stop-color:rgb(237,22,81);stop-opacity:1"/><stop offset="1" style="stop-color:rgb(211,63,97);stop-opacity:1"/></linearGradient>
        <linearGradient id="_Linear11" x1="0" y1="0" x2="1" y2="0" gradientUnits="userSpaceOnUse" gradientTransform="matrix(1,0,0,-1,0,8.30767e-06)"><stop offset="0" style="stop-color:rgb(237,22,81);stop-opacity:1"/><stop offset="1" style="stop-color:rgb(211,63,97);stop-opacity:1"/></linearGradient>
        <linearGradient id="_Linear12" x1="0" y1="0" x2="1" y2="0" gradientUnits="userSpaceOnUse" gradientTransform="matrix(1,0,0,-1,0,1.3353e-05)"><stop offset="0" style="stop-color:rgb(237,22,81);stop-opacity:1"/><stop offset="1" style="stop-color:rgb(211,63,97);stop-opacity:1"/></linearGradient>
        <linearGradient id="_Linear13" x1="0" y1="0" x2="1" y2="0" gradientUnits="userSpaceOnUse" gradientTransform="matrix(-0.0384788,-0.999259,-0.999259,0.0384788,0.519278,0.499666)"><stop offset="0" style="stop-color:rgb(237,22,81);stop-opacity:1"/><stop offset="1" style="stop-color:rgb(211,63,97);stop-opacity:1"/></linearGradient>
        <linearGradient id="_Linear14" x1="0" y1="0" x2="1" y2="0" gradientUnits="userSpaceOnUse" gradientTransform="matrix(1,0,0,-1,0,-3.1461e-06)"><stop offset="0" style="stop-color:rgb(237,22,81);stop-opacity:1"/><stop offset="1" style="stop-color:rgb(211,63,97);stop-opacity:1"/></linearGradient>
        <linearGradient id="_Linear15" x1="0" y1="0" x2="1" y2="0" gradientUnits="userSpaceOnUse" gradientTransform="matrix(1,0,0,-1,0,6.75471e-06)"><stop offset="0" style="stop-color:rgb(237,22,81);stop-opacity:1"/><stop offset="1" style="stop-color:rgb(211,63,97);stop-opacity:1"/></linearGradient>
        <linearGradient id="_Linear16" x1="0" y1="0" x2="1" y2="0" gradientUnits="userSpaceOnUse" gradientTransform="matrix(1,0,0,-1,0,-1.72858e-07)"><stop offset="0" style="stop-color:rgb(237,22,81);stop-opacity:1"/><stop offset="1" style="stop-color:rgb(211,63,97);stop-opacity:1"/></linearGradient>
        <linearGradient id="_Linear17" x1="0" y1="0" x2="1" y2="0" gradientUnits="userSpaceOnUse" gradientTransform="matrix(1,0,0,-1,0,-0.0814673)"><stop offset="0" style="stop-color:rgb(237,22,81);stop-opacity:1"/><stop offset="1" style="stop-color:rgb(110,47,51);stop-opacity:1"/></linearGradient>
        <linearGradient id="_Linear18" x1="0" y1="0" x2="1" y2="0" gradientUnits="userSpaceOnUse" gradientTransform="matrix(1,0,0,-1,0,-0.0115314)"><stop offset="0" style="stop-color:rgb(237,22,81);stop-opacity:1"/><stop offset="1" style="stop-color:rgb(229,107,116);stop-opacity:1"/></linearGradient>
        <linearGradient id="_Linear19" x1="0" y1="0" x2="1" y2="0" gradientUnits="userSpaceOnUse" gradientTransform="matrix(1,0,0,-1,0,6.26395e-07)"><stop offset="0" style="stop-color:rgb(237,22,81);stop-opacity:1"/><stop offset="1" style="stop-color:rgb(229,107,116);stop-opacity:1"/></linearGradient>
        <linearGradient id="_Linear20" x1="0" y1="0" x2="1" y2="0" gradientUnits="userSpaceOnUse" gradientTransform="matrix(1,0,0,-1,0,-4.36225e-07)"><stop offset="0" style="stop-color:rgb(237,22,81);stop-opacity:1"/><stop offset="1" style="stop-color:rgb(211,63,97);stop-opacity:1"/></linearGradient>
        <linearGradient id="_Linear21" x1="0" y1="0" x2="1" y2="0" gradientUnits="userSpaceOnUse" gradientTransform="matrix(1,0,0,-1,0,-1.75627e-06)"><stop offset="0" style="stop-color:rgb(237,22,81);stop-opacity:1"/><stop offset="1" style="stop-color:rgb(211,63,97);stop-opacity:1"/></linearGradient>
        <linearGradient id="_Linear22" x1="0" y1="0" x2="1" y2="0" gradientUnits="userSpaceOnUse" gradientTransform="matrix(1,0,0,-1,0,-4.3511e-06)"><stop offset="0" style="stop-color:rgb(237,22,81);stop-opacity:1"/><stop offset="1" style="stop-color:rgb(211,63,97);stop-opacity:1"/></linearGradient>
        <linearGradient id="_Linear23" x1="0" y1="0" x2="1" y2="0" gradientUnits="userSpaceOnUse" gradientTransform="matrix(1,0,0,-1,0,0.0136123)"><stop offset="0" style="stop-color:rgb(237,22,81);stop-opacity:1"/><stop offset="1" style="stop-color:rgb(79,40,39);stop-opacity:1"/></linearGradient>
        <linearGradient id="_Linear24" x1="0" y1="0" x2="1" y2="0" gradientUnits="userSpaceOnUse" gradientTransform="matrix(1,0,0,-1,0,0.0595654)"><stop offset="0" style="stop-color:rgb(237,22,81);stop-opacity:1"/><stop offset="1" style="stop-color:rgb(229,107,116);stop-opacity:1"/></linearGradient>
        <linearGradient id="_Linear25" x1="0" y1="0" x2="1" y2="0" gradientUnits="userSpaceOnUse" gradientTransform="matrix(1,0,0,-1,0,-3.56621e-08)"><stop offset="0" style="stop-color:rgb(237,22,81);stop-opacity:1"/><stop offset="1" style="stop-color:rgb(229,153,158);stop-opacity:1"/></linearGradient>
        <linearGradient id="_Linear26" x1="0" y1="0" x2="1" y2="0" gradientUnits="userSpaceOnUse" gradientTransform="matrix(1,5.55112e-17,5.55112e-17,-1,0,0.000796061)"><stop offset="0" style="stop-color:rgb(237,22,81);stop-opacity:1"/><stop offset="1" style="stop-color:rgb(203,51,79);stop-opacity:1"/></linearGradient>
        <linearGradient id="_Linear27" x1="0" y1="0" x2="1" y2="0" gradientUnits="userSpaceOnUse" gradientTransform="matrix(1,0,0,-1,0,5.02846e-06)"><stop offset="0" style="stop-color:rgb(237,22,81);stop-opacity:1"/><stop offset="1" style="stop-color:rgb(203,51,79);stop-opacity:1"/></linearGradient>
        <linearGradient id="_Linear28" x1="0" y1="0" x2="1" y2="0" gradientUnits="userSpaceOnUse" gradientTransform="matrix(1,5.55112e-17,5.55112e-17,-1,0,8.98823e-05)"><stop offset="0" style="stop-color:rgb(237,22,81);stop-opacity:1"/><stop offset="1" style="stop-color:rgb(229,153,158);stop-opacity:1"/></linearGradient>
        <linearGradient id="_Linear29" x1="0" y1="0" x2="1" y2="0" gradientUnits="userSpaceOnUse" gradientTransform="matrix(1,0,0,-1,0,9.44416e-08)"><stop offset="0" style="stop-color:rgb(237,22,81);stop-opacity:1"/><stop offset="1" style="stop-color:rgb(211,63,97);stop-opacity:1"/></linearGradient>
        <linearGradient id="_Linear30" x1="0" y1="0" x2="1" y2="0" gradientUnits="userSpaceOnUse" gradientTransform="matrix(1,-2.77556e-17,-2.77556e-17,-1,0,3.47242e-07)"><stop offset="0" style="stop-color:rgb(237,22,81);stop-opacity:1"/><stop offset="1" style="stop-color:rgb(229,153,158);stop-opacity:1"/></linearGradient>
        <linearGradient id="_Linear31" x1="0" y1="0" x2="1" y2="0" gradientUnits="userSpaceOnUse" gradientTransform="matrix(1,0,0,-1,0,6.34116e-05)"><stop offset="0" style="stop-color:rgb(237,22,81);stop-opacity:1"/><stop offset="1" style="stop-color:rgb(229,107,116);stop-opacity:1"/></linearGradient>
        <linearGradient id="_Linear32" x1="0" y1="0" x2="1" y2="0" gradientUnits="userSpaceOnUse" gradientTransform="matrix(1,0,0,-1,0,-1.97889e-06)"><stop offset="0" style="stop-color:rgb(237,22,81);stop-opacity:1"/><stop offset="1" style="stop-color:rgb(211,63,97);stop-opacity:1"/></linearGradient>
        <linearGradient id="_Linear33" x1="0" y1="0" x2="1" y2="0" gradientUnits="userSpaceOnUse" gradientTransform="matrix(1,0,0,-1,0,-0.0016202)"><stop offset="0" style="stop-color:rgb(237,22,81);stop-opacity:1"/><stop offset="1" style="stop-color:rgb(211,63,97);stop-opacity:1"/></linearGradient>
        <linearGradient id="_Linear34" x1="0" y1="0" x2="1" y2="0" gradientUnits="userSpaceOnUse" gradientTransform="matrix(-0.319665,-0.947531,-0.947531,0.319665,0.659832,0.473765)"><stop offset="0" style="stop-color:rgb(237,22,81);stop-opacity:1"/><stop offset="1" style="stop-color:rgb(211,63,97);stop-opacity:1"/></linearGradient>
        <linearGradient id="_Linear35" x1="0" y1="0" x2="1" y2="0" gradientUnits="userSpaceOnUse" gradientTransform="matrix(1,0,5.55112e-17,-1,0,0.0107961)"><stop offset="0" style="stop-color:rgb(237,22,81);stop-opacity:1"/><stop offset="1" style="stop-color:rgb(79,40,39);stop-opacity:1"/></linearGradient>
        <linearGradient id="_Linear36" x1="0" y1="0" x2="1" y2="0" gradientUnits="userSpaceOnUse" gradientTransform="matrix(1,0,0,-1,0,-0.0101857)"><stop offset="0" style="stop-color:rgb(237,22,81);stop-opacity:1"/><stop offset="1" style="stop-color:rgb(229,107,116);stop-opacity:1"/></linearGradient>
        <linearGradient id="_Linear37" x1="0" y1="0" x2="1" y2="0" gradientUnits="userSpaceOnUse" gradientTransform="matrix(1,0,0,-1,0,1.60502e-06)"><stop offset="0" style="stop-color:rgb(237,22,81);stop-opacity:1"/><stop offset="1" style="stop-color:rgb(203,51,79);stop-opacity:1"/></linearGradient>
        <linearGradient id="_Linear38" x1="0" y1="0" x2="1" y2="0" gradientUnits="userSpaceOnUse" gradientTransform="matrix(1,0,0,-1,0,0.000218038)"><stop offset="0" style="stop-color:rgb(237,22,81);stop-opacity:1"/><stop offset="1" style="stop-color:rgb(203,51,79);stop-opacity:1"/></linearGradient>
        <linearGradient id="_Linear39" x1="0" y1="0" x2="1" y2="0" gradientUnits="userSpaceOnUse" gradientTransform="matrix(1,0,0,-1,0,-0.000379848)"><stop offset="0" style="stop-color:rgb(237,22,81);stop-opacity:1"/><stop offset="1" style="stop-color:rgb(211,63,97);stop-opacity:1"/></linearGradient>
        <linearGradient id="_Linear40" x1="0" y1="0" x2="1" y2="0" gradientUnits="userSpaceOnUse" gradientTransform="matrix(1,0,0,-1,0,-1.52255e-06)"><stop offset="0" style="stop-color:rgb(237,22,81);stop-opacity:1"/><stop offset="1" style="stop-color:rgb(211,63,97);stop-opacity:1"/></linearGradient>
        <linearGradient id="_Linear41" x1="0" y1="0" x2="1" y2="0" gradientUnits="userSpaceOnUse" gradientTransform="matrix(1,0,0,-1,0,5.89488e-07)"><stop offset="0" style="stop-color:rgb(237,22,81);stop-opacity:1"/><stop offset="1" style="stop-color:rgb(211,63,97);stop-opacity:1"/></linearGradient>
        <linearGradient id="_Linear42" x1="0" y1="0" x2="1" y2="0" gradientUnits="userSpaceOnUse" gradientTransform="matrix(1,0,0,-1,0,3.45296e-07)"><stop offset="0" style="stop-color:rgb(237,22,81);stop-opacity:1"/><stop offset="1" style="stop-color:rgb(211,63,97);stop-opacity:1"/></linearGradient>
        <linearGradient id="_Linear43" x1="0" y1="0" x2="1" y2="0" gradientUnits="userSpaceOnUse" gradientTransform="matrix(1,0,0,-1,0,-0.00229583)"><stop offset="0" style="stop-color:rgb(237,22,81);stop-opacity:1"/><stop offset="1" style="stop-color:rgb(211,63,97);stop-opacity:1"/></linearGradient>
        <linearGradient id="_Linear44" x1="0" y1="0" x2="1" y2="0" gradientUnits="userSpaceOnUse" gradientTransform="matrix(0.322763,-0.94648,-0.94648,-0.322763,0.324907,0.454077)"><stop offset="0" style="stop-color:rgb(237,22,81);stop-opacity:1"/><stop offset="1" style="stop-color:rgb(211,63,97);stop-opacity:1"/></linearGradient>
        <linearGradient id="_Linear45" x1="0" y1="0" x2="1" y2="0" gradientUnits="userSpaceOnUse" gradientTransform="matrix(1,0,0,-1,0,-0.0150322)"><stop offset="0" style="stop-color:rgb(237,22,81);stop-opacity:1"/><stop offset="1" style="stop-color:rgb(79,40,39);stop-opacity:1"/></linearGradient>
        <linearGradient id="_Linear46" x1="0" y1="0" x2="1" y2="0" gradientUnits="userSpaceOnUse" gradientTransform="matrix(1,0,0,-1,0,-4.4979e-05)"><stop offset="0" style="stop-color:rgb(110,47,51);stop-opacity:1"/><stop offset="0.34" style="stop-color:rgb(238,27,81);stop-opacity:1"/><stop offset="1" style="stop-color:rgb(255,203,3);stop-opacity:1"/></linearGradient>
        <linearGradient id="_Linear47" x1="0" y1="0" x2="1" y2="0" gradientUnits="userSpaceOnUse" gradientTransform="matrix(1,1.32349e-23,1.32349e-23,-1,0,-4.06171e-06)"><stop offset="0" style="stop-color:rgb(237,22,81);stop-opacity:1"/><stop offset="1" style="stop-color:rgb(211,63,97);stop-opacity:1"/></linearGradient>
        <linearGradient id="_Linear48" x1="0" y1="0" x2="1" y2="0" gradientUnits="userSpaceOnUse" gradientTransform="matrix(1,0,0,-1,0,4.02604e-05)"><stop offset="0" style="stop-color:rgb(237,22,81);stop-opacity:1"/><stop offset="1" style="stop-color:rgb(211,63,97);stop-opacity:1"/></linearGradient>
        <linearGradient id="_Linear49" x1="0" y1="0" x2="1" y2="0" gradientUnits="userSpaceOnUse" gradientTransform="matrix(0.999848,0.0174531,0.0174531,-0.999848,7.64809e-05,-0.00876348)"><stop offset="0" style="stop-color:rgb(255,203,3);stop-opacity:1"/><stop offset="1" style="stop-color:rgb(245,131,69);stop-opacity:1"/></linearGradient>
        <linearGradient id="_Linear50" x1="0" y1="0" x2="1" y2="0" gradientUnits="userSpaceOnUse" gradientTransform="matrix(1,5.55112e-17,5.55112e-17,-1,0,0.000723525)"><stop offset="0" style="stop-color:rgb(255,203,3);stop-opacity:1"/><stop offset="1" style="stop-color:rgb(245,131,69);stop-opacity:1"/></linearGradient>
        <linearGradient id="_Linear51" x1="0" y1="0" x2="1" y2="0" gradientUnits="userSpaceOnUse" gradientTransform="matrix(1,0,0,-1,0,0.0646935)"><stop offset="0" style="stop-color:rgb(255,203,3);stop-opacity:1"/><stop offset="1" style="stop-color:rgb(245,131,69);stop-opacity:1"/></linearGradient>
        <linearGradient id="_Linear52" x1="0" y1="0" x2="1" y2="0" gradientUnits="userSpaceOnUse" gradientTransform="matrix(1,-5.55112e-17,-5.55112e-17,-1,0,0.0174855)"><stop offset="0" style="stop-color:rgb(255,203,3);stop-opacity:1"/><stop offset="1" style="stop-color:rgb(245,131,69);stop-opacity:1"/></linearGradient>
        <linearGradient id="_Linear53" x1="0" y1="0" x2="1" y2="0" gradientUnits="userSpaceOnUse" gradientTransform="matrix(1,1.38778e-17,1.38778e-17,-1,0,-0.00018921)"><stop offset="0" style="stop-color:rgb(255,203,3);stop-opacity:1"/><stop offset="1" style="stop-color:rgb(245,131,69);stop-opacity:1"/></linearGradient>
        <linearGradient id="_Linear54" x1="0" y1="0" x2="1" y2="0" gradientUnits="userSpaceOnUse" gradientTransform="matrix(1,-2.77556e-17,-2.77556e-17,-1,0,-1.9314e-05)"><stop offset="0" style="stop-color:rgb(237,22,81);stop-opacity:1"/><stop offset="1" style="stop-color:rgb(149,44,49);stop-opacity:1"/></linearGradient>
        <linearGradient id="_Linear55" x1="0" y1="0" x2="1" y2="0" gradientUnits="userSpaceOnUse" gradientTransform="matrix(1,0,0,-1,0,5.02881e-05)"><stop offset="0" style="stop-color:rgb(255,203,3);stop-opacity:1"/><stop offset="1" style="stop-color:rgb(245,131,69);stop-opacity:1"/></linearGradient>
        <linearGradient id="_Linear56" x1="0" y1="0" x2="1" y2="0" gradientUnits="userSpaceOnUse" gradientTransform="matrix(1,6.93889e-18,6.93889e-18,-1,0,1.62272e-05)"><stop offset="0" style="stop-color:rgb(255,203,3);stop-opacity:1"/><stop offset="1" style="stop-color:rgb(245,131,69);stop-opacity:1"/></linearGradient>
        <linearGradient id="_Linear57" x1="0" y1="0" x2="1" y2="0" gradientUnits="userSpaceOnUse" gradientTransform="matrix(1,-5.55112e-17,-5.55112e-17,-1,0,0.0024316)"><stop offset="0" style="stop-color:rgb(255,203,3);stop-opacity:1"/><stop offset="1" style="stop-color:rgb(245,131,69);stop-opacity:1"/></linearGradient>
        <linearGradient id="_Linear58" x1="0" y1="0" x2="1" y2="0" gradientUnits="userSpaceOnUse" gradientTransform="matrix(1,0,0,-1,0,0.000598439)"><stop offset="0" style="stop-color:rgb(255,203,3);stop-opacity:1"/><stop offset="1" style="stop-color:rgb(245,131,69);stop-opacity:1"/></linearGradient>
        <linearGradient id="_Linear59" x1="0" y1="0" x2="1" y2="0" gradientUnits="userSpaceOnUse" gradientTransform="matrix(1,2.77556e-17,2.77556e-17,-1,0,3.5646e-05)"><stop offset="0" style="stop-color:rgb(255,203,3);stop-opacity:1"/><stop offset="1" style="stop-color:rgb(245,131,69);stop-opacity:1"/></linearGradient>
    </defs>
</svg>
