<?xml version="1.0" encoding="UTF-8" standalone="no"?>
<!DOCTYPE svg PUBLIC "-//W3C//DTD SVG 1.1//EN" "http://www.w3.org/Graphics/SVG/1.1/DTD/svg11.dtd">
<svg width="100%" height="100%" viewBox="0 0 32 29" version="1.1" xmlns="http://www.w3.org/2000/svg" xmlns:xlink="http://www.w3.org/1999/xlink" xml:space="preserve" xmlns:serif="http://www.serif.com/" style="fill-rule:evenodd;clip-rule:evenodd;stroke-linejoin:round;stroke-miterlimit:2;">
    <g>
        <path d="M30.84,7.15L17.68,0.41C17.16,0.14 16.58,0 16,0C15.42,0 14.83,0.14 14.33,0.41L1.16,7.15C0.45,7.52 0,8.24 0,9.04C0,9.84 0.44,10.57 1.16,10.93L3.98,12.38L3.98,12.99C3.98,17.65 7.77,21.44 12.43,21.44L19.55,21.44C19.75,21.44 19.94,21.42 20.13,21.41C20.17,21.8 20.27,22.18 20.45,22.52L20.03,24.47C19.83,25.39 20.06,26.33 20.65,27.05C21.24,27.78 22.11,28.19 23.05,28.19C23.99,28.19 24.86,27.77 25.45,27.04C26.04,26.31 26.26,25.37 26.06,24.46L25.65,22.52C25.65,22.52 25.92,21.86 25.94,21.79C26.11,20.85 25.93,19.9 25.29,19.17C25.37,19.1 25.45,19.03 25.53,18.95C27.12,17.35 28,15.23 27.99,12.98L27.99,12.38L30.85,10.92C31.56,10.55 32,9.83 32,9.03C32,8.23 31.56,7.5 30.84,7.14L30.84,7.15Z" style="fill:white;fill-rule:nonzero;"/>
        <path d="M19.547,20.448L12.427,20.448C8.307,20.448 4.977,17.118 4.977,12.998L4.977,8.328L26.987,8.328L26.987,12.998C26.997,17.118 23.667,20.448 19.547,20.448Z" style="fill:rgb(83,53,102);fill-rule:nonzero;"/>
        <path d="M17.218,1.3L30.388,8.04C31.198,8.46 31.198,9.63 30.388,10.05L17.218,16.79C16.448,17.19 15.548,17.19 14.778,16.79L1.608,10.05C0.798,9.63 0.798,8.46 1.608,8.04L14.778,1.3C15.538,0.9 16.448,0.9 17.218,1.3Z" style="fill:rgb(50,27,65);fill-rule:nonzero;"/>
        <path d="M15.098,8.56C15.298,8.12 15.828,7.95 16.258,8.16L23.448,11.85C23.738,12 23.908,12.29 23.908,12.61L23.908,19.34C24.558,19.66 25.008,20.33 25.008,21.1C25.008,21.27 24.988,21.43 24.948,21.59L24.948,21.61C24.948,21.61 24.928,21.71 24.908,21.75C24.908,21.76 24.898,21.77 24.898,21.78C24.888,21.82 24.868,21.87 24.848,21.91C24.848,21.92 24.838,21.93 24.838,21.93C24.788,22.05 24.708,22.17 24.638,22.26C24.628,22.28 24.618,22.29 24.598,22.31L25.098,24.67C25.378,25.97 24.388,27.19 23.058,27.19C21.728,27.19 20.738,25.97 21.018,24.67L21.518,22.31C21.248,21.98 21.088,21.56 21.088,21.1C21.088,20.83 21.138,20.57 21.238,20.35C21.238,20.34 21.248,20.33 21.258,20.32C21.268,20.29 21.288,20.25 21.308,20.21C21.328,20.17 21.348,20.12 21.388,20.08C21.398,20.07 21.398,20.06 21.408,20.05C21.598,19.75 21.878,19.5 22.198,19.34L22.198,13.12L15.498,9.69C15.078,9.48 14.888,8.96 15.088,8.54L15.098,8.56Z" style="fill:rgb(255,176,46);fill-rule:nonzero;"/>
    </g>
</svg>
