<?xml version="1.0" encoding="UTF-8" standalone="no"?>
<!DOCTYPE svg PUBLIC "-//W3C//DTD SVG 1.1//EN" "http://www.w3.org/Graphics/SVG/1.1/DTD/svg11.dtd">
<svg width="100%" height="100%" viewBox="0 0 32 33" version="1.1" xmlns="http://www.w3.org/2000/svg" xmlns:xlink="http://www.w3.org/1999/xlink" xml:space="preserve" xmlns:serif="http://www.serif.com/" style="fill-rule:evenodd;clip-rule:evenodd;stroke-linejoin:round;stroke-miterlimit:2;">
    <g transform="matrix(1,0,0,1,-4.00781,-8)">
        <g>
            <clipPath id="_clip1">
                <rect x="4" y="8" width="32" height="32"/>
            </clipPath>
            <g clip-path="url(#_clip1)">
                <path d="M9.288,40C8.358,40 7.448,39.76 6.648,39.29C5.018,38.35 4.008,36.59 4.008,34.71L4.008,13.29C3.998,10.37 6.368,8 9.288,8L30.718,8C33.628,8 36.008,10.37 36.008,13.29L36.008,34.72C36.008,36.6 34.998,38.36 33.368,39.3C32.568,39.76 9.298,40.01 9.298,40.01L9.288,40Z" style="fill:white;fill-rule:nonzero;"/>
                <path d="M5,13.29C5,10.92 6.92,9 9.29,9L30.72,9C33.09,9 35.01,10.92 35.01,13.29L35.01,34.72C35.01,36.31 34.15,37.69 32.87,38.43L31.32,37.93C30.25,37.59 29.09,37.68 28.09,38.18L26.44,39.01L23.23,39.01L20.02,37.4L16.81,39.01L13.6,39.01L11.95,38.18C10.95,37.68 9.79,37.59 8.72,37.93L7.17,38.43C5.89,37.69 5.03,36.3 5.03,34.72L5.03,13.29L5,13.29Z" style="fill:rgb(198,233,244);fill-rule:nonzero;"/>
                <path d="M13.57,18.64L13.57,29.35L5,29.35L5,30.42L13.57,30.42L13.57,38.99L14.64,38.99L14.64,30.42L25.35,30.42L25.35,38.99L26.42,38.99L26.42,30.42L34.99,30.42L34.99,29.35L26.42,29.35L26.42,18.64L34.99,18.64L34.99,17.57L26.42,17.57L26.42,9L25.35,9L25.35,17.57L14.64,17.57L14.64,9L13.57,9L13.57,17.57L5,17.57L5,18.64L13.57,18.64ZM14.64,18.64L25.35,18.64L25.35,29.35L14.64,29.35L14.64,18.64Z" style="fill:rgb(149,175,183);fill-rule:nonzero;"/>
                <path d="M9.286,39L13.576,39L13.576,17.8C13.576,17.08 12.986,16.5 12.266,16.5L8.466,16.5C7.736,16.5 7.156,17.08 7.156,17.8L7.156,38.43C7.786,38.79 8.516,39 9.296,39L9.286,39Z" style="fill:rgb(57,218,255);fill-rule:nonzero;"/>
                <path d="M21.909,25.07L18.099,25.07C17.369,25.07 16.789,25.65 16.789,26.37L16.789,39L23.219,39L23.219,26.37C23.219,25.65 22.629,25.07 21.909,25.07Z" style="fill:rgb(41,165,197);fill-rule:nonzero;"/>
                <path d="M26.43,39.001L30.72,39.001C31.5,39.001 32.23,38.791 32.86,38.431L32.86,14.581C32.86,13.861 32.27,13.281 31.55,13.281L27.75,13.281C27.02,13.281 26.44,13.861 26.44,14.581L26.44,39.001L26.43,39.001Z" style="fill:rgb(25,111,140);fill-rule:nonzero;"/>
            </g>
        </g>
    </g>
</svg>
