<?xml version="1.0" encoding="UTF-8" standalone="no"?>
<!DOCTYPE svg PUBLIC "-//W3C//DTD SVG 1.1//EN" "http://www.w3.org/Graphics/SVG/1.1/DTD/svg11.dtd">
<svg width="100%" height="100%" viewBox="0 0 32 26" version="1.1" xmlns="http://www.w3.org/2000/svg" xmlns:xlink="http://www.w3.org/1999/xlink" xml:space="preserve" xmlns:serif="http://www.serif.com/" style="fill-rule:evenodd;clip-rule:evenodd;stroke-linejoin:round;stroke-miterlimit:2;">
    <g transform="matrix(1,0,0,1,-4.01562,-14)">
        <g>
            <clipPath id="_clip1">
                <rect x="4" y="14" width="32" height="25.52"/>
            </clipPath>
            <g clip-path="url(#_clip1)">
                <path d="M29.091,39.52C28.851,39.52 28.611,39.46 28.391,39.35L23.721,36.95C22.521,37.23 21.271,37.37 20.011,37.37C11.811,37.37 6.911,31.56 4.721,28.1C3.781,26.61 3.781,24.75 4.721,23.26C6.901,19.81 11.801,14 20.001,14C28.201,14 33.101,19.81 35.291,23.27C36.231,24.76 36.231,26.62 35.291,28.11C34.371,29.57 32.821,31.65 30.621,33.46L30.621,37.98C30.621,38.83 29.931,39.52 29.091,39.52Z" style="fill:white;fill-rule:nonzero;"/>
                <path d="M28.839,38.46L23.829,35.89C22.649,36.2 21.369,36.38 19.989,36.38C12.159,36.38 7.479,30.64 5.539,27.57C4.799,26.41 4.799,24.96 5.539,23.8C7.489,20.74 12.169,15 19.999,15C27.829,15 32.509,20.74 34.449,23.81C35.189,24.97 35.189,26.42 34.449,27.58C33.509,29.07 31.909,31.2 29.619,32.99L29.619,37.99C29.619,38.39 29.199,38.65 28.839,38.47L28.839,38.46Z" style="fill:rgb(199,242,255);fill-rule:nonzero;"/>
                <path d="M19.967,27.52C20.851,27.52 21.567,26.804 21.567,25.92C21.567,25.037 20.851,24.32 19.967,24.32C19.084,24.32 18.367,25.037 18.367,25.92C18.367,26.804 19.084,27.52 19.967,27.52Z" style="fill:white;fill-rule:nonzero;"/>
                <path d="M25.616,27.52C26.499,27.52 27.216,26.804 27.216,25.92C27.216,25.037 26.499,24.32 25.616,24.32C24.732,24.32 24.016,25.037 24.016,25.92C24.016,26.804 24.732,27.52 25.616,27.52Z" style="fill:white;fill-rule:nonzero;"/>
                <path d="M14.319,27.52C15.202,27.52 15.919,26.804 15.919,25.92C15.919,25.037 15.202,24.32 14.319,24.32C13.435,24.32 12.719,25.037 12.719,25.92C12.719,26.804 13.435,27.52 14.319,27.52Z" style="fill:white;fill-rule:nonzero;"/>
            </g>
        </g>
    </g>
</svg>
