<?xml version="1.0" encoding="UTF-8" standalone="no"?>
<!DOCTYPE svg PUBLIC "-//W3C//DTD SVG 1.1//EN" "http://www.w3.org/Graphics/SVG/1.1/DTD/svg11.dtd">
<svg width="100%" height="100%" viewBox="0 0 32 32" version="1.1" xmlns="http://www.w3.org/2000/svg" xmlns:xlink="http://www.w3.org/1999/xlink" xml:space="preserve" xmlns:serif="http://www.serif.com/" style="fill-rule:evenodd;clip-rule:evenodd;stroke-linejoin:round;stroke-miterlimit:2;">
    <g transform="matrix(1,0,0,1,-4.00781,-8)">
        <g>
            <path d="M16.475,39.99C15.976,39.99 15.506,39.72 15.266,39.28C15.016,38.84 15.016,38.291 15.276,37.861L16.645,35.811L11.127,28.454C10.807,28.034 10.747,27.464 10.987,26.994C11.227,26.514 11.707,26.214 12.247,26.214L13.586,26.214C15.926,26.214 18.115,27.274 19.605,29.113L21.434,31.403C21.604,31.373 21.784,31.333 21.964,31.293C21.984,31.293 22.154,31.253 22.194,31.233L22.294,31.193C24.003,30.553 27.572,29.213 27.572,27.224C27.572,26.124 26.162,26.074 26.102,26.074L25.293,26.074L25.293,27.534C25.293,28.504 24.503,29.293 23.543,29.293C23.273,29.293 22.993,29.223 22.744,29.103L22.613,29.033C21.454,28.444 20.584,27.354 20.244,26.074L12.667,26.074C10.447,25.964 8.288,25.105 6.539,23.645C6.499,23.605 6.459,23.565 6.419,23.525C5.619,22.835 4.949,22.046 4.429,21.176C3.809,20.176 3.879,18.857 4.599,17.917C8.268,13.018 14.506,9.979 20.864,9.979L22.584,9.979C22.814,9.979 23.043,9.979 23.273,9.999C25.093,8.91 27.272,8.21 29.441,8L29.631,8C30.771,8 31.701,8.93 31.701,10.079L31.701,13.558C34.43,16.087 35.989,19.646 35.989,23.385C35.989,30.633 30.311,36.521 23.073,36.781C22.973,36.781 22.834,36.791 22.694,36.791L21.824,38.071C21.024,39.28 19.664,40 18.215,40L16.475,40L16.475,39.99Z" style="fill:white;fill-rule:nonzero;"/>
            <path d="M30.706,10.079C30.706,9.449 30.166,8.949 29.536,9.009C27.397,9.209 25.237,9.939 23.528,11.018C23.218,10.998 22.908,10.988 22.588,10.988L20.859,10.988C14.921,10.988 8.952,13.787 5.384,18.526C4.914,19.146 4.874,20.005 5.274,20.665C5.773,21.505 6.433,22.255 7.193,22.885L21.069,22.885L21.069,24.864C21.069,26.253 21.848,27.533 23.098,28.163L23.198,28.213C23.698,28.473 24.288,28.103 24.288,27.533L24.288,22.875L26.907,22.875C28.146,23.234 29.446,23.444 30.716,23.444L30.716,22.875L30.756,22.875L30.756,29.183L22.638,33.081L22.208,32.272C21.988,32.322 21.758,32.371 21.539,32.411C21.239,32.462 20.929,32.352 20.739,32.112L18.849,29.752C17.56,28.153 15.65,27.223 13.611,27.223L12.271,27.223C11.942,27.223 11.742,27.603 11.952,27.863L17.55,35.331C17.75,35.6 17.76,35.97 17.57,36.26L16.16,38.38C16,38.65 16.19,38.999 16.5,38.999L18.24,38.999C19.349,38.999 20.399,38.44 21.029,37.51L21.938,36.16C22.098,35.92 22.358,35.78 22.648,35.78C22.788,35.78 22.928,35.78 23.068,35.77C29.706,35.531 35.024,30.082 35.024,23.374C35.024,19.626 33.365,16.267 30.736,13.997L30.736,10.079L30.706,10.079Z" style="fill:rgb(155,155,155);fill-rule:nonzero;"/>
            <path d="M27.496,21.774L27.496,19.184C27.496,18.984 27.686,18.834 27.915,18.885C30.805,19.664 32.914,22.323 32.884,25.472C32.864,27.752 31.654,29.861 29.735,31.111L28.715,31.77C26.736,33.06 24.497,33.9 22.167,34.26L22.167,32.28C22.277,32.26 22.367,32.23 22.477,32.2C24.467,31.451 28.565,29.991 28.565,27.232C28.565,25.572 26.936,25.103 26.126,25.083L12.66,25.083C10.681,24.983 8.721,24.173 7.172,22.883L8.681,21.584C10.891,19.684 13.71,18.645 16.609,18.645L23.987,18.645C24.147,18.645 24.276,18.775 24.276,18.934C24.276,20.244 24.926,21.474 26.026,22.213L26.326,22.403C26.816,22.733 27.496,22.373 27.496,21.774Z" style="fill:rgb(211,211,211);fill-rule:nonzero;"/>
            <path d="M18.93,19.713C18.93,20.013 19.17,20.252 19.47,20.252C19.769,20.252 20.009,20.013 20.009,19.713L20.009,17.563C20.009,17.273 19.769,17.023 19.47,17.023C19.17,17.023 18.93,17.263 18.93,17.563L18.93,19.713Z" style="fill:rgb(99,99,99);fill-rule:nonzero;"/>
            <path d="M21.063,19.713C21.063,20.013 21.302,20.252 21.602,20.252C21.902,20.252 22.142,20.013 22.142,19.713L22.142,17.563C22.142,17.263 21.902,17.023 21.602,17.023C21.302,17.023 21.063,17.263 21.063,17.563L21.063,19.713Z" style="fill:rgb(99,99,99);fill-rule:nonzero;"/>
            <path d="M14.125,19.714C14.715,19.714 15.195,19.234 15.195,18.644C15.195,18.054 14.715,17.574 14.125,17.574C13.535,17.574 13.055,18.054 13.055,18.644C13.055,19.234 13.535,19.714 14.125,19.714Z" style="fill:rgb(28,28,28);fill-rule:nonzero;"/>
        </g>
    </g>
</svg>
