<?xml version="1.0" encoding="UTF-8" standalone="no"?>
<!DOCTYPE svg PUBLIC "-//W3C//DTD SVG 1.1//EN" "http://www.w3.org/Graphics/SVG/1.1/DTD/svg11.dtd">
<svg width="100%" height="100%" viewBox="0 0 32 32" version="1.1" xmlns="http://www.w3.org/2000/svg" xmlns:xlink="http://www.w3.org/1999/xlink" xml:space="preserve" xmlns:serif="http://www.serif.com/" style="fill-rule:evenodd;clip-rule:evenodd;stroke-linejoin:round;stroke-miterlimit:2;">
    <g>
        <path d="M32,26L32,6C32,2.686 29.314,0 26,0L6,0C2.686,0 0,2.686 0,6L0,26C0,29.314 2.686,32 6,32L26,32C29.314,32 32,29.314 32,26Z" style="fill:white;fill-rule:nonzero;"/>
        <path d="M26,1L6,1C3.239,1 1,3.239 1,6L1,26C1,28.761 3.239,31 6,31L26,31C28.761,31 31,28.761 31,26L31,6C31,3.239 28.761,1 26,1Z" style="fill:rgb(59,210,66);fill-rule:nonzero;"/>
        <path d="M13.243,23.001C12.863,23.001 12.473,22.861 12.183,22.571L6.443,16.931C5.863,16.361 5.863,15.421 6.443,14.851C7.023,14.281 7.973,14.281 8.563,14.851L13.253,19.451L23.453,9.431C24.033,8.861 24.983,8.861 25.573,9.431C26.153,10.001 26.153,10.941 25.573,11.511L14.313,22.571C14.023,22.861 13.633,23.001 13.253,23.001L13.243,23.001Z" style="fill:rgb(244,244,244);fill-rule:nonzero;"/>
    </g>
</svg>
