<?xml version="1.0" encoding="UTF-8" standalone="no"?>
<!DOCTYPE svg PUBLIC "-//W3C//DTD SVG 1.1//EN" "http://www.w3.org/Graphics/SVG/1.1/DTD/svg11.dtd">
<svg width="100%" height="100%" viewBox="0 0 32 29" version="1.1" xmlns="http://www.w3.org/2000/svg" xmlns:xlink="http://www.w3.org/1999/xlink" xml:space="preserve" xmlns:serif="http://www.serif.com/" style="fill-rule:evenodd;clip-rule:evenodd;stroke-linejoin:round;stroke-miterlimit:2;">
    <g transform="matrix(1,0,0,1,-4.00781,-11)">
        <g>
            <clipPath id="_clip1">
                <rect x="4" y="11" width="32" height="28.82"/>
            </clipPath>
            <g clip-path="url(#_clip1)">
                <path d="M13.83,39.82C13.44,39.82 13.08,39.65 12.84,39.35C12.6,39.06 12.51,38.68 12.58,38.31C12.83,37.09 13.9,36.21 15.14,36.21L15.52,36.21L15.52,35.6C13.11,34.48 11.18,32.47 10.16,30.04C9.5,30.22 8.82,30.32 8.13,30.33L8.03,30.33C7.11,30.33 6.22,30.18 5.37,29.87C4.71,29.64 4.21,29.09 4.06,28.4C3.9,27.7 4.11,26.98 4.62,26.47L11.38,19.71C11.42,19.65 11.45,19.61 11.48,19.57C11.49,15.09 14.8,11.44 19.21,11.04C19.46,11.02 19.73,11 20,11C20.27,11 20.54,11.01 20.79,11.04C25.19,11.45 28.51,15.09 28.51,19.51L28.6,19.67L35.39,26.47C35.9,26.98 36.11,27.7 35.95,28.4C35.79,29.09 35.3,29.64 34.63,29.88C33.79,30.18 32.9,30.33 31.98,30.33L31.88,30.33C31.19,30.33 30.5,30.22 29.84,30.04C28.82,32.47 26.9,34.47 24.5,35.59L24.5,36.2L24.87,36.2C26.12,36.2 27.2,37.09 27.43,38.31C27.5,38.67 27.41,39.05 27.17,39.34C26.93,39.64 26.57,39.81 26.18,39.81L13.84,39.81L13.83,39.82Z" style="fill:white;fill-rule:nonzero;"/>
                <path d="M18.121,37.21L21.881,37.21L21.861,30.77L23.471,30.77L23.491,37.21L24.851,37.21C25.631,37.21 26.291,37.77 26.431,38.51C26.461,38.67 26.331,38.82 26.161,38.82L13.821,38.82C13.651,38.82 13.521,38.67 13.551,38.51C13.701,37.77 14.341,37.21 15.131,37.21L16.511,37.21L16.491,30.77L18.101,30.77L18.121,37.21Z" style="fill:rgb(255,130,45);fill-rule:nonzero;"/>
                <path d="M15.148,22.301C15.158,20.881 14.748,19.551 14.058,18.441L5.318,27.171C4.758,27.731 4.968,28.671 5.708,28.931C6.458,29.201 7.278,29.341 8.118,29.331C11.958,29.291 15.098,26.151 15.148,22.301Z" style="fill:rgb(249,194,60);fill-rule:nonzero;"/>
                <path d="M24.846,22.311C24.836,20.881 25.236,19.551 25.936,18.441L34.666,27.181C35.226,27.741 35.016,28.681 34.276,28.941C33.526,29.211 32.706,29.351 31.866,29.341C28.026,29.301 24.886,26.161 24.836,22.311L24.846,22.311Z" style="fill:rgb(249,194,60);fill-rule:nonzero;"/>
                <path d="M27.722,20.16C27.582,19.97 27.512,19.74 27.512,19.51C27.512,15.59 24.522,12.39 20.702,12.03C20.472,12.01 20.242,12 20.002,12C19.762,12 19.532,12.01 19.302,12.03C15.482,12.38 12.492,15.6 12.492,19.51C12.492,19.75 12.412,19.97 12.282,20.16C11.072,21.77 10.352,23.78 10.352,25.94C10.352,31.27 14.672,35.59 20.002,35.59C25.332,35.59 29.652,31.27 29.652,25.94C29.652,23.77 28.932,21.77 27.722,20.16Z" style="fill:rgb(252,213,63);fill-rule:nonzero;"/>
                <path d="M16.791,17.899C16.791,18.199 16.551,18.439 16.251,18.439C15.951,18.439 15.711,18.199 15.711,17.899C15.711,17.599 15.951,17.359 16.251,17.359C16.551,17.359 16.791,17.599 16.791,17.899Z" style="fill:rgb(33,33,33);fill-rule:nonzero;"/>
                <path d="M24.299,17.899C24.299,18.199 24.059,18.439 23.759,18.439C23.459,18.439 23.219,18.199 23.219,17.899C23.219,17.599 23.459,17.359 23.759,17.359C24.059,17.359 24.299,17.599 24.299,17.899Z" style="fill:rgb(33,33,33);fill-rule:nonzero;"/>
                <path d="M19.986,17.359C18.806,17.359 17.836,18.329 17.836,19.509L22.126,19.509C22.126,18.329 21.156,17.359 19.976,17.359L19.986,17.359Z" style="fill:rgb(255,130,45);fill-rule:nonzero;"/>
            </g>
        </g>
    </g>
</svg>
