<?xml version="1.0" encoding="UTF-8" standalone="no"?>
<!DOCTYPE svg PUBLIC "-//W3C//DTD SVG 1.1//EN" "http://www.w3.org/Graphics/SVG/1.1/DTD/svg11.dtd">
<svg width="100%" height="100%" viewBox="0 0 29 31" version="1.1" xmlns="http://www.w3.org/2000/svg" xmlns:xlink="http://www.w3.org/1999/xlink" xml:space="preserve" xmlns:serif="http://www.serif.com/" style="fill-rule:evenodd;clip-rule:evenodd;stroke-linejoin:round;stroke-miterlimit:2;">
    <g transform="matrix(1,0,0,1,-6,-10)">
        <clipPath id="_clip1">
            <rect x="0" y="0" width="40" height="40"/>
        </clipPath>
        <g clip-path="url(#_clip1)">
            <g>
                <clipPath id="_clip2">
                    <rect x="6" y="10" width="28.4" height="30.24"/>
                </clipPath>
                <g clip-path="url(#_clip2)">
                    <path d="M34.4,24.2C34.4,15.57 28.82,10 20.2,10C11.58,10 6,15.57 6,24.2C6,32.21 10.81,37.58 18.41,38.31C19.32,39.48 20.73,40.24 22.32,40.24L22.82,40.24C25.06,40.24 26.95,38.74 27.57,36.7C31.86,34.43 34.4,30.01 34.4,24.2Z" style="fill:white;fill-rule:nonzero;"/>
                    <path d="M20.2,37.4C29,37.4 33.4,31.49 33.4,24.2C33.4,16.91 29,11 20.2,11C11.4,11 7,16.91 7,24.2C7,31.49 11.4,37.4 20.2,37.4Z" style="fill:rgb(249,175,66);fill-rule:nonzero;"/>
                    <path d="M14.939,24.409C17.129,24.409 18.909,22.629 18.909,20.439C18.909,18.249 17.129,16.469 14.939,16.469C12.749,16.469 10.969,18.249 10.969,20.439C10.969,22.629 12.749,24.409 14.939,24.409Z" style="fill:white;fill-rule:nonzero;"/>
                    <path d="M25.453,24.481C27.663,24.481 29.453,22.691 29.453,20.481C29.453,18.27 27.663,16.481 25.453,16.481C23.243,16.481 21.453,18.27 21.453,20.481C21.453,22.691 23.243,24.481 25.453,24.481Z" style="fill:white;fill-rule:nonzero;"/>
                    <path d="M18.308,20.432C18.308,21.992 17.038,23.262 15.478,23.262C13.918,23.262 12.648,21.992 12.648,20.432C12.648,18.872 13.918,17.602 15.478,17.602C17.038,17.602 18.308,18.872 18.308,20.432Z" style="fill:rgb(64,42,50);fill-rule:nonzero;"/>
                    <path d="M27.738,20.432C27.738,21.992 26.468,23.262 24.908,23.262C23.348,23.262 22.078,21.992 22.078,20.432C22.078,18.872 23.348,17.602 24.908,17.602C26.468,17.602 27.738,18.872 27.738,20.432Z" style="fill:rgb(64,42,50);fill-rule:nonzero;"/>
                    <path d="M17.37,27.969C16.85,27.969 16.43,28.389 16.43,28.909C16.43,29.429 16.85,29.849 17.37,29.849L23.03,29.849C23.55,29.849 23.97,29.429 23.97,28.909C23.97,28.389 23.55,27.969 23.03,27.969L17.37,27.969Z" style="fill:rgb(64,42,50);fill-rule:nonzero;"/>
                    <path d="M22.83,29.869C22.1,29.869 22.1,29.139 22.1,29.139L22.1,26.089C22.1,25.049 21.25,24.199 20.21,24.199C19.17,24.199 18.32,25.049 18.32,26.089L18.32,35.229C18.32,37.439 20.11,39.219 22.31,39.219L22.81,39.219C25.02,39.219 26.8,37.429 26.8,35.229L26.8,33.839C26.8,31.639 25.19,29.849 22.82,29.849L22.83,29.869Z" style="fill:rgb(255,130,45);fill-rule:nonzero;"/>
                </g>
            </g>
        </g>
    </g>
</svg>
