<?xml version="1.0" encoding="UTF-8" standalone="no"?>
<!DOCTYPE svg PUBLIC "-//W3C//DTD SVG 1.1//EN" "http://www.w3.org/Graphics/SVG/1.1/DTD/svg11.dtd">
<svg width="100%" height="100%" viewBox="0 0 24 16" version="1.1" xmlns="http://www.w3.org/2000/svg" xmlns:xlink="http://www.w3.org/1999/xlink" xml:space="preserve" xmlns:serif="http://www.serif.com/" style="fill-rule:evenodd;clip-rule:evenodd;stroke-linejoin:round;stroke-miterlimit:2;">
    <g transform="matrix(1,0,0,1,-4,-8)">
        <path d="M5.333,24C4.956,24 4.639,23.872 4.383,23.617C4.128,23.361 4,23.044 4,22.667C4,22.289 4.128,21.972 4.383,21.717C4.639,21.461 4.956,21.333 5.333,21.333L26.667,21.333C27.044,21.333 27.361,21.461 27.617,21.717C27.872,21.972 28,22.289 28,22.667C28,23.044 27.872,23.361 27.617,23.617C27.361,23.872 27.044,24 26.667,24L5.333,24ZM5.333,17.333C4.956,17.333 4.639,17.206 4.383,16.95C4.128,16.694 4,16.378 4,16C4,15.622 4.128,15.306 4.383,15.05C4.639,14.794 4.956,14.667 5.333,14.667L26.667,14.667C27.044,14.667 27.361,14.794 27.617,15.05C27.872,15.306 28,15.622 28,16C28,16.378 27.872,16.694 27.617,16.95C27.361,17.206 27.044,17.333 26.667,17.333L5.333,17.333ZM5.333,10.667C4.956,10.667 4.639,10.539 4.383,10.283C4.128,10.028 4,9.711 4,9.333C4,8.956 4.128,8.639 4.383,8.383C4.639,8.128 4.956,8 5.333,8L26.667,8C27.044,8 27.361,8.128 27.617,8.383C27.872,8.639 28,8.956 28,9.333C28,9.711 27.872,10.028 27.617,10.283C27.361,10.539 27.044,10.667 26.667,10.667L5.333,10.667Z" style="fill:rgb(248,247,229);fill-rule:nonzero;"/>
    </g>
</svg>
