<?xml version="1.0" encoding="UTF-8" standalone="no"?>
<!DOCTYPE svg PUBLIC "-//W3C//DTD SVG 1.1//EN" "http://www.w3.org/Graphics/SVG/1.1/DTD/svg11.dtd">
<svg width="100%" height="100%" viewBox="0 0 1280 1280" version="1.1" xmlns="http://www.w3.org/2000/svg" xmlns:xlink="http://www.w3.org/1999/xlink" xml:space="preserve" xmlns:serif="http://www.serif.com/" style="fill-rule:evenodd;clip-rule:evenodd;stroke-linejoin:round;stroke-miterlimit:2;">
    <g transform="matrix(0.1,0,0,-0.1,0,1280)">
        <path d="M6145,12794C5929,12781 5754,12766 5615,12749C4620,12627 3688,12282 2855,11727C1948,11123 1207,10294 709,9325C314,8556 94,7776 19,6875C2,6682 2,6118 19,5925C94,5024 314,4244 709,3475C1319,2288 2288,1319 3475,709C4244,314 5024,94 5925,19C6118,2 6682,2 6875,19C7776,94 8556,314 9325,709C10512,1319 11481,2288 12091,3475C12486,4244 12706,5024 12781,5925C12798,6118 12798,6682 12781,6875C12706,7776 12486,8556 12091,9325C11481,10512 10512,11481 9325,12091C8572,12478 7794,12701 6935,12775C6771,12790 6269,12802 6145,12794ZM6884,12015C8194,11903 9403,11344 10348,10416C11328,9453 11909,8206 12021,6825C12036,6632 12036,6168 12021,5975C11911,4625 11357,3408 10416,2452C9451,1471 8210,893 6825,779C6632,763 6168,763 5975,779C4589,893 3347,1471 2384,2451C1441,3412 891,4618 779,5975C763,6168 763,6632 779,6825C894,8213 1472,9453 2451,10416C3329,11278 4439,11824 5640,11984C6056,12039 6472,12050 6884,12015Z" style="fill:white;fill-rule:nonzero;"/>
        <path d="M5060,10738C5006,10723 4381,10359 4344,10321C4261,10237 4242,10114 4294,10012C4348,9907 5443,8014 5469,7980C5527,7907 5655,7864 5745,7889C5791,7901 6407,8254 6460,8298C6528,8355 6565,8477 6541,8565C6535,8587 6267,9062 5945,9620C5471,10442 5351,10643 5314,10677C5246,10741 5150,10764 5060,10738Z" style="fill:white;fill-rule:nonzero;"/>
        <path d="M3942,9867C3728,9737 3621,9659 3507,9550C3173,9231 3084,8914 3141,8255C3223,7313 3690,6054 4390,4890C5047,3798 5836,2894 6565,2398C6940,2143 7173,2055 7475,2055C7677,2055 7845,2095 8081,2200C8191,2250 8446,2385 8455,2399C8458,2405 7318,4391 7257,4487C7251,4497 7240,4495 7210,4480C7141,4445 7027,4411 6938,4400C6611,4360 6224,4548 5865,4922C5421,5384 5069,6065 4960,6675C4879,7123 4940,7484 5135,7713C5168,7752 5279,7845 5301,7852C5309,7855 5084,8253 4711,8901C4379,9475 4105,9948 4101,9952C4097,9957 4026,9918 3942,9867Z" style="fill:white;fill-rule:nonzero;"/>
        <path d="M8220,5330C8165,5323 8174,5327 7807,5116C7643,5022 7493,4930 7474,4912C7402,4843 7372,4727 7402,4639C7419,4589 8557,2613 8599,2561C8670,2471 8811,2444 8925,2499C9011,2540 9539,2846 9580,2879C9636,2924 9670,2999 9670,3081C9670,3118 9665,3162 9658,3177C9624,3257 8483,5220 8452,5252C8391,5316 8311,5343 8220,5330Z" style="fill:white;fill-rule:nonzero;"/>
    </g>
</svg>
