<?xml version="1.0" encoding="UTF-8" standalone="no"?>
<!DOCTYPE svg PUBLIC "-//W3C//DTD SVG 1.1//EN" "http://www.w3.org/Graphics/SVG/1.1/DTD/svg11.dtd">
<svg width="100%" height="100%" viewBox="0 0 30 40" version="1.1" xmlns="http://www.w3.org/2000/svg" xmlns:xlink="http://www.w3.org/1999/xlink" xml:space="preserve" xmlns:serif="http://www.serif.com/" style="fill-rule:evenodd;clip-rule:evenodd;stroke-linejoin:round;stroke-miterlimit:2;">
    <g transform="matrix(1,0,0,1,-0.016,0)">
        <path d="M8.522,18.337C9.171,18.337 9.781,18.081 10.24,17.622C10.903,16.96 11.126,16.003 10.817,15.104C10.555,14.343 9.899,13.786 9.132,13.543C7.84,13.143 6.889,12.795 6.148,12.468C6.148,12.468 6.135,12.468 6.128,12.461C5.42,12.146 5.315,11.189 5.918,10.703C6.285,10.415 6.679,10.152 6.987,9.956C9.532,8.375 14.044,6.644 20.392,4.801C21.409,4.506 22.196,3.627 22.249,2.571C22.321,1.121 21.16,0 19.815,0C19.586,0 19.356,0.033 19.14,0.098C12.227,2.099 7.413,3.968 4.436,5.817C1.458,7.667 0.016,9.72 0.016,12.107C0.016,15.058 3.144,16.455 4.174,16.914C5.118,17.334 6.272,17.754 7.8,18.226C8.037,18.298 8.279,18.337 8.522,18.337Z" style="fill-rule:nonzero;"/>
    </g>
    <g transform="matrix(1,0,0,1,-0.016,0)">
        <path d="M24.492,9.871C24.033,9.412 23.423,9.156 22.774,9.156C22.125,9.156 21.515,9.412 21.055,9.871L4.043,26.877C3.584,27.336 3.328,27.946 3.328,28.595C3.328,29.245 3.584,29.855 4.043,30.32C4.502,30.779 5.112,31.035 5.761,31.035C6.411,31.035 7.021,30.779 7.48,30.32L24.492,13.308C25.443,12.357 25.443,10.816 24.492,9.865L24.492,9.871Z" style="fill-rule:nonzero;"/>
    </g>
    <g transform="matrix(1,0,0,1,-0.016,0)">
        <path d="M27.547,24.506C26.852,23.824 25.908,23.214 24.668,22.637C23.855,22.257 22.891,21.883 21.723,21.496C21.474,21.41 21.212,21.371 20.949,21.371C20.307,21.371 19.684,21.633 19.231,22.086C18.575,22.742 18.346,23.699 18.647,24.591C18.897,25.339 19.533,25.896 20.274,26.146C21.218,26.467 21.986,26.762 22.615,27.051C22.786,27.129 22.943,27.208 23.081,27.28C23.743,27.628 23.835,28.533 23.258,29.005C22.733,29.431 21.927,29.969 20.68,30.612C18.005,31.996 14.457,33.281 11.013,34.527L10.817,34.599C10.207,34.822 9.61,35.039 9.033,35.249C8.547,35.426 8.108,35.727 7.813,36.154C7.341,36.836 7.242,37.662 7.524,38.416C7.878,39.361 8.797,39.997 9.8,39.997C10.089,39.997 10.371,39.944 10.64,39.846C11.295,39.603 11.971,39.361 12.679,39.105C16.253,37.806 19.953,36.469 22.91,34.94C25.507,33.603 28.97,31.432 29.082,28.061C29.128,26.762 28.596,25.536 27.547,24.513L27.547,24.506Z" style="fill-rule:nonzero;"/>
    </g>
</svg>
