<?xml version="1.0" encoding="UTF-8" standalone="no"?>
<!DOCTYPE svg PUBLIC "-//W3C//DTD SVG 1.1//EN" "http://www.w3.org/Graphics/SVG/1.1/DTD/svg11.dtd">
<svg width="100%" height="100%" viewBox="0 0 144 144" version="1.1" xmlns="http://www.w3.org/2000/svg" xmlns:xlink="http://www.w3.org/1999/xlink" xml:space="preserve" xmlns:serif="http://www.serif.com/" style="fill-rule:evenodd;clip-rule:evenodd;stroke-linejoin:round;stroke-miterlimit:2;">
    <g transform="matrix(1,0,0,1,-0.0113135,-0.0152197)">
        <g>
            <clipPath id="_clip1">
                <rect x="0" y="0" width="144" height="144"/>
            </clipPath>
            <g clip-path="url(#_clip1)">
                <path d="M64.052,143.793C64.431,143.884 64.796,143.936 65.162,143.975C65.907,144.041 66.6,143.975 67.24,143.779C67.867,143.583 68.39,143.27 68.782,142.839C69.174,142.407 69.396,141.885 69.461,141.258C69.514,140.67 69.409,140.16 69.148,139.729C68.887,139.311 68.547,138.945 68.129,138.631C67.71,138.317 67.279,138.03 66.848,137.782C66.417,137.533 66.038,137.298 65.711,137.089C65.385,136.88 65.123,136.645 64.94,136.397C64.757,136.148 64.679,135.861 64.705,135.547C64.731,135.312 64.81,135.09 64.966,134.855C65.123,134.619 65.358,134.436 65.672,134.306C66.09,134.345 66.521,134.423 66.966,134.567C67.279,134.659 67.58,134.802 67.867,134.972L68.429,137.22L69.553,137.324C69.644,137.037 69.723,136.71 69.801,136.344C69.88,135.978 69.945,135.613 69.984,135.273C70.023,134.933 70.049,134.659 70.063,134.45C69.762,134.201 69.396,133.992 68.978,133.796C68.56,133.613 68.129,133.47 67.671,133.352C67.214,133.234 66.809,133.169 66.43,133.13C65.737,133.064 65.084,133.13 64.483,133.313C63.882,133.496 63.372,133.809 62.98,134.254C62.575,134.685 62.353,135.247 62.288,135.913C62.235,136.54 62.327,137.063 62.575,137.494C62.823,137.925 63.163,138.304 63.581,138.618C63.999,138.932 64.431,139.219 64.901,139.48C65.319,139.729 65.711,139.964 66.051,140.173C66.404,140.382 66.678,140.617 66.874,140.839C67.083,141.075 67.162,141.336 67.149,141.636C67.122,141.859 67.044,142.094 66.9,142.316C66.757,142.538 66.561,142.708 66.312,142.826C65.711,142.799 65.123,142.656 64.574,142.421C64.431,142.368 64.313,142.264 64.182,142.185L63.882,140.395L62.627,140.277C62.523,140.591 62.444,140.918 62.379,141.258C62.314,141.597 62.261,141.937 62.209,142.264C62.17,142.59 62.131,142.878 62.105,143.126C62.353,143.257 62.64,143.374 62.98,143.492C63.32,143.61 63.66,143.701 64.039,143.793L64.052,143.793Z" style="fill-rule:nonzero;"/>
                <path d="M59.158,132.252C58.675,131.978 58.139,131.808 57.525,131.756L55.094,132.409L55.251,133.245C55.578,133.18 55.891,133.141 56.179,133.128C56.466,133.128 56.741,133.141 57.002,133.193C57.486,133.298 57.865,133.507 58.152,133.82C58.44,134.134 58.623,134.513 58.701,134.957C58.779,135.414 58.766,135.898 58.649,136.421C58.557,136.813 58.413,137.192 58.191,137.584C57.982,137.976 57.682,138.302 57.316,138.564C56.989,138.368 56.689,138.093 56.44,137.753C56.179,137.414 55.957,137.022 55.774,136.577L53.853,137.348C53.931,137.766 54.088,138.119 54.323,138.433C54.559,138.747 54.833,138.995 55.173,139.204C55.513,139.413 55.878,139.557 56.283,139.648C56.989,139.805 57.656,139.779 58.309,139.583C58.949,139.374 59.511,139.021 59.968,138.498C60.426,137.976 60.739,137.322 60.922,136.525C61.053,135.911 61.079,135.336 60.975,134.787C60.87,134.238 60.674,133.755 60.36,133.324C60.047,132.892 59.668,132.54 59.184,132.265L59.158,132.252Z" style="fill-rule:nonzero;"/>
                <path d="M48.386,133.521L47.197,133.103C47.054,133.285 46.91,133.495 46.753,133.73C46.596,133.965 46.453,134.213 46.322,134.475C46.191,134.736 46.074,134.984 45.969,135.232C45.865,135.481 45.773,135.69 45.721,135.886C45.891,136.16 46.139,136.369 46.453,136.539C46.779,136.696 47.132,136.774 47.524,136.761L49.576,135.69L49.184,136.801L49.68,137.767C50.137,137.898 50.608,138.003 51.091,138.081C51.588,138.16 52.045,138.186 52.49,138.173L52.633,137.428L51.575,136.905L53.326,131.926L53.587,131.926C53.953,131.926 54.28,131.9 54.58,131.835L54.711,131.312L53.195,130.777L51.496,130.175L49.968,129.64L49.654,130.345C49.785,130.489 49.941,130.633 50.137,130.79C50.333,130.946 50.53,131.09 50.739,131.221C50.856,131.286 50.948,131.352 51.052,131.404L49.981,134.462C49.981,134.462 49.955,134.475 49.941,134.488C49.589,134.71 49.262,134.88 48.948,135.01C48.635,135.141 48.321,135.232 48.021,135.298L48.347,133.521L48.386,133.521Z" style="fill-rule:nonzero;"/>
                <path d="M46.795,130.11C46.743,129.391 46.534,128.764 46.155,128.215C45.776,127.666 45.28,127.235 44.679,126.935C44.078,126.634 43.463,126.503 42.823,126.53C42.183,126.556 41.582,126.765 41.007,127.144C40.432,127.523 39.961,128.111 39.569,128.882C39.177,129.666 39.007,130.41 39.047,131.103C39.086,131.796 39.295,132.41 39.661,132.945C40.027,133.481 40.51,133.899 41.111,134.2C41.712,134.5 42.34,134.644 42.993,134.618C43.646,134.605 44.274,134.409 44.848,134.03C45.437,133.651 45.92,133.089 46.299,132.318C46.678,131.56 46.848,130.829 46.795,130.11ZM44.679,129.966C44.587,130.397 44.43,130.842 44.195,131.299C43.973,131.743 43.738,132.135 43.463,132.475C43.189,132.815 42.914,133.063 42.64,133.207C42.523,133.233 42.392,133.233 42.235,133.207C42.091,133.181 41.935,133.128 41.804,133.063C41.477,132.906 41.268,132.645 41.19,132.305C41.111,131.965 41.124,131.573 41.229,131.129C41.333,130.685 41.503,130.228 41.739,129.757C41.882,129.483 42.039,129.195 42.222,128.921C42.405,128.646 42.601,128.411 42.81,128.228C43.019,128.045 43.241,127.928 43.49,127.888C43.672,127.915 43.842,127.98 43.999,128.058C44.352,128.228 44.574,128.49 44.666,128.829C44.77,129.169 44.77,129.561 44.666,129.992L44.679,129.966Z" style="fill-rule:nonzero;"/>
                <path d="M39.385,125.575C39.477,125.601 39.568,125.627 39.673,125.653C40.026,125.731 40.352,125.784 40.666,125.797L40.914,125.326L39.568,124.464L38.915,124.046L37.112,122.896L36.641,123.51C36.772,123.771 36.955,124.059 37.203,124.333C37.255,124.399 37.308,124.438 37.347,124.49L32.185,132.605L32.473,133.624C32.878,133.859 33.309,134.068 33.779,134.251C34.25,134.434 34.694,134.565 35.125,134.656L35.452,133.951L34.524,133.206L39.385,125.562L39.385,125.575Z" style="fill-rule:nonzero;"/>
                <path d="M34.943,122.595C35.034,122.635 35.125,122.661 35.217,122.7C35.57,122.818 35.883,122.883 36.197,122.922L36.484,122.465L35.57,121.772L35.387,121.629L35.217,121.498L34.603,121.027L32.904,119.734L32.381,120.309C32.486,120.583 32.643,120.871 32.865,121.184C32.917,121.25 32.956,121.289 32.995,121.354L27.168,128.998L27.363,130.031C27.756,130.305 28.161,130.54 28.605,130.762C29.049,130.985 29.48,131.154 29.912,131.285L30.291,130.606L29.428,129.795L34.916,122.595L34.943,122.595Z" style="fill-rule:nonzero;"/>
                <path d="M27.885,115.54C27.793,114.913 27.506,114.325 27.009,113.802L24.866,113.345C24.971,113.123 25.049,112.901 25.075,112.665C25.101,112.404 25.101,112.156 25.049,111.934C25.01,111.711 24.918,111.528 24.801,111.398L22.775,110.653L22.344,111.228C22.462,111.319 22.566,111.411 22.671,111.489C22.775,111.568 22.854,111.646 22.932,111.738C23.011,111.816 23.05,111.92 23.05,112.012C23.05,112.116 23.011,112.195 22.932,112.26L16.176,118.376L16.176,119.434C16.516,119.774 16.882,120.087 17.274,120.388C17.666,120.689 18.071,120.937 18.463,121.133L18.96,120.532L18.267,119.578L20.097,117.918C20.253,118.206 20.423,118.493 20.672,118.755C21.09,119.225 21.547,119.565 22.044,119.787C22.54,120.009 23.05,120.14 23.572,120.153C24.095,120.166 24.605,120.074 25.101,119.891C25.598,119.708 26.055,119.421 26.46,119.042C26.983,118.572 27.362,118.023 27.623,117.409C27.872,116.795 27.963,116.167 27.872,115.527L27.885,115.54ZM25.454,116.481C25.271,116.834 25.023,117.147 24.696,117.448C24.33,117.775 23.925,118.036 23.481,118.219C23.037,118.402 22.606,118.48 22.187,118.428C21.9,118.167 21.665,117.866 21.508,117.539C21.403,117.317 21.325,117.095 21.273,116.873L24.474,113.972C24.474,113.972 24.5,113.972 24.513,113.985C24.866,114.155 25.127,114.338 25.31,114.547C25.559,114.821 25.689,115.122 25.702,115.462C25.715,115.801 25.637,116.141 25.454,116.494L25.454,116.481Z" style="fill-rule:nonzero;"/>
                <path d="M20.19,112.169C20.882,111.685 21.392,111.123 21.692,110.483C21.993,109.843 22.11,109.176 22.045,108.51C21.98,107.844 21.758,107.229 21.366,106.668C20.987,106.119 20.516,105.701 19.941,105.413C19.366,105.126 18.739,105.008 18.06,105.073C17.38,105.126 16.674,105.4 15.956,105.897C15.237,106.393 14.714,106.955 14.414,107.582C14.113,108.209 13.983,108.85 14.048,109.49C14.113,110.143 14.335,110.731 14.714,111.293C15.093,111.842 15.577,112.273 16.152,112.574C16.74,112.874 17.367,113.005 18.06,112.966C18.752,112.927 19.458,112.652 20.163,112.169L20.19,112.169ZM16.557,111.163C16.439,111.123 16.322,111.058 16.204,110.967C16.086,110.875 15.982,110.758 15.89,110.627C15.681,110.326 15.629,110 15.721,109.66C15.812,109.32 16.021,108.98 16.322,108.654C16.622,108.314 17.001,108 17.432,107.7C17.694,107.517 17.968,107.36 18.256,107.203C18.556,107.046 18.831,106.942 19.105,106.877C19.379,106.811 19.628,106.824 19.863,106.903C20.007,107.02 20.124,107.151 20.229,107.295C20.451,107.608 20.516,107.948 20.438,108.288C20.359,108.641 20.176,108.967 19.889,109.307C19.601,109.647 19.236,109.947 18.817,110.248C18.412,110.522 18.007,110.744 17.602,110.914C17.197,111.084 16.844,111.163 16.531,111.15L16.557,111.163Z" style="fill-rule:nonzero;"/>
                <path d="M17.76,101.427C17.708,101.218 17.63,100.983 17.499,100.722C17.368,100.46 17.251,100.212 17.094,99.964C16.937,99.715 16.793,99.519 16.637,99.363L13.906,99.467L15.892,97.494C15.839,97.298 15.761,97.076 15.657,96.815C15.539,96.566 15.408,96.318 15.265,96.07C15.121,95.821 14.964,95.625 14.794,95.456L8.234,96.266C8.234,96.266 8.117,96.161 8.065,96.109C7.895,95.965 7.725,95.834 7.542,95.704L6.928,96.043L7.294,96.815L7.463,97.167L7.803,97.873L8.548,99.441L9.293,99.101L9.293,98.239L13.71,96.958L13.775,97.089L12.52,97.977L9.319,100.891L10.495,102.865L12.52,100.852L15.461,100.63L15.526,100.774L14.271,101.728L11.828,103.936C11.828,103.936 11.802,103.91 11.776,103.897C11.606,103.753 11.423,103.609 11.253,103.479L10.639,103.832L11.031,104.655L11.501,105.661L12.272,107.281L13.017,106.942L13.017,105.975L17.773,101.388L17.76,101.427Z" style="fill-rule:nonzero;"/>
                <path d="M7.277,93.105L12.373,91.733C12.425,91.812 12.451,91.864 12.504,91.942C12.713,92.243 12.922,92.491 13.144,92.7L13.641,92.517L13.353,91.459L13.053,90.335L12.53,88.401L11.772,88.545C11.681,88.832 11.628,89.133 11.615,89.473L11.615,89.564L7.447,90.688C7.251,90.505 7.068,90.322 6.924,90.126C6.741,89.891 6.611,89.669 6.558,89.46C6.467,89.146 6.519,88.872 6.702,88.623C6.898,88.375 7.251,88.179 7.76,88.048L11.197,87.121C11.406,87.421 11.615,87.669 11.837,87.878L12.334,87.696L11.916,86.154L11.759,85.579L11.236,83.645L10.478,83.788C10.387,84.076 10.348,84.403 10.335,84.795L10.335,84.978L7.016,85.879C6.611,85.984 6.297,86.088 6.049,86.167C5.813,86.245 5.63,86.324 5.487,86.389C5.356,86.454 5.252,86.519 5.186,86.598C4.99,86.807 4.846,87.029 4.755,87.29C4.664,87.552 4.611,87.8 4.585,88.061C4.572,88.31 4.585,88.545 4.624,88.754C4.781,89.028 5.016,89.342 5.33,89.682C5.644,90.022 6.009,90.361 6.441,90.727C6.519,90.792 6.624,90.858 6.702,90.923L6.009,91.106L5.474,92.06C5.617,92.504 5.8,92.962 6.009,93.406C6.232,93.85 6.467,94.255 6.728,94.621L7.421,94.321L7.251,93.144L7.277,93.105Z" style="fill-rule:nonzero;"/>
                <path d="M10.061,77.789C10.205,77.672 10.336,77.515 10.467,77.332C10.597,77.149 10.728,76.94 10.846,76.744C10.963,76.548 11.041,76.352 11.094,76.195C10.924,75.973 10.676,75.777 10.388,75.581C10.088,75.385 9.8,75.254 9.539,75.176C9.408,75.28 9.277,75.424 9.134,75.581C8.99,75.751 8.872,75.934 8.742,76.129C8.624,76.326 8.533,76.522 8.493,76.705C8.637,76.914 8.859,77.11 9.16,77.306C9.46,77.502 9.761,77.658 10.061,77.776L10.061,77.789Z" style="fill-rule:nonzero;"/>
                <path d="M0.219,67.192C0.415,67.819 0.728,68.342 1.16,68.734C1.591,69.126 2.113,69.361 2.741,69.413C3.329,69.466 3.838,69.361 4.27,69.1C4.701,68.838 5.054,68.499 5.367,68.08C5.681,67.662 5.968,67.231 6.23,66.8C6.478,66.369 6.713,65.99 6.922,65.663C7.131,65.336 7.366,65.075 7.615,64.905C7.863,64.735 8.151,64.644 8.464,64.67C8.699,64.696 8.921,64.774 9.157,64.931C9.392,65.088 9.575,65.323 9.706,65.637C9.666,66.055 9.588,66.486 9.444,66.93C9.353,67.244 9.209,67.545 9.039,67.832L6.792,68.394L6.687,69.518C6.974,69.609 7.301,69.688 7.667,69.766C8.033,69.844 8.399,69.91 8.739,69.949C9.078,69.988 9.353,70.014 9.562,70.027C9.81,69.727 10.019,69.361 10.215,68.943C10.398,68.525 10.542,68.093 10.659,67.636C10.777,67.179 10.842,66.774 10.882,66.395C10.947,65.702 10.882,65.049 10.699,64.448C10.516,63.847 10.202,63.337 9.758,62.932C9.327,62.527 8.765,62.305 8.098,62.239C7.471,62.187 6.948,62.279 6.517,62.527C6.086,62.775 5.707,63.115 5.393,63.533C5.08,63.951 4.792,64.395 4.531,64.853C4.283,65.271 4.047,65.65 3.838,66.003C3.629,66.356 3.394,66.63 3.172,66.826C2.937,67.035 2.675,67.113 2.362,67.087C2.14,67.061 1.904,66.983 1.682,66.852C1.46,66.708 1.29,66.512 1.173,66.264C1.212,65.663 1.343,65.075 1.578,64.526C1.643,64.382 1.735,64.265 1.813,64.134L3.603,63.847L3.721,62.592C3.407,62.488 3.08,62.409 2.741,62.344C2.401,62.279 2.061,62.226 1.748,62.174C1.421,62.135 1.133,62.096 0.885,62.07C0.755,62.318 0.637,62.618 0.519,62.945C0.402,63.272 0.31,63.624 0.219,64.003C0.127,64.382 0.075,64.748 0.036,65.114C-0.03,65.859 0.036,66.552 0.232,67.179L0.219,67.192Z" style="fill-rule:nonzero;"/>
                <path d="M5.513,59.898C6.035,60.355 6.689,60.669 7.486,60.852C8.1,60.983 8.675,61.009 9.224,60.904C9.773,60.8 10.256,60.604 10.687,60.29C11.118,59.99 11.471,59.597 11.746,59.114C12.02,58.631 12.19,58.095 12.242,57.481L11.602,55.05L10.766,55.207C10.831,55.534 10.87,55.847 10.883,56.135C10.883,56.422 10.87,56.697 10.818,56.958C10.713,57.442 10.504,57.82 10.191,58.108C9.877,58.395 9.498,58.578 9.041,58.657C8.583,58.735 8.1,58.722 7.577,58.604C7.185,58.513 6.806,58.369 6.414,58.147C6.035,57.938 5.696,57.638 5.434,57.272C5.63,56.945 5.905,56.644 6.244,56.396C6.584,56.135 6.976,55.913 7.42,55.73L6.649,53.809C6.231,53.887 5.878,54.044 5.565,54.279C5.251,54.514 5.003,54.789 4.794,55.129C4.585,55.468 4.441,55.834 4.35,56.239C4.193,56.945 4.219,57.611 4.415,58.265C4.624,58.905 4.977,59.467 5.5,59.924L5.513,59.898Z" style="fill-rule:nonzero;"/>
                <path d="M7.138,51.536L12.117,53.287L12.117,53.548C12.117,53.914 12.143,54.241 12.208,54.541L12.731,54.672L13.097,53.627L13.855,51.47L14.391,49.942L13.685,49.628C13.541,49.759 13.398,49.915 13.241,50.111C13.084,50.307 12.94,50.504 12.81,50.713C12.744,50.817 12.679,50.922 12.627,51.026L9.569,49.955C9.569,49.955 9.556,49.929 9.543,49.915C9.321,49.563 9.151,49.236 9.02,48.922C8.889,48.609 8.798,48.295 8.733,47.995L10.51,48.321L10.928,47.132C10.745,46.988 10.536,46.845 10.301,46.688C10.065,46.531 9.817,46.387 9.556,46.257C9.294,46.126 9.046,46.008 8.798,45.904C8.55,45.799 8.341,45.708 8.145,45.656C7.87,45.825 7.661,46.074 7.491,46.387C7.334,46.714 7.256,47.067 7.269,47.459L8.341,49.51L7.23,49.118L6.263,49.602C6.132,50.059 6.028,50.53 5.949,51.013C5.871,51.497 5.845,51.967 5.858,52.411L6.603,52.555L7.125,51.497L7.138,51.536Z" style="fill-rule:nonzero;"/>
                <path d="M17.092,44.625C17.392,44.024 17.523,43.41 17.497,42.77C17.471,42.129 17.262,41.528 16.883,40.953C16.504,40.378 15.916,39.908 15.145,39.516C14.361,39.124 13.616,38.941 12.923,38.98C12.231,39.019 11.617,39.228 11.081,39.594C10.545,39.96 10.127,40.444 9.826,41.045C9.526,41.646 9.382,42.273 9.408,42.926C9.434,43.58 9.617,44.207 9.996,44.782C10.375,45.37 10.937,45.853 11.708,46.233C12.466,46.611 13.198,46.781 13.916,46.729C14.635,46.677 15.262,46.468 15.811,46.089C16.36,45.71 16.791,45.213 17.092,44.612L17.092,44.625ZM15.21,44.612C14.87,44.717 14.478,44.717 14.047,44.612C13.616,44.521 13.172,44.364 12.714,44.129C12.27,43.907 11.878,43.658 11.538,43.397C11.198,43.123 10.95,42.848 10.806,42.574C10.78,42.456 10.78,42.325 10.806,42.169C10.833,42.025 10.885,41.868 10.95,41.737C11.107,41.411 11.368,41.202 11.708,41.123C12.048,41.045 12.44,41.058 12.884,41.162C13.328,41.267 13.786,41.437 14.256,41.672C14.531,41.816 14.818,41.973 15.092,42.156C15.367,42.339 15.602,42.535 15.785,42.744C15.968,42.953 16.086,43.175 16.125,43.423C16.099,43.606 16.033,43.776 15.955,43.933C15.785,44.272 15.524,44.508 15.184,44.599L15.21,44.612Z" style="fill-rule:nonzero;"/>
                <path d="M10.807,34.497L18.438,39.358C18.412,39.449 18.386,39.541 18.36,39.645C18.282,39.998 18.229,40.325 18.216,40.638L18.687,40.887L19.549,39.541L19.967,38.887L21.117,37.084L20.503,36.614C20.242,36.744 19.954,36.927 19.68,37.176C19.615,37.228 19.575,37.28 19.523,37.319L11.408,32.158L10.389,32.445C10.154,32.85 9.945,33.282 9.762,33.752C9.579,34.209 9.448,34.667 9.344,35.098L10.049,35.425L10.794,34.497L10.807,34.497Z" style="fill-rule:nonzero;"/>
                <path d="M14.246,29.402L21.446,34.903C21.419,34.995 21.38,35.086 21.354,35.178C21.237,35.531 21.171,35.844 21.132,36.158L21.589,36.445L22.282,35.531L23.027,34.564L24.32,32.865L23.745,32.342C23.471,32.447 23.17,32.604 22.87,32.826C22.805,32.878 22.765,32.917 22.7,32.956L15.069,27.115L14.037,27.311C13.762,27.69 13.527,28.109 13.305,28.553C13.083,28.997 12.913,29.428 12.782,29.86L13.461,30.238L14.272,29.376L14.246,29.402Z" style="fill-rule:nonzero;"/>
                <path d="M24.445,18.253L26.104,20.082C25.817,20.239 25.53,20.409 25.268,20.657C24.798,21.075 24.458,21.533 24.236,22.029C24.014,22.526 23.883,23.036 23.87,23.558C23.857,24.081 23.948,24.59 24.131,25.087C24.314,25.584 24.602,26.041 24.981,26.446C25.451,26.969 26,27.348 26.614,27.596C27.228,27.844 27.855,27.936 28.496,27.844C29.123,27.753 29.711,27.465 30.234,26.969L30.691,24.826C30.913,24.93 31.135,25.009 31.371,25.035C31.632,25.061 31.88,25.061 32.102,25.022C32.324,24.983 32.507,24.891 32.638,24.773L33.383,22.748L32.808,22.317C32.716,22.434 32.625,22.539 32.547,22.644C32.468,22.748 32.39,22.826 32.298,22.905C32.207,22.983 32.115,23.022 32.024,23.022C31.919,23.022 31.841,22.983 31.763,22.905L25.647,16.149L24.589,16.149C24.249,16.489 23.935,16.855 23.635,17.247C23.334,17.652 23.086,18.044 22.89,18.436L23.491,18.932L24.445,18.24L24.445,18.253ZM29.476,25.283C29.201,25.531 28.901,25.662 28.561,25.675C28.221,25.688 27.882,25.61 27.529,25.427C27.176,25.244 26.862,24.996 26.562,24.669C26.235,24.303 25.974,23.898 25.791,23.454C25.608,23.009 25.53,22.578 25.582,22.16C25.843,21.873 26.144,21.637 26.47,21.481C26.692,21.376 26.915,21.298 27.137,21.245L30.038,24.447C30.038,24.447 30.038,24.473 30.025,24.486C29.855,24.839 29.659,25.1 29.463,25.283L29.476,25.283Z" style="fill-rule:nonzero;"/>
                <path d="M33.557,21.677C34.197,21.977 34.864,22.095 35.53,22.043C36.197,21.977 36.811,21.755 37.373,21.363C37.921,20.984 38.34,20.514 38.627,19.939C38.914,19.364 39.032,18.737 38.967,18.057C38.914,17.378 38.64,16.672 38.144,15.953C37.647,15.235 37.085,14.712 36.458,14.412C35.831,14.111 35.19,13.98 34.55,14.046C33.897,14.111 33.309,14.333 32.747,14.712C32.198,15.091 31.767,15.574 31.466,16.149C31.166,16.737 31.035,17.365 31.074,18.057C31.113,18.75 31.388,19.455 31.871,20.161C32.355,20.854 32.917,21.363 33.557,21.664L33.557,21.677ZM33.06,16.189C33.152,16.071 33.27,15.966 33.4,15.875C33.701,15.666 34.027,15.614 34.367,15.705C34.707,15.797 35.047,16.006 35.373,16.306C35.7,16.607 36.027,16.986 36.327,17.417C36.51,17.678 36.667,17.953 36.824,18.253C36.981,18.554 37.085,18.828 37.151,19.103C37.216,19.377 37.203,19.625 37.124,19.86C37.007,20.004 36.876,20.122 36.732,20.226C36.419,20.449 36.079,20.514 35.739,20.435C35.4,20.357 35.047,20.174 34.72,19.874C34.393,19.586 34.08,19.22 33.792,18.802C33.518,18.397 33.296,17.992 33.126,17.587C32.956,17.182 32.878,16.829 32.891,16.515C32.93,16.398 32.995,16.293 33.087,16.176L33.06,16.189Z" style="fill-rule:nonzero;"/>
                <path d="M37.022,12.99L37.989,12.99L42.575,17.746C42.784,17.694 43.02,17.615 43.281,17.485C43.542,17.354 43.79,17.237 44.039,17.08C44.287,16.923 44.483,16.779 44.64,16.622L44.535,13.891L46.508,15.878C46.704,15.825 46.927,15.747 47.188,15.629C47.449,15.512 47.685,15.381 47.933,15.237C48.181,15.094 48.377,14.937 48.547,14.78L47.737,8.22C47.737,8.22 47.841,8.103 47.894,8.05C48.037,7.88 48.168,7.697 48.299,7.528L47.959,6.913L47.201,7.266L45.411,8.116L44.548,8.521L44.888,9.266L45.737,9.266L47.018,13.682L46.887,13.748L45.999,12.493L43.085,9.292L41.112,10.468L43.124,12.493L43.346,15.433L43.202,15.499L42.249,14.244L40.04,11.801C40.04,11.801 40.066,11.774 40.079,11.748C40.223,11.578 40.367,11.396 40.498,11.226L40.132,10.611L39.308,11.003L38.302,11.474L36.682,12.245L37.022,12.99Z" style="fill-rule:nonzero;"/>
                <path d="M50.922,7.265L52.294,12.361C52.216,12.414 52.151,12.44 52.072,12.492C51.772,12.701 51.523,12.91 51.314,13.132L51.497,13.629L53.039,13.211L54.764,12.74L55.613,12.518L55.47,11.76C55.182,11.669 54.882,11.617 54.542,11.604L54.45,11.604L53.327,7.435C53.51,7.239 53.692,7.056 53.888,6.912C54.124,6.729 54.346,6.599 54.555,6.547C54.868,6.455 55.143,6.494 55.391,6.69C55.639,6.886 55.835,7.239 55.966,7.749L56.894,11.185C56.593,11.394 56.345,11.604 56.136,11.826L56.319,12.322L57.39,12.035L58.292,11.786L60.383,11.225L60.239,10.467C59.952,10.375 59.612,10.336 59.22,10.323L59.037,10.323L58.135,6.991C58.031,6.586 57.926,6.272 57.848,6.024C57.769,5.789 57.691,5.606 57.626,5.462C57.56,5.331 57.495,5.227 57.417,5.161C57.208,4.965 56.985,4.822 56.724,4.73C56.463,4.639 56.214,4.586 55.953,4.56C55.692,4.534 55.47,4.56 55.261,4.6C54.986,4.756 54.673,4.992 54.333,5.305C53.993,5.619 53.64,5.985 53.287,6.416C53.222,6.494 53.157,6.599 53.091,6.677L52.908,5.972L51.955,5.436C51.51,5.58 51.053,5.762 50.609,5.972C50.164,6.194 49.759,6.429 49.393,6.69L49.694,7.383L50.87,7.213L50.922,7.265Z" style="fill-rule:nonzero;"/>
                <path d="M67.26,10.834C67.469,10.951 67.639,11.03 67.809,11.082C68.031,10.912 68.227,10.664 68.423,10.376C68.619,10.076 68.75,9.788 68.828,9.527C68.724,9.396 68.58,9.266 68.423,9.122C68.253,8.978 68.07,8.861 67.874,8.73C67.678,8.599 67.482,8.521 67.299,8.482C67.09,8.625 66.894,8.848 66.698,9.148C66.502,9.449 66.345,9.749 66.228,10.05C66.345,10.194 66.502,10.324 66.685,10.455C66.868,10.586 67.064,10.716 67.273,10.834L67.26,10.834Z" style="fill-rule:nonzero;"/>
                <path d="M76.35,10.663C76.807,10.781 77.212,10.846 77.591,10.885C78.284,10.951 78.937,10.885 79.552,10.703C80.153,10.52 80.662,10.206 81.054,9.762C81.446,9.317 81.681,8.769 81.747,8.102C81.799,7.475 81.708,6.952 81.459,6.521C81.211,6.09 80.871,5.711 80.453,5.397C80.035,5.084 79.591,4.796 79.133,4.535C78.715,4.287 78.336,4.051 77.983,3.842C77.631,3.633 77.356,3.398 77.16,3.176C76.951,2.941 76.873,2.679 76.899,2.366C76.925,2.144 77.003,1.908 77.147,1.686C77.291,1.464 77.487,1.294 77.735,1.177C78.336,1.216 78.924,1.346 79.473,1.582C79.617,1.634 79.734,1.738 79.865,1.817L80.153,3.607L81.407,3.725C81.512,3.411 81.59,3.084 81.655,2.745C81.721,2.405 81.773,2.065 81.825,1.752C81.864,1.425 81.904,1.137 81.93,0.889C81.681,0.758 81.381,0.641 81.054,0.523C80.728,0.406 80.375,0.314 79.996,0.223C79.617,0.131 79.251,0.079 78.885,0.04C78.14,-0.026 77.448,0.04 76.807,0.236C76.167,0.432 75.658,0.745 75.265,1.177C74.873,1.608 74.638,2.13 74.586,2.758C74.534,3.346 74.638,3.855 74.9,4.287C75.161,4.705 75.501,5.071 75.919,5.384C76.337,5.698 76.768,5.985 77.199,6.247C77.631,6.495 78.01,6.73 78.336,6.939C78.663,7.148 78.924,7.383 79.094,7.632C79.277,7.88 79.356,8.167 79.329,8.481C79.303,8.716 79.225,8.938 79.068,9.174C78.911,9.409 78.676,9.592 78.362,9.722C77.944,9.683 77.513,9.605 77.069,9.461C76.755,9.37 76.455,9.226 76.167,9.056L75.605,6.809L74.481,6.704C74.39,6.991 74.312,7.318 74.233,7.684C74.155,8.05 74.089,8.416 74.05,8.756C74.011,9.095 73.985,9.37 73.972,9.579C74.272,9.827 74.638,10.036 75.056,10.232C75.475,10.415 75.906,10.559 76.363,10.676L76.35,10.663Z" style="fill-rule:nonzero;"/>
                <path d="M83.732,10.703C84.033,11.134 84.425,11.487 84.908,11.761C85.392,12.036 85.928,12.206 86.542,12.258L88.972,11.618L88.828,10.781C88.502,10.847 88.188,10.886 87.901,10.899C87.613,10.899 87.339,10.886 87.077,10.834C86.594,10.729 86.215,10.52 85.928,10.206C85.64,9.893 85.457,9.514 85.379,9.056C85.3,8.599 85.313,8.116 85.431,7.593C85.522,7.201 85.666,6.822 85.888,6.43C86.11,6.038 86.398,5.711 86.764,5.45C87.09,5.659 87.391,5.92 87.639,6.26C87.901,6.6 88.123,6.992 88.306,7.436L90.227,6.665C90.148,6.247 89.991,5.894 89.769,5.581C89.534,5.267 89.26,5.019 88.92,4.81C88.58,4.6 88.214,4.457 87.809,4.365C87.104,4.208 86.437,4.235 85.784,4.431C85.13,4.627 84.582,4.992 84.124,5.515C83.667,6.038 83.34,6.691 83.17,7.488C83.04,8.102 83.013,8.677 83.118,9.226C83.223,9.775 83.419,10.259 83.732,10.703Z" style="fill-rule:nonzero;"/>
                <path d="M90.451,12.086C90.085,12.086 89.759,12.112 89.458,12.177L89.327,12.7L90.373,13.066L91.98,13.628L92.437,13.784L92.529,13.824L94.058,14.359L94.371,13.654C94.241,13.51 94.084,13.366 93.888,13.21C93.692,13.053 93.496,12.909 93.287,12.778C93.169,12.713 93.078,12.648 92.973,12.595L94.045,9.538C94.045,9.538 94.071,9.525 94.084,9.511C94.437,9.289 94.763,9.119 95.077,8.989C95.391,8.858 95.704,8.767 96.005,8.701L95.678,10.478L96.867,10.897C97.011,10.714 97.155,10.505 97.311,10.269C97.468,10.034 97.612,9.786 97.743,9.525C97.873,9.263 97.991,9.015 98.096,8.767C98.2,8.518 98.292,8.309 98.344,8.113C98.174,7.839 97.926,7.63 97.612,7.46C97.298,7.303 96.933,7.225 96.54,7.238L94.489,8.309L94.881,7.199L94.397,6.232C93.953,6.101 93.483,5.996 92.986,5.918C92.503,5.84 92.032,5.813 91.588,5.827L91.444,6.571L92.503,7.094L90.752,12.073L90.49,12.073L90.451,12.086Z" style="fill-rule:nonzero;"/>
                <path d="M97.272,13.905C97.324,14.623 97.533,15.251 97.912,15.799C98.291,16.348 98.788,16.779 99.389,17.08C99.99,17.381 100.604,17.511 101.244,17.485C101.885,17.459 102.486,17.25 103.061,16.871C103.636,16.492 104.106,15.904 104.498,15.133C104.89,14.349 105.073,13.604 105.034,12.912C104.995,12.219 104.786,11.605 104.42,11.069C104.054,10.533 103.57,10.115 102.969,9.815C102.368,9.514 101.741,9.37 101.088,9.396C100.434,9.41 99.807,9.606 99.232,9.984C98.644,10.363 98.161,10.925 97.782,11.696C97.403,12.454 97.233,13.186 97.285,13.905L97.272,13.905ZM99.389,14.048C99.48,13.617 99.637,13.173 99.872,12.716C100.094,12.271 100.343,11.879 100.604,11.54C100.879,11.2 101.153,10.951 101.427,10.808C101.545,10.782 101.676,10.782 101.832,10.808C101.976,10.834 102.133,10.886 102.264,10.951C102.59,11.108 102.799,11.37 102.878,11.709C102.956,12.049 102.943,12.441 102.839,12.885C102.734,13.33 102.564,13.787 102.329,14.257C102.185,14.532 102.028,14.819 101.845,15.094C101.663,15.368 101.467,15.603 101.257,15.786C101.048,15.969 100.826,16.087 100.578,16.126C100.395,16.1 100.225,16.035 100.068,15.956C99.716,15.786 99.493,15.525 99.402,15.185C99.297,14.846 99.297,14.453 99.402,14.022L99.389,14.048Z" style="fill-rule:nonzero;"/>
                <path d="M104.644,18.438C104.552,18.412 104.461,18.386 104.356,18.36C104.003,18.282 103.677,18.229 103.363,18.216L103.115,18.687L104.461,19.549L105.114,19.967L106.917,21.117L107.388,20.503C107.257,20.242 107.074,19.954 106.826,19.68C106.774,19.615 106.721,19.575 106.682,19.523L111.844,11.408L111.556,10.389C111.151,10.154 110.72,9.945 110.25,9.762C109.792,9.579 109.335,9.448 108.904,9.344L108.59,10.049L109.518,10.794L104.657,18.425L104.644,18.438Z" style="fill-rule:nonzero;"/>
                <path d="M109.11,21.43C109.019,21.404 108.927,21.365 108.836,21.338C108.483,21.221 108.17,21.156 107.856,21.116L107.568,21.574L108.483,22.266L109.45,23.011L111.149,24.305L111.672,23.73C111.567,23.455 111.41,23.155 111.188,22.854C111.136,22.789 111.097,22.75 111.057,22.684L116.898,15.053L116.702,14.021C116.31,13.746 115.905,13.511 115.461,13.289C115.017,13.067 114.586,12.897 114.154,12.766L113.775,13.446L114.638,14.256L109.137,21.456L109.11,21.43Z" style="fill-rule:nonzero;"/>
                <path d="M116.154,28.472C116.245,29.1 116.533,29.688 117.029,30.21L119.159,30.668C119.055,30.89 118.976,31.112 118.95,31.347C118.924,31.608 118.924,31.857 118.963,32.079C119.003,32.301 119.094,32.484 119.212,32.615L121.237,33.359L121.668,32.784C121.551,32.693 121.446,32.602 121.342,32.523C121.237,32.445 121.159,32.366 121.08,32.275C121.002,32.183 120.963,32.092 120.963,32C120.963,31.896 121.002,31.817 121.08,31.739L127.836,25.624L127.836,24.565C127.496,24.225 127.13,23.912 126.738,23.611C126.346,23.311 125.941,23.063 125.549,22.866L125.053,23.468L125.745,24.421L123.916,26.081C123.759,25.794 123.589,25.506 123.341,25.245C122.923,24.774 122.465,24.435 121.969,24.212C121.472,23.99 120.963,23.86 120.44,23.847C119.917,23.833 119.408,23.925 118.911,24.108C118.415,24.291 117.957,24.578 117.552,24.957C117.029,25.428 116.65,25.976 116.389,26.591C116.141,27.205 116.049,27.832 116.141,28.472L116.154,28.472ZM118.571,27.531C118.754,27.179 119.003,26.865 119.329,26.564C119.695,26.238 120.1,25.976 120.544,25.794C120.989,25.611 121.42,25.532 121.838,25.584C122.126,25.846 122.361,26.146 122.518,26.473C122.622,26.695 122.701,26.917 122.753,27.139L119.551,30.04C119.551,30.04 119.525,30.04 119.512,30.027C119.159,29.857 118.898,29.661 118.715,29.465C118.467,29.191 118.336,28.89 118.323,28.551C118.31,28.211 118.388,27.871 118.571,27.518L118.571,27.531Z" style="fill-rule:nonzero;"/>
                <path d="M123.839,31.86C123.147,32.343 122.637,32.905 122.337,33.545C122.036,34.186 121.905,34.852 121.971,35.518C122.036,36.185 122.258,36.799 122.65,37.361C123.029,37.91 123.5,38.328 124.075,38.615C124.65,38.903 125.277,39.02 125.956,38.955C126.636,38.903 127.341,38.628 128.06,38.132C128.779,37.635 129.301,37.073 129.602,36.446C129.903,35.819 130.033,35.179 129.968,34.538C129.903,33.885 129.68,33.297 129.301,32.735C128.923,32.186 128.439,31.755 127.864,31.455C127.289,31.154 126.649,31.023 125.956,31.063C125.264,31.102 124.558,31.376 123.852,31.86L123.839,31.86ZM127.472,32.866C127.59,32.905 127.707,32.97 127.825,33.062C127.943,33.153 128.047,33.271 128.139,33.402C128.348,33.702 128.4,34.029 128.308,34.369C128.217,34.708 128.008,35.048 127.707,35.375C127.407,35.714 127.028,36.028 126.597,36.329C126.335,36.512 126.061,36.668 125.76,36.825C125.46,36.982 125.185,37.087 124.911,37.152C124.637,37.217 124.388,37.204 124.153,37.126C124.009,37.008 123.892,36.877 123.787,36.734C123.565,36.42 123.5,36.08 123.578,35.741C123.656,35.401 123.839,35.061 124.14,34.721C124.427,34.395 124.793,34.081 125.211,33.794C125.617,33.519 126.022,33.297 126.427,33.127C126.832,32.957 127.185,32.879 127.498,32.892L127.472,32.866Z" style="fill-rule:nonzero;"/>
                <path d="M126.256,42.56C126.308,42.769 126.386,43.004 126.517,43.265C126.648,43.527 126.765,43.775 126.922,44.023C127.079,44.271 127.223,44.467 127.38,44.624L130.111,44.52L128.124,46.493C128.177,46.689 128.255,46.911 128.373,47.172C128.49,47.42 128.621,47.669 128.765,47.917C128.908,48.165 129.065,48.361 129.235,48.531L135.795,47.721C135.795,47.721 135.912,47.826 135.965,47.878C136.135,48.022 136.304,48.152 136.487,48.283L137.102,47.943L136.932,47.59L136.736,47.185L136.37,46.427L136.226,46.127L135.481,44.559L134.736,44.899L134.736,45.748L130.32,47.029L130.254,46.898L131.509,46.009L134.71,43.095L133.534,41.122L131.522,43.135L128.582,43.357L128.516,43.213L129.758,42.259L132.201,40.051C132.201,40.051 132.228,40.077 132.254,40.09C132.424,40.234 132.606,40.377 132.776,40.508L133.39,40.142L132.998,39.319L132.998,39.293L131.77,36.706L131.025,37.045L131.025,38.012L126.269,42.599L126.256,42.56Z" style="fill-rule:nonzero;"/>
                <path d="M136.738,50.911L131.642,52.283C131.59,52.204 131.563,52.139 131.511,52.06C131.302,51.76 131.093,51.512 130.871,51.303L130.374,51.485L130.662,52.544L131.263,54.752L131.485,55.602L132.243,55.458C132.334,55.17 132.387,54.87 132.413,54.53L132.413,54.439L136.581,53.315C136.777,53.498 136.96,53.681 137.104,53.877C137.287,54.112 137.418,54.334 137.47,54.543C137.561,54.857 137.509,55.131 137.326,55.379C137.143,55.628 136.777,55.824 136.268,55.954L132.831,56.882C132.622,56.582 132.413,56.333 132.191,56.124L131.694,56.307L132.112,57.849L132.23,58.28L132.792,60.371L133.55,60.227C133.641,59.94 133.68,59.613 133.693,59.208L133.693,59.025L137.026,58.124C137.431,58.019 137.744,57.914 137.993,57.836C138.241,57.758 138.411,57.679 138.554,57.627C138.685,57.562 138.79,57.496 138.855,57.418C139.051,57.209 139.195,56.987 139.286,56.725C139.378,56.464 139.43,56.216 139.456,55.954C139.469,55.706 139.456,55.471 139.417,55.262C139.26,54.987 139.025,54.674 138.711,54.334C138.398,53.994 138.032,53.642 137.601,53.289C137.522,53.223 137.418,53.158 137.339,53.093L138.045,52.91L138.581,51.956C138.437,51.512 138.254,51.054 138.045,50.61C137.823,50.166 137.587,49.761 137.326,49.395L136.634,49.695L136.803,50.871L136.738,50.911Z" style="fill-rule:nonzero;"/>
                <path d="M133.637,68.431C133.937,68.627 134.225,68.757 134.486,68.836C134.617,68.731 134.747,68.601 134.891,68.431C135.035,68.261 135.152,68.078 135.283,67.882C135.401,67.686 135.492,67.49 135.531,67.307C135.388,67.098 135.165,66.902 134.865,66.706C134.564,66.51 134.264,66.353 133.963,66.223C133.833,66.34 133.689,66.497 133.558,66.68C133.427,66.863 133.297,67.059 133.179,67.268C133.062,67.477 132.983,67.66 132.931,67.817C133.101,68.039 133.336,68.235 133.637,68.431Z" style="fill-rule:nonzero;"/>
                <path d="M138.639,75.972C138.325,76.39 138.038,76.822 137.776,77.253C137.528,77.684 137.293,78.063 137.084,78.39C136.875,78.716 136.64,78.978 136.391,79.147C136.143,79.33 135.856,79.409 135.542,79.383C135.307,79.357 135.085,79.278 134.849,79.121C134.614,78.965 134.431,78.729 134.301,78.416C134.34,77.998 134.418,77.566 134.562,77.122C134.653,76.808 134.797,76.508 134.967,76.22L137.215,75.659L137.319,74.535C137.032,74.443 136.705,74.365 136.339,74.287C135.973,74.208 135.607,74.143 135.268,74.104C134.928,74.064 134.653,74.038 134.444,74.025C134.196,74.326 133.974,74.692 133.791,75.11C133.608,75.528 133.451,75.959 133.347,76.416C133.229,76.874 133.164,77.279 133.125,77.658C133.059,78.35 133.125,79.004 133.307,79.605C133.49,80.206 133.804,80.716 134.235,81.121C134.666,81.526 135.228,81.748 135.895,81.813C136.522,81.865 137.045,81.774 137.476,81.526C137.907,81.277 138.286,80.938 138.6,80.519C138.913,80.101 139.201,79.657 139.462,79.2C139.71,78.782 139.946,78.403 140.155,78.05C140.364,77.697 140.599,77.423 140.834,77.227C141.069,77.031 141.331,76.939 141.644,76.965C141.866,76.991 142.102,77.07 142.324,77.214C142.546,77.357 142.716,77.553 142.833,77.802C142.794,78.403 142.664,78.991 142.428,79.54C142.363,79.683 142.272,79.801 142.193,79.932L140.403,80.219L140.285,81.473C140.599,81.578 140.926,81.656 141.265,81.722C141.605,81.787 141.945,81.852 142.272,81.892C142.598,81.931 142.886,81.97 143.134,81.996C143.265,81.748 143.382,81.46 143.5,81.121C143.617,80.794 143.709,80.441 143.8,80.062C143.892,79.683 143.944,79.317 143.983,78.952C144.049,78.207 143.983,77.514 143.787,76.874C143.591,76.234 143.278,75.724 142.846,75.332C142.415,74.94 141.893,74.705 141.265,74.652C140.677,74.6 140.168,74.705 139.736,74.966C139.305,75.227 138.952,75.567 138.639,75.985L138.639,75.972Z" style="fill-rule:nonzero;"/>
                <path d="M138.488,84.128C137.965,83.671 137.312,83.344 136.515,83.174C135.901,83.044 135.326,83.017 134.777,83.122C134.228,83.227 133.744,83.423 133.3,83.736C132.856,84.05 132.516,84.429 132.242,84.912C131.967,85.396 131.797,85.931 131.745,86.546L132.386,88.976L133.222,88.832C133.156,88.506 133.117,88.192 133.104,87.905C133.104,87.617 133.117,87.343 133.17,87.081C133.274,86.598 133.483,86.219 133.797,85.931C134.11,85.644 134.489,85.461 134.934,85.383C135.391,85.304 135.874,85.317 136.397,85.435C136.789,85.526 137.168,85.67 137.56,85.892C137.939,86.101 138.279,86.402 138.54,86.768C138.344,87.094 138.07,87.395 137.73,87.643C137.39,87.905 136.998,88.127 136.554,88.31L137.325,90.231C137.743,90.152 138.096,89.995 138.409,89.76C138.723,89.525 138.971,89.25 139.18,88.911C139.389,88.571 139.533,88.205 139.625,87.8C139.782,87.094 139.755,86.428 139.559,85.775C139.363,85.121 138.997,84.572 138.475,84.115L138.488,84.128Z" style="fill-rule:nonzero;"/>
                <path d="M136.88,92.465L131.902,90.714L131.902,90.453C131.902,90.087 131.876,89.76 131.81,89.459L131.288,89.329L130.922,90.374L130.765,90.832L130.36,91.981L129.628,94.046L130.334,94.36C130.477,94.229 130.621,94.072 130.778,93.876C130.935,93.68 131.078,93.484 131.209,93.275C131.274,93.157 131.34,93.066 131.392,92.961L134.45,94.033C134.45,94.033 134.463,94.059 134.476,94.072C134.698,94.425 134.868,94.752 134.999,95.065C135.129,95.379 135.221,95.693 135.286,95.993L133.509,95.666L133.091,96.855C133.274,96.999 133.483,97.143 133.718,97.3C133.953,97.457 134.202,97.6 134.463,97.731C134.724,97.862 134.972,97.979 135.221,98.084C135.469,98.188 135.678,98.28 135.874,98.332C136.149,98.162 136.358,97.914 136.527,97.6C136.684,97.287 136.763,96.921 136.75,96.529L135.678,94.477L136.789,94.869L137.756,94.386C137.886,93.942 137.991,93.471 138.069,92.975C138.148,92.491 138.174,92.021 138.161,91.576L137.416,91.433L136.893,92.491L136.88,92.465Z" style="fill-rule:nonzero;"/>
                <path d="M128.87,104.486C129.654,104.878 130.399,105.061 131.091,105.022C131.784,104.983 132.398,104.774 132.934,104.408C133.47,104.042 133.888,103.559 134.188,102.958C134.489,102.356 134.632,101.729 134.606,101.076C134.593,100.423 134.397,99.795 134.018,99.22C133.639,98.645 133.077,98.149 132.307,97.77C131.549,97.391 130.817,97.221 130.098,97.273C129.379,97.326 128.752,97.535 128.203,97.914C127.655,98.293 127.223,98.789 126.923,99.39C126.622,99.991 126.492,100.605 126.518,101.246C126.544,101.886 126.753,102.487 127.132,103.062C127.511,103.637 128.086,104.107 128.87,104.499L128.87,104.486ZM128.021,100.057C128.19,99.704 128.452,99.482 128.791,99.39C129.131,99.286 129.523,99.286 129.954,99.39C130.386,99.495 130.83,99.638 131.287,99.874C131.732,100.096 132.124,100.344 132.463,100.605C132.803,100.88 133.051,101.154 133.195,101.429C133.221,101.546 133.221,101.677 133.195,101.834C133.169,101.977 133.117,102.134 133.051,102.265C132.895,102.592 132.633,102.801 132.293,102.879C131.954,102.958 131.562,102.944 131.117,102.84C130.673,102.735 130.216,102.566 129.745,102.33C129.471,102.187 129.183,102.03 128.909,101.847C128.635,101.664 128.399,101.468 128.217,101.259C128.034,101.05 127.916,100.828 127.877,100.579C127.903,100.396 127.968,100.227 128.047,100.07L128.021,100.057Z" style="fill-rule:nonzero;"/>
                <path d="M133.18,109.544L125.548,104.67C125.575,104.578 125.601,104.487 125.627,104.382C125.705,104.029 125.758,103.703 125.771,103.389L125.3,103.141L123.458,106.042L122.883,106.943L123.497,107.414C123.758,107.283 124.046,107.1 124.333,106.852C124.399,106.8 124.438,106.747 124.49,106.708L132.592,111.883L133.611,111.595C133.846,111.19 134.055,110.759 134.238,110.289C134.421,109.831 134.552,109.374 134.656,108.943L133.951,108.616L133.206,109.544L133.18,109.544Z" style="fill-rule:nonzero;"/>
                <path d="M129.773,114.6L122.573,109.099C122.6,109.007 122.639,108.916 122.678,108.824C122.796,108.471 122.861,108.158 122.9,107.844L122.443,107.557L121.75,108.471L120.365,110.288L119.712,111.137L120.287,111.66C120.561,111.555 120.862,111.399 121.162,111.176C121.227,111.124 121.267,111.085 121.332,111.046L128.963,116.887L129.996,116.691C130.27,116.299 130.505,115.894 130.727,115.449C130.949,115.005 131.119,114.574 131.25,114.143L130.571,113.764L129.76,114.626L129.773,114.6Z" style="fill-rule:nonzero;"/>
                <path d="M119.528,125.77L117.869,123.941C118.156,123.784 118.444,123.614 118.705,123.366C119.175,122.947 119.515,122.49 119.75,121.994C119.973,121.497 120.103,120.987 120.116,120.465C120.129,119.942 120.038,119.432 119.855,118.936C119.659,118.439 119.385,117.982 119.019,117.577C118.548,117.054 118.012,116.675 117.385,116.414C116.771,116.166 116.144,116.074 115.517,116.166C114.889,116.257 114.301,116.545 113.779,117.028L113.321,119.171C113.099,119.067 112.877,118.988 112.642,118.962C112.381,118.936 112.132,118.936 111.91,118.975C111.688,119.014 111.505,119.106 111.374,119.223L110.63,121.249L111.204,121.68C111.296,121.562 111.387,121.458 111.466,121.353C111.544,121.249 111.623,121.17 111.714,121.092C111.806,121.014 111.897,120.974 111.989,120.974C112.093,120.974 112.171,121.014 112.237,121.092L118.352,127.848L119.411,127.848C119.75,127.508 120.064,127.142 120.365,126.75C120.665,126.358 120.913,125.953 121.109,125.561L120.508,125.064L119.554,125.757L119.528,125.77ZM114.497,118.74C114.772,118.492 115.072,118.361 115.412,118.348C115.752,118.335 116.092,118.413 116.444,118.596C116.797,118.779 117.111,119.027 117.411,119.354C117.738,119.72 117.999,120.125 118.182,120.569C118.365,121.014 118.444,121.445 118.391,121.863C118.13,122.15 117.83,122.386 117.503,122.542C117.281,122.647 117.059,122.725 116.836,122.778L113.936,119.563C113.936,119.563 113.936,119.537 113.949,119.524C114.118,119.171 114.314,118.91 114.51,118.727L114.497,118.74Z" style="fill-rule:nonzero;"/>
                <path d="M110.417,122.346C109.776,122.045 109.11,121.915 108.444,121.98C107.777,122.045 107.163,122.267 106.601,122.646C106.052,123.025 105.634,123.496 105.347,124.071C105.059,124.646 104.942,125.273 105.007,125.952C105.059,126.632 105.334,127.338 105.83,128.056C106.327,128.775 106.889,129.298 107.516,129.598C108.143,129.899 108.783,130.029 109.424,129.964C110.077,129.899 110.665,129.677 111.227,129.298C111.776,128.919 112.207,128.435 112.507,127.86C112.808,127.272 112.939,126.645 112.899,125.952C112.86,125.26 112.586,124.554 112.102,123.849C111.619,123.156 111.057,122.646 110.417,122.346ZM110.9,127.834C110.809,127.952 110.691,128.056 110.56,128.148C110.26,128.357 109.933,128.409 109.593,128.318C109.254,128.226 108.914,128.017 108.587,127.716C108.261,127.416 107.934,127.037 107.633,126.606C107.45,126.344 107.294,126.07 107.137,125.769C106.98,125.469 106.876,125.195 106.81,124.92C106.745,124.646 106.758,124.397 106.836,124.162C106.954,124.018 107.085,123.901 107.228,123.796C107.542,123.574 107.882,123.509 108.221,123.587C108.561,123.666 108.901,123.849 109.241,124.149C109.58,124.45 109.881,124.802 110.168,125.221C110.443,125.626 110.665,126.031 110.835,126.436C111.005,126.841 111.083,127.194 111.07,127.507C111.031,127.625 110.966,127.743 110.874,127.86L110.9,127.834Z" style="fill-rule:nonzero;"/>
                <path d="M107.281,131.782L106.942,131.037L105.975,131.037L101.401,126.281C101.192,126.333 100.957,126.411 100.695,126.529C100.434,126.646 100.186,126.777 99.938,126.934C99.689,127.078 99.493,127.235 99.336,127.391L99.441,130.122L97.468,128.136C97.272,128.188 97.05,128.267 96.788,128.384C96.527,128.502 96.292,128.633 96.043,128.776C95.795,128.92 95.599,129.077 95.429,129.234L96.226,135.807C96.226,135.807 96.122,135.924 96.07,135.976C95.926,136.146 95.795,136.316 95.665,136.499L96.004,137.113L97.834,136.251L98.539,135.911L99.402,135.506L99.062,134.761L98.213,134.761L96.945,130.344L97.076,130.279L97.964,131.534L100.865,134.735L102.838,133.559L100.826,131.534L100.604,128.593L100.748,128.528L101.702,129.783L103.91,132.226C103.91,132.226 103.884,132.252 103.871,132.278C103.727,132.448 103.583,132.631 103.453,132.801L103.805,133.415L104.629,133.023L104.851,132.919L107.255,131.782L107.281,131.782Z" style="fill-rule:nonzero;"/>
                <path d="M93.065,136.736L91.693,131.626C91.771,131.574 91.824,131.548 91.915,131.496C92.216,131.287 92.464,131.077 92.673,130.855L92.49,130.359L89.406,131.195L88.374,131.469L88.518,132.227C88.805,132.319 89.106,132.371 89.445,132.397L89.537,132.397L90.661,136.566C90.478,136.762 90.295,136.945 90.099,137.088C89.864,137.271 89.641,137.402 89.432,137.454C89.119,137.546 88.844,137.493 88.596,137.31C88.348,137.114 88.152,136.762 88.021,136.252L87.093,132.815C87.394,132.606 87.642,132.397 87.851,132.175L87.668,131.679L86.126,132.097L84.624,132.502L83.604,132.776L83.748,133.534C84.036,133.626 84.362,133.665 84.754,133.678L84.937,133.678L85.826,137.01C85.93,137.415 86.035,137.729 86.113,137.977C86.192,138.212 86.27,138.395 86.322,138.539C86.388,138.669 86.453,138.774 86.531,138.839C86.741,139.035 86.963,139.179 87.224,139.271C87.485,139.362 87.734,139.414 87.995,139.44C88.243,139.453 88.479,139.44 88.688,139.401C88.975,139.244 89.276,139.009 89.615,138.696C89.955,138.382 90.308,138.016 90.661,137.585C90.726,137.506 90.791,137.402 90.857,137.324L91.04,138.029L91.994,138.565C92.438,138.421 92.895,138.238 93.339,138.029C93.784,137.807 94.189,137.572 94.555,137.31L94.254,136.618L93.078,136.788L93.065,136.736Z" style="fill-rule:nonzero;"/>
                <path d="M76.702,133.167C76.493,133.05 76.31,132.971 76.153,132.919C75.931,133.089 75.735,133.324 75.539,133.625C75.343,133.925 75.212,134.213 75.134,134.474C75.239,134.605 75.382,134.736 75.539,134.879C75.709,135.023 75.892,135.141 76.088,135.271C76.284,135.389 76.48,135.48 76.663,135.52C76.872,135.376 77.068,135.154 77.264,134.853C77.46,134.553 77.617,134.252 77.734,133.951C77.617,133.821 77.46,133.677 77.277,133.546C77.094,133.416 76.885,133.285 76.689,133.167L76.702,133.167Z" style="fill-rule:nonzero;"/>
            </g>
        </g>
    </g>
</svg>
