<?xml version="1.0" encoding="UTF-8" standalone="no"?>
<!DOCTYPE svg PUBLIC "-//W3C//DTD SVG 1.1//EN" "http://www.w3.org/Graphics/SVG/1.1/DTD/svg11.dtd">
<svg width="100%" height="100%" viewBox="0 0 144 144" version="1.1" xmlns="http://www.w3.org/2000/svg" xmlns:xlink="http://www.w3.org/1999/xlink" xml:space="preserve" xmlns:serif="http://www.serif.com/" style="fill-rule:evenodd;clip-rule:evenodd;stroke-linejoin:round;stroke-miterlimit:2;">
    <g transform="matrix(1,0,0,1,-0.0113135,-0.0152197)">
        <path d="M74.289,51.5C74.289,50.395 73.394,49.5 72.289,49.5C71.185,49.5 70.289,50.395 70.289,51.5L74.289,51.5ZM70.875,92.914C71.656,93.695 72.922,93.695 73.703,92.914L86.431,80.186C87.212,79.405 87.212,78.139 86.431,77.358C85.65,76.577 84.384,76.577 83.603,77.358L72.289,88.672L60.975,77.358C60.194,76.577 58.928,76.577 58.147,77.358C57.366,78.139 57.366,79.405 58.147,80.186L70.875,92.914ZM70.289,51.5L70.289,91.5L74.289,91.5L74.289,51.5L70.289,51.5Z" style="fill-rule:nonzero;"/>
    </g>
</svg>
