<?xml version="1.0" encoding="UTF-8" standalone="no"?>
<!DOCTYPE svg PUBLIC "-//W3C//DTD SVG 1.1//EN" "http://www.w3.org/Graphics/SVG/1.1/DTD/svg11.dtd">
<svg width="100%" height="100%" viewBox="0 0 371 263" version="1.1" xmlns="http://www.w3.org/2000/svg" xmlns:xlink="http://www.w3.org/1999/xlink" xml:space="preserve" xmlns:serif="http://www.serif.com/" style="fill-rule:evenodd;clip-rule:evenodd;stroke-linejoin:round;stroke-miterlimit:2;">
    <g transform="matrix(1,0,0,1,-1.5,0)">
        <path d="M1.5,185.154L4.932,199.819L55.611,189.574L15.734,222.821L25.123,234.574L66.413,203.435L44.91,250.545L58.539,257.074L82.162,211.27L83.373,263L98.516,263L99.728,211.471L123.452,257.576L137.08,251.047L115.678,204.138L157.17,235.478L166.559,223.625L126.884,190.578L177.866,200.924L181.298,186.259L131.023,173.603L181.5,160.846L178.169,146.181L127.389,156.426L167.266,123.179L157.877,111.426L116.587,142.565L138.09,95.455L124.461,88.926L100.838,134.83L99.627,83L84.484,83L83.272,134.529L59.649,88.424L45.92,94.953L67.322,141.862L25.83,110.522L16.441,122.375L56.116,155.422L5.134,145.076L1.803,159.741L51.977,172.397L1.5,185.154Z" style="fill-rule:nonzero;"/>
    </g>
    <g transform="matrix(1,0,0,1,-1.5,0)">
        <path d="M371.805,149.258L366.79,170.686L292.742,155.716L351.007,204.295L337.289,221.466L276.959,175.969L308.378,244.801L288.465,254.341L253.949,187.417L252.179,263L230.053,263L228.283,187.71L193.62,255.075L173.707,245.535L204.977,176.997L144.353,222.787L130.635,205.469L188.604,157.184L114.115,172.3L109.1,150.873L182.557,132.381L108.805,113.742L113.672,92.314L187.867,107.284L129.603,58.705L143.321,41.534L203.65,87.031L172.231,18.199L192.145,8.659L226.661,75.73L228.431,0L250.556,0L252.326,75.29L286.842,7.925L306.903,17.465L275.632,86.003L336.256,40.213L349.974,57.531L292.005,105.816L366.495,90.7L371.362,112.127L298.053,130.619L371.805,149.258Z" style="fill-rule:nonzero;"/>
    </g>
</svg>
