<?xml version="1.0" encoding="UTF-8" standalone="no"?>
<!DOCTYPE svg PUBLIC "-//W3C//DTD SVG 1.1//EN" "http://www.w3.org/Graphics/SVG/1.1/DTD/svg11.dtd">
<svg width="100%" height="100%" viewBox="0 0 72 72" version="1.1" xmlns="http://www.w3.org/2000/svg" xmlns:xlink="http://www.w3.org/1999/xlink" xml:space="preserve" xmlns:serif="http://www.serif.com/" style="fill-rule:evenodd;clip-rule:evenodd;stroke-linejoin:round;stroke-miterlimit:2;">
    <g transform="matrix(1,0,0,1,-12,-12)">
        <path d="M79.5,12L16.5,12C14.015,12 12,14.015 12,16.5L12,79.5C12,81.985 14.015,84 16.5,84L79.5,84C81.985,84 84,81.985 84,79.5L84,16.5C84,14.015 81.985,12 79.5,12Z" style="fill:white;fill-rule:nonzero;"/>
    </g>
    <g transform="matrix(1,0,0,1,-12,-12)">
        <rect x="16.5" y="16.5" width="63" height="63" style="fill:rgb(247,223,30);fill-rule:nonzero;"/>
    </g>
    <g transform="matrix(1,0,0,1,-12,-12)">
        <path d="M58.788,65.702C60.063,67.802 61.713,69.302 64.638,69.302C67.563,69.302 68.688,68.102 68.688,66.377C68.688,64.652 67.113,63.602 64.412,62.477L62.913,61.877C58.638,60.077 55.788,57.752 55.788,52.952C55.788,48.152 59.163,45.152 64.487,45.152C69.813,45.152 70.938,46.427 72.888,49.877L68.313,52.802C67.263,51.002 66.213,50.252 64.487,50.252C62.763,50.252 61.638,51.377 61.638,52.802C61.638,54.227 62.763,55.277 65.313,56.402L66.813,57.002C71.838,59.177 74.688,61.352 74.688,66.302C74.688,71.252 70.488,74.552 64.862,74.552C59.237,74.552 55.788,71.927 54.063,68.477L58.862,65.702L58.788,65.702ZM37.863,66.227C38.763,67.877 39.663,69.302 41.688,69.302C43.713,69.302 44.838,68.552 44.838,65.552L44.838,45.452L50.763,45.452L50.763,65.627C50.763,71.777 47.163,74.552 41.913,74.552C36.663,74.552 34.413,72.077 33.063,69.152L37.863,66.227Z" style="fill-rule:nonzero;"/>
    </g>
</svg>
