<?xml version="1.0" encoding="UTF-8" standalone="no"?>
<!DOCTYPE svg PUBLIC "-//W3C//DTD SVG 1.1//EN" "http://www.w3.org/Graphics/SVG/1.1/DTD/svg11.dtd">
<svg width="100%" height="100%" viewBox="0 0 72 72" version="1.1" xmlns="http://www.w3.org/2000/svg" xmlns:xlink="http://www.w3.org/1999/xlink" xml:space="preserve" xmlns:serif="http://www.serif.com/" style="fill-rule:evenodd;clip-rule:evenodd;stroke-linejoin:round;stroke-miterlimit:2;">
    <g transform="matrix(1,0,0,1,-12,-12)">
        <path d="M48.038,83.925C45.788,83.925 43.62,83.025 41.97,81.45L14.475,53.955C12.825,52.305 12,50.213 12,47.888C12,45.563 12.9,43.47 14.475,41.82L41.82,14.475C43.395,12.825 45.563,12 47.888,12C50.213,12 52.305,12.9 53.955,14.55L81.45,42.045C83.1,43.695 83.925,45.788 83.925,48.112C83.925,50.438 83.025,52.53 81.45,54.18L54.105,81.525C52.455,83.175 50.362,84 48.038,84L48.038,83.925Z" style="fill:white;fill-rule:nonzero;"/>
    </g>
    <g transform="matrix(1,0,0,1,-12,-12)">
        <path d="M78.19,45.192L50.695,17.697C49.12,16.122 46.578,16.122 44.928,17.697L39.235,23.389L46.503,30.657C48.153,30.057 50.095,30.507 51.445,31.782C52.795,33.132 53.17,35.082 52.57,36.799L59.538,43.767C61.263,43.167 63.205,43.542 64.555,44.892C66.43,46.767 66.43,49.834 64.555,51.709C62.68,53.584 59.612,53.584 57.737,51.709C56.313,50.284 55.938,48.184 56.688,46.467L50.17,39.949L50.17,57.109C50.62,57.334 51.07,57.634 51.445,58.009C53.32,59.884 53.32,62.952 51.445,64.827C49.57,66.702 46.503,66.702 44.628,64.827C42.753,62.952 42.753,59.884 44.628,58.009C45.078,57.559 45.603,57.184 46.203,56.959L46.203,39.649C45.603,39.424 45.078,39.049 44.628,38.599C43.203,37.174 42.828,35.074 43.578,33.357L36.46,26.239L17.65,45.042C16.075,46.617 16.075,49.159 17.65,50.809L45.145,78.304C46.72,79.879 49.263,79.879 50.913,78.304L78.257,50.959C79.833,49.384 79.833,46.842 78.257,45.192L78.183,45.192L78.19,45.192Z" style="fill:rgb(240,81,51);fill-rule:nonzero;"/>
    </g>
</svg>
