<?xml version="1.0" encoding="UTF-8" standalone="no"?>
<!DOCTYPE svg PUBLIC "-//W3C//DTD SVG 1.1//EN" "http://www.w3.org/Graphics/SVG/1.1/DTD/svg11.dtd">
<svg width="100%" height="100%" viewBox="0 0 55 72" version="1.1" xmlns="http://www.w3.org/2000/svg" xmlns:xlink="http://www.w3.org/1999/xlink" xml:space="preserve" xmlns:serif="http://www.serif.com/" style="fill-rule:evenodd;clip-rule:evenodd;stroke-linejoin:round;stroke-miterlimit:2;">
    <g transform="matrix(1,0,0,1,-21,-12)">
        <path d="M48.348,83.843C46.848,83.843 45.356,83.468 44.081,82.718L23.876,71.416L23.576,71.266C23.051,70.966 22.526,70.666 22.151,70.216C21.176,69.092 20.801,67.674 21.101,66.249L28.811,17.017C29.186,14.55 31.128,12.525 33.603,12.075L33.678,12.075C33.978,12.075 34.353,12 34.653,12C35.553,12 36.453,12.225 37.196,12.6C38.321,13.125 39.288,14.025 39.888,15.142L43.931,22.776C45.056,21.577 46.623,20.834 48.273,20.834C49.923,20.834 48.273,20.834 48.348,20.834C50.516,20.834 52.466,22.109 53.516,23.976L56.508,29.661L59.576,26.594C60.401,25.769 61.376,25.244 62.418,25.019C62.868,24.944 63.318,24.869 63.768,24.869C64.218,24.869 63.918,24.869 63.993,24.869C64.518,24.869 65.118,25.019 65.643,25.169C67.736,25.844 69.311,27.636 69.686,29.811L75.596,66.557C75.896,68.207 75.221,69.849 73.871,70.899C73.796,70.899 73.646,71.049 73.571,71.124C73.496,71.124 73.421,71.199 73.271,71.274L52.466,82.875C51.191,83.625 49.698,84 48.198,84L48.348,83.85L48.348,83.843Z" style="fill:white;fill-rule:nonzero;"/>
    </g>
    <g transform="matrix(1,0,0,1,-21,-12)">
        <path d="M25.586,67.29L33.296,17.75C33.371,17.15 33.896,16.626 34.496,16.551C35.096,16.476 35.696,16.775 35.996,17.3L44.006,32.194L47.223,26.135C47.448,25.685 47.973,25.385 48.498,25.385C49.023,25.385 49.548,25.685 49.773,26.135L71.403,67.223L25.661,67.223L25.586,67.298L25.586,67.29Z" style="fill:rgb(255,160,0);fill-rule:nonzero;"/>
    </g>
    <g transform="matrix(1,0,0,1,-21,-12)">
        <path d="M52.308,47.977L43.998,32.184L25.586,67.212L52.308,47.902L52.308,47.977Z" style="fill:rgb(245,124,0);fill-rule:nonzero;"/>
    </g>
    <g transform="matrix(1,0,0,1,-21,-12)">
        <path d="M71.324,67.295L65.414,30.624C65.339,30.099 64.964,29.649 64.439,29.499C63.914,29.349 63.389,29.499 63.014,29.874L25.672,67.295L46.327,78.896C47.602,79.646 49.169,79.646 50.519,78.896L71.399,67.295L71.324,67.295Z" style="fill:rgb(255,202,40);fill-rule:nonzero;"/>
    </g>
    <g transform="matrix(1,0,0,1,-21,-12)">
        <path d="M65.333,30.622C65.258,30.097 64.883,29.647 64.358,29.497C63.833,29.347 63.308,29.497 62.933,29.872L55.523,37.281L49.688,26.205C49.463,25.755 48.938,25.455 48.413,25.455C47.888,25.455 47.363,25.755 47.138,26.205L43.921,32.264L35.918,17.379C35.618,16.854 35.018,16.554 34.418,16.629C33.818,16.704 33.368,17.229 33.218,17.828L25.516,67.368L25.741,67.518L62.941,30.322C63.316,29.947 63.916,29.797 64.366,29.947C64.816,30.097 65.266,30.547 65.341,31.072L71.251,67.443L65.341,30.697L65.341,30.622L65.333,30.622ZM25.666,67.218L33.301,18.128C33.376,17.529 33.901,17.004 34.501,16.929C35.101,16.854 35.701,17.154 36.001,17.679L44.011,32.572L47.228,26.513C47.453,26.063 47.978,25.763 48.503,25.763C49.028,25.763 49.553,26.063 49.778,26.513L55.463,37.364L25.666,67.218Z" style="fill:white;fill-opacity:0.4;fill-rule:nonzero;"/>
    </g>
    <g transform="matrix(1,0,0,1,-21,-12)">
        <path d="M50.433,78.515C49.158,79.265 47.591,79.265 46.241,78.515L25.586,66.914L25.586,67.214L46.241,78.815C47.516,79.565 49.083,79.565 50.433,78.815L71.313,67.214L71.313,66.914L50.433,78.515Z" style="fill:rgb(165,39,20);fill-opacity:0.2;fill-rule:nonzero;"/>
    </g>
    <g transform="matrix(1,0,0,1,-21,-12)">
        <path d="M65.328,30.622C65.253,30.097 64.878,29.647 64.353,29.497C63.828,29.347 63.303,29.497 62.928,29.872L55.518,37.281L49.683,26.205C49.458,25.755 48.933,25.455 48.408,25.455C47.883,25.455 47.358,25.755 47.133,26.205L43.991,32.264L35.988,17.379C35.688,16.854 35.088,16.554 34.488,16.629C33.888,16.704 33.438,17.229 33.288,17.828L25.586,67.293L46.166,78.895C47.441,79.644 49.008,79.644 50.358,78.895L71.163,67.293L65.253,30.622L65.328,30.622Z" style="fill:url(#_Linear1);fill-rule:nonzero;"/>
    </g>
    <defs>
        <linearGradient id="_Linear1" x1="0" y1="0" x2="1" y2="0" gradientUnits="userSpaceOnUse" gradientTransform="matrix(56.4628,23.4003,-23.4003,56.4628,22.5709,30.2622)"><stop offset="0" style="stop-color:white;stop-opacity:0.1"/><stop offset="0.1" style="stop-color:white;stop-opacity:0"/><stop offset="1" style="stop-color:white;stop-opacity:0"/></linearGradient>
    </defs>
</svg>
