<?xml version="1.0" encoding="UTF-8" standalone="no"?>
<!DOCTYPE svg PUBLIC "-//W3C//DTD SVG 1.1//EN" "http://www.w3.org/Graphics/SVG/1.1/DTD/svg11.dtd">
<svg width="100%" height="100%" viewBox="0 0 68 72" version="1.1" xmlns="http://www.w3.org/2000/svg" xmlns:xlink="http://www.w3.org/1999/xlink" xml:space="preserve" xmlns:serif="http://www.serif.com/" style="fill-rule:evenodd;clip-rule:evenodd;stroke-linejoin:round;stroke-miterlimit:2;">
    <g transform="matrix(1,0,0,1,-14,-12)">
        <path d="M78.945,53.1C78.877,53.04 78.81,52.98 78.742,52.92C79.027,51.165 79.162,49.568 79.162,48.023C79.162,46.32 78.982,44.678 78.742,43.163C80.092,42.292 80.602,41.01 80.775,40.56L80.857,40.373C81.172,39.653 82.057,37.65 81.202,35.378C80.947,34.32 80.445,33.57 80.137,33.15C79.792,32.362 79.387,31.71 79.05,31.163C78.855,30.84 78.667,30.54 78.532,30.255C78.187,29.565 77.812,28.943 77.49,28.395C77.22,27.938 76.957,27.503 76.792,27.18C75.84,25.193 74.4,23.828 72.487,23.1C71.662,22.793 70.822,22.635 70.005,22.635C69.352,22.635 68.707,22.733 68.04,22.943C67.815,23.017 67.582,23.093 67.357,23.168C64.86,21.15 62.137,19.56 59.235,18.413C59.175,18.105 59.1,17.798 59.017,17.468C58.515,15.563 57.397,14.055 55.86,13.215C54.855,12.637 53.482,12 51.63,12C50.347,12.015 49.065,12.03 47.775,12.03C46.485,12.03 45.21,12.023 43.86,12C42.727,12 41.872,12.278 41.347,12.443L41.25,12.473C38.655,13.373 36.885,15.413 36.397,18.105C36.382,18.195 36.367,18.285 36.36,18.375C33.442,19.538 30.712,21.128 28.207,23.123C27.975,23.04 27.742,22.965 27.51,22.898C26.88,22.71 26.22,22.613 25.545,22.613C23.22,22.613 20.962,23.783 19.62,25.733C19.312,26.19 19.102,26.61 18.945,26.918C18.9,27.008 18.862,27.09 18.847,27.12L18.802,27.188C18.322,27.9 17.932,28.605 17.587,29.228C17.415,29.535 17.25,29.835 17.062,30.15C16.785,30.622 16.507,31.103 16.237,31.583C15.87,32.228 15.502,32.88 15.112,33.503L15.067,33.585C14.415,34.688 14.167,35.858 14.062,36.698C13.815,38.94 14.745,41.183 16.62,42.847C16.695,42.915 16.77,42.983 16.845,43.05C16.59,44.64 16.402,46.245 16.402,47.933C16.402,49.62 16.582,51.278 16.822,52.792C15.472,53.663 14.962,54.945 14.79,55.395L14.707,55.583C14.392,56.303 13.507,58.305 14.362,60.578C14.617,61.635 15.12,62.385 15.427,62.805C15.772,63.593 16.177,64.245 16.507,64.793C16.702,65.115 16.89,65.415 17.025,65.7C17.37,66.39 17.745,67.013 18.067,67.568C18.337,68.025 18.6,68.46 18.765,68.783C19.717,70.77 21.157,72.143 23.07,72.863C23.895,73.17 24.735,73.328 25.552,73.328C26.205,73.328 26.85,73.23 27.517,73.02C27.742,72.945 27.975,72.87 28.2,72.795C30.712,74.835 33.442,76.433 36.352,77.565C36.397,77.798 36.442,78.03 36.487,78.27C36.877,80.25 38.04,81.893 39.69,82.793C40.695,83.363 42.067,84 43.912,84C45.195,83.985 46.477,83.97 47.767,83.97C49.057,83.97 50.332,83.978 51.622,84L51.69,84C52.822,84 53.722,83.715 54.195,83.565C56.73,82.755 58.507,80.828 59.077,78.255C59.122,78.037 59.167,77.82 59.212,77.603C62.16,76.455 64.867,74.873 67.395,72.825C67.59,72.893 67.8,72.96 68.01,73.02C68.497,73.163 69.255,73.358 70.147,73.358C71.13,73.358 72.06,73.132 72.937,72.683L72.975,72.668C74.55,72.03 75.645,71.048 76.245,69.735C76.86,68.82 77.355,67.905 77.797,67.08C78.045,66.63 78.285,66.173 78.562,65.708C78.787,65.325 79.012,64.935 79.23,64.552C79.635,63.847 80.04,63.15 80.46,62.46C81.015,61.568 81.36,60.533 81.517,59.258C81.765,57.015 80.835,54.773 78.96,53.108L78.945,53.1Z" style="fill:white;fill-rule:nonzero;"/>
    </g>
    <g transform="matrix(1,0,0,1,-14,-12)">
        <path d="M40.266,74.138C36.088,72.946 32.413,70.748 29.203,67.673C28.198,68.033 27.171,68.393 26.128,68.738C25.641,68.888 25.161,68.836 24.651,68.641C23.758,68.303 23.211,67.636 22.821,66.818C22.281,65.738 21.591,64.756 21.051,63.676C20.563,62.671 19.858,61.801 19.446,60.758C19.243,60.248 18.703,59.903 18.703,59.258C18.216,58.463 18.688,57.758 18.966,57.061C19.041,56.873 19.131,56.626 19.303,56.551C19.978,56.251 20.308,55.568 20.871,55.148C21.133,54.961 21.411,54.751 21.711,54.526C21.283,52.343 20.908,50.168 20.908,47.933C20.908,45.698 21.298,43.576 21.711,41.453C20.983,40.771 20.308,40.111 19.603,39.481C18.876,38.836 18.448,38.041 18.538,37.208C18.591,36.751 18.726,36.263 18.951,35.881C19.641,34.763 20.278,33.586 20.946,32.453C21.486,31.546 21.951,30.593 22.551,29.708C22.866,29.251 23.053,28.726 23.368,28.246C23.983,27.353 25.213,26.918 26.226,27.226C27.118,27.488 27.958,27.886 28.873,28.058C28.963,28.081 29.038,28.208 29.136,28.306C32.361,25.253 36.036,23.078 40.258,21.803C40.423,21.293 40.461,20.738 40.671,20.213C40.821,19.816 40.783,19.321 40.858,18.886C41.061,17.746 41.751,17.086 42.741,16.741C43.093,16.628 43.453,16.516 43.881,16.516C46.491,16.553 49.101,16.553 51.718,16.516C52.461,16.516 53.098,16.816 53.698,17.161C54.238,17.446 54.538,18.053 54.688,18.623C54.951,19.666 55.101,20.731 55.303,21.826C59.503,23.041 63.178,25.216 66.388,28.291C67.393,27.931 68.421,27.571 69.463,27.226C69.951,27.076 70.431,27.128 70.941,27.323C71.833,27.661 72.381,28.328 72.771,29.146C73.311,30.226 74.001,31.208 74.541,32.288C75.028,33.293 75.733,34.163 76.146,35.206C76.348,35.716 76.888,36.061 76.888,36.706C77.376,37.501 76.903,38.206 76.626,38.903C76.551,39.091 76.461,39.338 76.288,39.413C75.613,39.713 75.283,40.396 74.721,40.816C74.458,41.003 74.181,41.213 73.881,41.438C74.308,43.621 74.683,45.796 74.683,48.031C74.683,50.266 74.346,52.388 73.881,54.511C74.608,55.193 75.283,55.853 75.988,56.483C76.716,57.128 77.143,57.923 77.053,58.756C77.001,59.213 76.888,59.701 76.641,60.083C75.966,61.186 75.336,62.318 74.683,63.436C73.866,64.816 73.191,66.316 72.238,67.621C72.073,68.341 71.398,68.401 70.911,68.663C70.386,68.948 69.868,68.873 69.291,68.701C68.436,68.453 67.611,68.018 66.718,67.906C66.628,67.883 66.553,67.756 66.456,67.658C63.231,70.748 59.571,72.946 55.303,74.176C55.101,75.196 54.913,76.261 54.688,77.303C54.463,78.323 53.796,78.968 52.843,79.276C52.491,79.388 52.116,79.501 51.703,79.501C49.093,79.463 46.483,79.463 43.866,79.501C43.123,79.501 42.486,79.201 41.886,78.856C41.346,78.571 41.031,77.963 40.918,77.393C40.716,76.276 40.506,75.233 40.281,74.131L40.266,74.138ZM41.481,57.443C41.856,57.233 42.283,57.106 42.298,56.648C42.336,55.966 42.426,55.268 42.283,54.623C42.021,53.521 41.556,52.463 41.278,51.361C41.091,50.663 40.678,49.996 40.701,49.238C40.101,47.738 39.733,46.171 39.223,44.648C38.811,43.396 38.511,42.106 38.068,40.876C37.828,40.193 37.768,39.436 37.326,38.828C37.288,38.768 37.273,38.731 37.273,38.731C36.771,38.393 36.246,38.506 35.796,38.506C35.533,38.753 35.308,38.963 35.106,39.151C35.091,39.758 34.656,40.231 34.731,40.816C34.078,42.293 33.801,43.883 33.253,45.406C32.976,46.186 32.803,46.981 32.578,47.776C32.376,48.571 31.926,49.291 31.926,50.146C31.213,51.758 30.861,53.483 30.343,55.171C30.216,55.591 30.141,55.988 30.396,56.386C30.471,56.498 30.433,56.671 30.433,56.648C30.733,56.971 30.958,57.196 31.146,57.428L32.263,57.428C32.526,57.091 32.788,56.768 33.028,56.446C32.976,55.366 33.193,54.646 33.681,53.491L39.163,53.491C39.313,54.098 39.388,54.683 39.591,55.231C39.681,55.456 39.778,55.688 39.741,55.913C39.688,56.611 39.906,57.166 40.693,57.428C40.881,57.451 41.158,57.451 41.473,57.451L41.481,57.443ZM45.846,57.443C46.348,57.406 46.926,57.556 47.338,57.143C47.488,56.956 47.616,56.761 47.803,56.498L47.803,50.626C49.168,50.626 50.511,50.566 51.831,50.648C52.633,50.686 53.286,50.438 53.923,50.041C54.223,49.853 54.486,49.568 54.741,49.298C55.431,48.616 55.768,47.783 55.783,46.793L55.783,42.151C55.783,41.926 55.731,41.678 55.671,41.453C55.468,40.636 55.033,40.028 54.456,39.503C53.781,38.881 53.001,38.498 52.071,38.498L45.801,38.498C45.598,38.723 45.388,38.956 45.148,39.181L45.148,56.791C45.388,57.001 45.613,57.226 45.838,57.451L45.846,57.443ZM59.278,57.443L63.156,57.443C63.381,57.218 63.606,56.986 63.831,56.783L63.831,55.643C63.553,55.111 63.118,54.788 62.563,54.736L62.563,41.281C62.976,41.071 63.328,40.883 63.741,40.658C63.793,40.163 63.831,39.653 63.868,39.293C63.568,38.956 63.366,38.708 63.193,38.513L59.391,38.513C59.076,38.798 58.851,39.008 58.573,39.271C58.626,39.728 58.701,40.238 58.761,40.673C59.211,40.898 59.563,41.093 59.878,41.258L59.878,54.751C59.691,54.788 59.488,54.751 59.413,54.848C59.151,55.111 58.701,55.186 58.611,55.628L58.611,56.768C58.836,56.993 59.061,57.226 59.286,57.451L59.278,57.443Z" style="fill:rgb(102,200,255);fill-rule:nonzero;"/>
    </g>
    <g transform="matrix(1,0,0,1,-14,-12)">
        <path d="M38.178,50.58C37.075,50.617 35.92,50.64 34.765,50.677C34.728,50.677 34.675,50.752 34.563,50.85C34.578,49.672 35.238,48.727 35.305,47.647C35.868,46.702 35.92,45.585 36.295,44.52C36.408,44.632 36.573,44.745 36.573,44.842C36.588,45.66 37.06,46.357 37.21,47.137C37.323,47.67 37.623,48.179 37.698,48.712C37.773,49.395 38.222,49.905 38.185,50.587L38.178,50.58Z" style="fill:rgb(102,200,255);fill-rule:nonzero;"/>
    </g>
    <g transform="matrix(1,0,0,1,-14,-12)">
        <path d="M53.19,46.907C53.063,47.117 52.95,47.327 52.8,47.514C52.538,47.814 52.2,47.987 51.773,47.972C50.468,47.949 49.163,47.972 47.82,47.972L47.82,41.147C49.185,41.147 50.58,41.124 51.96,41.147C52.613,41.169 53.175,41.852 53.19,42.572L53.19,46.914L53.19,46.907Z" style="fill:rgb(102,200,255);fill-rule:nonzero;"/>
    </g>
</svg>
