<?xml version="1.0" encoding="UTF-8" standalone="no"?>
<!DOCTYPE svg PUBLIC "-//W3C//DTD SVG 1.1//EN" "http://www.w3.org/Graphics/SVG/1.1/DTD/svg11.dtd">
<svg width="100%" height="100%" viewBox="0 0 72 68" version="1.1" xmlns="http://www.w3.org/2000/svg" xmlns:xlink="http://www.w3.org/1999/xlink" xml:space="preserve" xmlns:serif="http://www.serif.com/" style="fill-rule:evenodd;clip-rule:evenodd;stroke-linejoin:round;stroke-miterlimit:2;">
    <g transform="matrix(1,0,0,1,-12,-14)">
        <path d="M72.537,46.213C71.113,46.213 69.695,45.538 68.871,44.338L63.329,36.545C62.355,35.195 62.205,33.403 62.954,31.903C63.254,31.303 63.629,30.853 64.154,30.478C62.954,28.978 61.162,28.078 59.138,28.078C57.113,28.078 53.822,29.953 52.997,32.645C52.622,33.845 51.872,34.82 50.822,35.345C50.147,35.72 49.472,35.87 48.723,35.87C47.973,35.87 47.823,35.87 47.373,35.645C46.098,35.27 44.749,34.97 43.406,34.82C42.057,34.67 40.857,33.995 40.115,32.945C39.372,31.895 39.14,30.47 39.44,29.203C39.665,28.228 40.04,27.328 40.414,26.435C41.464,24.035 42.889,21.868 44.756,19.993C46.631,18.118 48.873,16.625 51.272,15.65C53.747,14.6 56.438,14 59.213,14C61.987,14 64.679,14.525 67.153,15.575C69.628,16.625 71.795,18.05 73.67,19.918C75.544,21.785 77.036,23.96 78.011,26.36C78.461,27.335 78.761,28.385 79.061,29.428C80.411,29.653 81.535,30.553 82.203,31.753C82.952,33.253 82.878,35.045 81.828,36.395L76.286,44.188C75.462,45.388 74.112,46.063 72.62,46.063L72.545,46.213L72.537,46.213Z" style="fill:white;"/>
    </g>
    <g transform="matrix(1,0,0,1,-12,-14)">
        <path d="M70.284,81.793C69.61,81.793 68.86,81.643 68.26,81.268C67.135,80.668 66.31,79.618 65.935,78.426L51.036,78.426C48.937,78.426 47.145,77.001 46.695,74.983C46.245,72.958 47.219,70.866 49.094,69.966C49.244,69.966 49.319,69.816 49.469,69.816L49.619,69.816C51.344,68.991 52.836,67.941 54.26,66.673C54.41,66.523 54.635,66.373 54.785,66.148L55.31,65.623C55.535,65.398 55.76,65.173 55.91,64.948C56.735,63.823 58.085,63.223 59.427,63.223L66.018,63.223C66.318,62.023 67.143,60.973 68.342,60.381C69.017,60.081 69.692,59.856 70.367,59.856C71.042,59.856 72.241,60.156 72.991,60.681L82.124,67.198C83.324,68.023 83.999,69.373 83.999,70.866C83.999,72.358 83.324,73.708 82.124,74.533L72.991,81.051C72.241,81.576 71.267,81.876 70.367,81.876L70.284,81.793Z" style="fill:white;"/>
    </g>
    <g transform="matrix(1,0,0,1,-12,-14)">
        <path d="M78.066,33.85L72.525,41.643L66.984,33.85L70.05,33.85C69.825,28.083 65.034,23.44 59.193,23.44C53.352,23.44 50.06,26.733 48.785,31.233C47.211,30.708 45.493,30.408 43.844,30.258C44.069,29.508 44.294,28.833 44.594,28.083C45.418,26.208 46.543,24.49 48.035,22.99C49.46,21.565 51.177,20.365 53.127,19.623C55.076,18.798 57.168,18.348 59.343,18.348C61.517,18.348 63.609,18.798 65.559,19.623C67.433,20.448 69.15,21.573 70.65,22.99C72.075,24.415 73.275,26.133 74.092,28.083C74.842,29.883 75.292,31.825 75.367,33.85L78.434,33.85L78.059,33.85L78.066,33.85Z" style="fill:rgb(255,127,105);"/>
    </g>
    <g transform="matrix(1,0,0,1,-12,-14)">
        <path d="M70.28,77.294L70.28,73.927L51.039,73.927C51.189,73.927 51.339,73.777 51.414,73.702C53.514,72.727 55.456,71.376 57.105,69.809C57.33,69.584 57.555,69.359 57.78,69.209C58.005,68.984 58.23,68.759 58.455,68.459C58.755,68.159 58.98,67.859 59.28,67.559L70.212,67.559L70.212,64.191L79.345,70.709L70.212,77.227L70.287,77.302L70.28,77.294Z" style="fill:rgb(125,101,245);"/>
    </g>
    <g transform="matrix(1,0,0,1,-12,-14)">
        <path d="M16.516,78.492C14.041,78.492 12.024,76.467 12.024,73.999L12.024,67.631C12.024,65.156 14.049,63.139 16.516,63.139L18.165,63.139L12.849,55.721C11.874,54.371 11.724,52.579 12.474,51.079C13.149,49.729 14.499,48.829 15.991,48.679C16.291,46.729 16.891,44.861 17.641,43.061C18.99,39.919 20.857,37.144 23.182,34.751C25.581,32.351 28.348,30.484 31.49,29.209C34.707,27.859 38.081,27.184 41.598,27.184C45.114,27.184 42.872,27.184 43.622,27.259C45.722,27.409 47.739,27.859 49.688,28.459C50.513,28.684 51.113,28.984 51.788,29.284C54.855,30.559 57.629,32.426 60.021,34.826C62.413,37.226 64.287,39.994 65.562,43.136C66.912,46.354 67.587,49.729 67.587,53.246C67.587,56.764 66.912,60.139 65.562,63.356C64.438,66.124 62.795,68.599 60.771,70.774C60.771,70.774 60.021,71.599 59.946,71.599C59.796,71.749 59.271,72.274 59.196,72.349C57.247,74.149 55.155,75.567 52.755,76.692C52.455,76.842 52.155,76.992 51.78,77.141L51.63,77.141C49.456,78.042 47.139,78.567 44.664,78.567L16.516,78.567L16.516,78.492ZM42.805,63.139C48.271,63.139 52.838,58.721 52.913,53.254L52.913,53.104C52.913,46.886 47.896,41.869 41.68,41.869C35.464,41.869 32.922,44.786 31.198,48.911C32.172,49.286 33.072,50.036 33.522,51.011C34.272,52.511 34.197,54.304 33.147,55.654L27.831,63.071L42.73,63.071L42.805,63.146L42.805,63.139Z" style="fill:white;"/>
    </g>
    <g transform="matrix(1,0,0,1,-12,-14)">
        <path d="M63.178,53.101C63.178,56.019 62.578,58.794 61.453,61.487C60.478,63.737 59.129,65.829 57.487,67.629C57.262,67.854 57.037,68.079 56.812,68.304L56.212,68.904C54.637,70.404 52.77,71.604 50.821,72.572C50.521,72.722 50.296,72.797 49.996,72.947C48.346,73.622 46.629,73.997 44.83,73.997L16.523,73.997L16.523,67.629L42.805,67.629C50.746,67.629 57.254,61.262 57.404,53.326L57.404,53.101C57.404,44.416 50.363,37.374 41.68,37.374C32.997,37.374 25.956,44.416 25.956,53.101L29.623,53.101L23.107,62.237L16.591,53.101L20.258,53.101C20.258,50.184 20.858,47.409 21.982,44.716C23.107,42.166 24.607,39.849 26.624,37.899C28.573,35.949 30.89,34.381 33.44,33.256C36.064,32.131 38.906,31.531 41.823,31.531C44.74,31.531 42.948,31.531 43.547,31.531C45.272,31.681 46.914,31.981 48.489,32.506C49.089,32.731 49.614,32.881 50.213,33.181C52.763,34.306 55.08,35.806 57.029,37.824C58.979,39.774 60.546,42.091 61.671,44.641C62.795,47.266 63.395,50.109 63.395,53.026L63.17,53.101L63.178,53.101Z" style="fill:rgb(245,101,203);"/>
    </g>
</svg>
