<?xml version="1.0" encoding="UTF-8" standalone="no"?>
<!DOCTYPE svg PUBLIC "-//W3C//DTD SVG 1.1//EN" "http://www.w3.org/Graphics/SVG/1.1/DTD/svg11.dtd">
<svg width="100%" height="100%" viewBox="0 0 72 72" version="1.1" xmlns="http://www.w3.org/2000/svg" xmlns:xlink="http://www.w3.org/1999/xlink" xml:space="preserve" xmlns:serif="http://www.serif.com/" style="fill-rule:evenodd;clip-rule:evenodd;stroke-linejoin:round;stroke-miterlimit:2;">
    <g transform="matrix(1,0,0,1,-12,-12)">
        <path d="M73.35,12L22.65,12C16.768,12 12,16.768 12,22.65L12,73.35C12,79.232 16.768,84 22.65,84L73.35,84C79.232,84 84,79.232 84,73.35L84,22.65C84,16.768 79.232,12 73.35,12Z" style="fill:white;fill-rule:nonzero;"/>
    </g>
    <g transform="matrix(1,0,0,1,-12,-12)">
        <path d="M73.35,16.5L22.65,16.5C19.253,16.5 16.5,19.253 16.5,22.65L16.5,73.35C16.5,76.747 19.253,79.5 22.65,79.5L73.35,79.5C76.747,79.5 79.5,76.747 79.5,73.35L79.5,22.65C79.5,19.253 76.747,16.5 73.35,16.5Z" style="fill:rgb(49,120,198);fill-rule:nonzero;"/>
    </g>
    <g transform="matrix(1,0,0,1,-12,-12)">
        <path d="M73.35,16.5L22.65,16.5C19.253,16.5 16.5,19.253 16.5,22.65L16.5,73.35C16.5,76.747 19.253,79.5 22.65,79.5L73.35,79.5C76.747,79.5 79.5,76.747 79.5,73.35L79.5,22.65C79.5,19.253 76.747,16.5 73.35,16.5Z" style="fill:rgb(49,120,198);fill-rule:nonzero;"/>
    </g>
    <g transform="matrix(1,0,0,1,-12,-12)">
        <path d="M55.517,66.595L55.517,72.745C56.492,73.269 57.692,73.644 59.042,73.87C60.392,74.095 61.817,74.245 63.392,74.245C64.967,74.245 66.242,74.095 67.592,73.795C68.942,73.495 70.067,73.045 71.117,72.37C72.092,71.695 72.917,70.87 73.517,69.82C74.117,68.769 74.417,67.495 74.417,65.92C74.417,64.344 74.267,63.82 73.892,62.995C73.517,62.17 73.067,61.42 72.467,60.745C71.867,60.07 71.117,59.469 70.217,59.02C69.317,58.57 68.342,58.045 67.217,57.52C66.392,57.219 65.717,56.844 65.042,56.545C64.367,56.245 63.842,55.945 63.392,55.57C62.942,55.27 62.567,54.895 62.342,54.52C62.117,54.145 61.967,53.77 61.967,53.245C61.967,52.719 62.042,52.42 62.267,52.12C62.492,51.82 62.792,51.52 63.167,51.219C63.542,50.995 64.067,50.77 64.667,50.62C65.267,50.469 65.867,50.395 66.617,50.395C67.367,50.395 67.667,50.395 68.267,50.545C68.867,50.62 69.392,50.77 69.992,50.92C70.592,51.07 71.117,51.295 71.642,51.52C72.167,51.745 72.692,52.045 73.142,52.344L73.142,46.57C72.242,46.195 71.192,45.969 70.067,45.745C68.942,45.52 67.667,45.52 66.242,45.52C64.817,45.52 63.392,45.67 62.117,45.969C60.842,46.27 59.642,46.795 58.667,47.469C57.692,48.145 56.867,48.969 56.342,50.02C55.742,51.07 55.442,52.27 55.442,53.695C55.442,55.12 55.967,57.07 57.017,58.42C58.067,59.695 59.717,60.82 61.817,61.719C62.642,62.094 63.467,62.395 64.217,62.77C64.967,63.145 65.567,63.445 66.092,63.82C66.617,64.195 67.067,64.57 67.367,65.019C67.667,65.469 67.817,65.92 67.817,66.445C67.817,66.97 67.742,67.195 67.517,67.57C67.292,67.945 67.067,68.17 66.617,68.47C66.167,68.769 65.717,68.92 65.117,69.07C64.517,69.22 63.842,69.295 63.092,69.295C61.742,69.295 60.467,69.07 59.117,68.62C57.842,68.17 56.567,67.42 55.442,66.519L55.517,66.595ZM45.092,51.445L53.042,51.445L53.042,46.42L30.992,46.42L30.992,51.445L38.867,51.445L38.867,73.945L45.092,73.945L45.092,51.445Z" style="fill:white;"/>
    </g>
</svg>
