<?xml version="1.0" encoding="UTF-8" standalone="no"?>
<!DOCTYPE svg PUBLIC "-//W3C//DTD SVG 1.1//EN" "http://www.w3.org/Graphics/SVG/1.1/DTD/svg11.dtd">
<svg width="100%" height="100%" viewBox="0 0 68 72" version="1.1" xmlns="http://www.w3.org/2000/svg" xmlns:xlink="http://www.w3.org/1999/xlink" xml:space="preserve" xmlns:serif="http://www.serif.com/" style="fill-rule:evenodd;clip-rule:evenodd;stroke-linejoin:round;stroke-miterlimit:2;">
    <g transform="matrix(1,0,0,1,-14,-12)">
        <path d="M47.852,84C47.102,84 46.352,83.85 45.677,83.4L20.852,69.6C19.577,68.925 18.752,67.65 18.527,66.15L14.027,27.45C13.802,25.35 15.002,23.4 16.952,22.725L46.352,12.225C46.877,12.075 47.327,12 47.852,12C48.377,12 48.902,12.075 49.352,12.225L78.677,22.65C80.627,23.325 81.902,25.35 81.602,27.375L77.102,66.15C76.952,67.575 76.052,68.85 74.777,69.6L49.952,83.4C49.277,83.775 48.527,84 47.777,84L47.852,84Z" style="fill:white;fill-rule:nonzero;"/>
    </g>
    <g transform="matrix(1,0,0,1,-14,-12)">
        <path d="M47.841,16.5L18.516,26.925L23.016,65.7L47.841,79.5L72.666,65.7L77.166,26.925L47.841,16.5Z" style="fill:rgb(221,0,49);fill-rule:nonzero;"/>
    </g>
    <g transform="matrix(1,0,0,1,-14,-12)">
        <path d="M47.836,16.5L47.836,79.5L72.661,65.7L77.161,26.925L47.836,16.5Z" style="fill:rgb(195,0,47);fill-rule:nonzero;"/>
    </g>
    <g transform="matrix(1,0,0,1,-14,-12)">
        <path d="M47.847,23.481L29.547,64.581L36.372,64.581L40.047,55.356L55.572,55.356L59.247,64.581L66.072,64.581L47.847,23.481ZM53.172,49.731L42.447,49.731L47.772,36.831L53.097,49.731L53.172,49.731Z" style="fill:white;fill-rule:nonzero;"/>
    </g>
</svg>
