<?xml version="1.0" encoding="UTF-8" standalone="no"?>
<!DOCTYPE svg PUBLIC "-//W3C//DTD SVG 1.1//EN" "http://www.w3.org/Graphics/SVG/1.1/DTD/svg11.dtd">
<svg width="100%" height="100%" viewBox="0 0 17 17" version="1.1" xmlns="http://www.w3.org/2000/svg" xmlns:xlink="http://www.w3.org/1999/xlink" xml:space="preserve" xmlns:serif="http://www.serif.com/" style="fill-rule:evenodd;clip-rule:evenodd;stroke-linejoin:round;stroke-miterlimit:2;">
    <g>
        <rect x="1.778" y="1.777" width="12.444" height="12.445" style="fill-opacity:0;"/>
    </g>
    <g transform="matrix(1,0,0,1,-48,-7.6875)">
        <path d="M48.889,7.688L63.111,7.688C63.602,7.688 64,8.085 64,8.576L64,22.799C64,23.29 63.602,23.688 63.111,23.688L48.889,23.688C48.398,23.688 48,23.29 48,22.799L48,8.576C48,8.085 48.398,7.688 48.889,7.688ZM49.778,9.465L49.778,21.91L62.222,21.91L62.222,9.465L49.778,9.465ZM52,13.021C51.264,13.021 50.667,12.424 50.667,11.688C50.667,10.951 51.264,10.354 52,10.354C52.736,10.354 53.333,10.951 53.333,11.688C53.333,12.424 52.736,13.021 52,13.021ZM51.111,13.91L52.889,13.91L52.889,20.576L51.111,20.576L51.111,13.91ZM56,14.291C56.52,13.79 57.125,13.465 57.778,13.465C59.619,13.465 60.889,14.958 60.889,16.799L60.889,20.576L59.111,20.576L59.111,16.799C59.111,15.94 58.415,15.243 57.556,15.243C56.697,15.243 56,15.94 56,16.799L56,20.576L54.222,20.576L54.222,13.91L56,13.91L56,14.291Z" style="fill-rule:nonzero;"/>
    </g>
</svg>
