<?xml version="1.0" encoding="UTF-8" standalone="no"?>
<!DOCTYPE svg PUBLIC "-//W3C//DTD SVG 1.1//EN" "http://www.w3.org/Graphics/SVG/1.1/DTD/svg11.dtd">
<svg width="100%" height="100%" viewBox="0 0 17 19" version="1.1" xmlns="http://www.w3.org/2000/svg" xmlns:xlink="http://www.w3.org/1999/xlink" xml:space="preserve" xmlns:serif="http://www.serif.com/" style="fill-rule:evenodd;clip-rule:evenodd;stroke-linejoin:round;stroke-miterlimit:2;">
    <g transform="matrix(1,0,0,1,-8,-6.6875)">
        <path d="M20.015,24.82C19.559,24.82 12.943,24.824 12.943,24.824C12.943,24.824 14.757,24.82 14.757,23.409L14.757,20.494C14.757,19.909 14.976,19.386 15.154,19.231C15.762,18.702 15.451,17.703 14.65,17.613C11.919,17.306 10.65,16.235 10.65,13.299C10.65,12.423 10.942,11.681 11.495,11.074C11.734,10.811 11.802,10.436 11.67,10.107C11.517,9.724 11.451,9.224 11.584,8.619C12.042,8.748 12.618,9.027 13.314,9.496C13.54,9.647 13.82,9.692 14.082,9.619C14.841,9.405 15.657,9.296 16.481,9.296C17.305,9.296 18.121,9.405 18.881,9.619C19.144,9.693 19.426,9.647 19.652,9.493C20.344,9.023 20.917,8.744 21.372,8.615L21.381,8.613C21.512,9.221 21.446,9.723 21.293,10.107C21.161,10.436 21.229,10.811 21.468,11.074C22.024,11.685 22.313,12.415 22.313,13.299C22.313,16.241 21.045,17.304 18.299,17.613C17.496,17.703 17.186,18.706 17.798,19.234C18.023,19.427 18.192,19.848 18.192,20.494C18.192,21.104 18.179,23.325 18.179,23.409C18.179,24.328 18.881,24.82 20.015,24.82ZM20.015,24.82C20.047,24.82 20.049,24.82 20.015,24.82Z" style="fill-opacity:0;"/>
    </g>
    <g transform="matrix(1,0,0,1,-8,-6.6875)">
        <path d="M10.819,21.643C10.541,21.457 10.302,21.221 10.023,20.887C9.922,20.766 9.513,20.253 9.591,20.351C9.163,19.819 8.892,19.573 8.613,19.473C8.132,19.3 7.882,18.77 8.055,18.289C8.227,17.808 8.757,17.557 9.238,17.73C9.935,17.98 10.406,18.41 11.041,19.2C10.954,19.092 11.355,19.595 11.442,19.698C11.618,19.909 11.748,20.037 11.848,20.104C12.038,20.231 12.393,20.286 12.914,20.234C12.935,19.88 13.001,19.537 13.101,19.22C10.353,18.548 8.798,16.775 8.798,13.299C8.798,12.152 9.14,11.118 9.778,10.252C9.576,9.424 9.606,8.424 10.057,7.298C10.16,7.039 10.374,6.841 10.64,6.758C10.716,6.736 10.758,6.726 10.833,6.715C11.576,6.601 12.626,6.872 13.994,7.73C14.796,7.54 15.637,7.444 16.481,7.444C17.325,7.444 18.165,7.54 18.966,7.729C20.333,6.866 21.385,6.594 22.134,6.715C22.212,6.727 22.279,6.744 22.335,6.762C22.595,6.847 22.804,7.043 22.906,7.298C23.356,8.423 23.387,9.424 23.185,10.251C23.825,11.118 24.164,12.144 24.164,13.299C24.164,16.777 22.615,18.543 19.867,19.216C19.983,19.6 20.044,20.029 20.044,20.494C20.044,21.109 20.041,21.696 20.037,22.355C20.036,22.531 20.035,22.719 20.033,23.008C20.38,23.084 20.667,23.359 20.741,23.731C20.841,24.232 20.516,24.72 20.015,24.82C18.961,25.031 18.179,24.328 18.179,23.409C18.179,23.325 18.18,23.206 18.181,22.995C18.183,22.706 18.185,22.518 18.186,22.343C18.19,21.688 18.192,21.104 18.192,20.494C18.192,19.848 18.023,19.427 17.798,19.234C17.186,18.706 17.496,17.703 18.299,17.613C21.045,17.304 22.313,16.241 22.313,13.299C22.313,12.415 22.024,11.685 21.468,11.074C21.229,10.811 21.161,10.436 21.293,10.107C21.446,9.723 21.512,9.221 21.381,8.613L21.372,8.615C20.917,8.744 20.344,9.023 19.652,9.493C19.426,9.647 19.144,9.693 18.881,9.619C18.121,9.405 17.305,9.296 16.481,9.296C15.657,9.296 14.841,9.405 14.082,9.619C13.82,9.692 13.54,9.647 13.314,9.496C12.618,9.027 12.042,8.748 11.584,8.619C11.451,9.224 11.517,9.724 11.67,10.107C11.802,10.436 11.734,10.811 11.495,11.074C10.942,11.681 10.65,12.423 10.65,13.299C10.65,16.235 11.919,17.306 14.65,17.613C15.451,17.703 15.762,18.702 15.154,19.231C14.976,19.386 14.757,19.909 14.757,20.494L14.757,23.409C14.757,24.322 13.984,25.006 12.943,24.824C12.439,24.736 12.103,24.256 12.191,23.753C12.258,23.371 12.549,23.085 12.906,23.007L12.906,22.091C12.063,22.148 11.367,22.01 10.819,21.643Z" style="fill-rule:nonzero;"/>
    </g>
</svg>
